<?xml version="1.0" encoding="UTF-8"?>
<svg width="34px" height="34px" viewBox="0 0 34 34" version="1.1" xmlns="http://www.w3.org/2000/svg" xmlns:xlink="http://www.w3.org/1999/xlink">
    <!-- Generator: Sketch 52.6 (67491) - http://www.bohemiancoding.com/sketch -->
    <title>avi_icon</title>
    <desc>Created with Sketch.</desc>
    <defs>
        <polygon id="path-1" points="0.00442708333 0 33.0555556 0 33.0555556 19.5362903 0.00442708333 19.5362903"></polygon>
    </defs>
    <g id="All-Resources-icons" stroke="none" stroke-width="1" fill="none" fill-rule="evenodd">
        <g id="Res-03" transform="translate(-98.000000, -358.000000)">
            <g id="AVI_icon" transform="translate(98.000000, 358.000000)">
                <g transform="translate(0.000000, 0.219355)">
                    <path d="M7.08333333,0 C5.78472222,0 4.72222222,0.925403226 4.72222222,2.05645161 L4.72222222,30.8467742 C4.72222222,31.9778226 5.78472222,32.9032258 7.08333333,32.9032258 L30.6944444,32.9032258 C31.9930556,32.9032258 33.0555556,31.9778226 33.0555556,30.8467742 L33.0555556,8.22580645 L23.6111111,0 L7.08333333,0" id="Fill-1" fill="#E1E4E1"></path>
                    <path d="M25.9722222,8.22580645 L33.0555556,8.22580645 L23.6111111,0 L23.6111111,6.16935484 C23.6111111,7.30040323 24.6736111,8.22580645 25.9722222,8.22580645" id="Fill-2" fill="#AAB0B1"></path>
                    <g id="Group-6" transform="translate(0.000000, 8.225806)">
                        <mask id="mask-2" fill="white">
                            <use xlink:href="#path-1"></use>
                        </mask>
                        <g id="Clip-4"></g>
                        <polyline id="Fill-3" fill="#C6CCCE" mask="url(#mask-2)" points="33.0555556 6.16935484 25.9722222 0 33.0555556 0 33.0555556 6.16935484"></polyline>
                        <path d="M28.3333333,18.5080645 C28.3333333,19.0735887 27.8020833,19.5362903 27.1527778,19.5362903 L1.18055556,19.5362903 C0.53125,19.5362903 0,19.0735887 0,18.5080645 L0,8.22580645 C0,7.66028226 0.53125,7.19758065 1.18055556,7.19758065 L27.1527778,7.19758065 C27.8020833,7.19758065 28.3333333,7.66028226 28.3333333,8.22580645 L28.3333333,18.5080645" id="Fill-5" fill="#E05243" mask="url(#mask-2)"></path>
                    </g>
                    <path d="M10.6556944,22.590121 L9.58847222,20.559375 L8.42798611,22.590121 L10.6556944,22.590121 Z M6.59694444,24.6784476 C6.29472222,24.5293548 6.10583333,24.234254 6.29472222,23.8887702 L9.00409722,19.2771774 C9.25909722,18.8412097 9.93791667,18.8247581 10.1740278,19.2771774 L12.8361806,23.8887702 C13.2234028,24.5293548 12.080625,25.0393548 11.740625,24.3977419 L11.3250694,23.6748992 L7.84243056,23.6748992 L7.4375,24.3987702 C7.28638889,24.6784476 6.93694444,24.7360282 6.59694444,24.6784476 Z" id="Fill-7" fill="#FFFFFE"></path>
                    <path d="M15.4652778,24.3082863 L12.973125,19.7625 C12.6047917,19.1126613 13.7192361,18.5790121 14.1336111,19.2607258 L14.9741667,20.9130847 L16.0590972,23.0826411 L17.1251389,20.9130847 L17.9656944,19.2607258 C18.3434722,18.6365927 19.4378472,19.0304032 19.1179167,19.7131452 L16.7107639,24.3082863 C16.4935417,24.8265121 15.8229861,24.9498992 15.4652778,24.3082863" id="Fill-8" fill="#FFFFFE"></path>
                    <path d="M20.2819444,19.4817944 C20.2819444,18.8083065 21.5286111,18.7826008 21.5286111,19.4817944 L21.5286111,24.1756452 C21.5286111,24.8583871 20.2819444,24.8748387 20.2819444,24.1756452 L20.2819444,19.4817944" id="Fill-9" fill="#FFFFFE"></path>
                    <path d="M27.1527778,27.7620968 L4.72222222,27.7620968 L4.72222222,28.7903226 L27.1527778,28.7903226 C27.8020833,28.7903226 28.3333333,28.327621 28.3333333,27.7620968 L28.3333333,26.733871 C28.3333333,27.2993952 27.8020833,27.7620968 27.1527778,27.7620968" id="Fill-10" fill="#C6CCCE"></path>
                </g>
            </g>
        </g>
    </g>
</svg>