<?xml version="1.0" encoding="UTF-8"?>
<svg width="34px" height="34px" viewBox="0 0 34 34" version="1.1" xmlns="http://www.w3.org/2000/svg" xmlns:xlink="http://www.w3.org/1999/xlink">
    <!-- Generator: Sketch 52.6 (67491) - http://www.bohemiancoding.com/sketch -->
    <title>doc_icon</title>
    <desc>Created with Sketch.</desc>
    <defs>
        <polygon id="path-1" points="0.00442708333 0 33.0555556 0 33.0555556 19.5362903 0.00442708333 19.5362903"></polygon>
    </defs>
    <g id="All-Resources-icons" stroke="none" stroke-width="1" fill="none" fill-rule="evenodd">
        <g id="Res-03" transform="translate(-149.000000, -358.000000)">
            <g id="DOC_icon" transform="translate(149.000000, 358.000000)">
                <g transform="translate(0.000000, 0.438710)">
                    <path d="M7.08333333,0 C5.78472222,0 4.72222222,0.925403226 4.72222222,2.05645161 L4.72222222,30.8467742 C4.72222222,31.9778226 5.78472222,32.9032258 7.08333333,32.9032258 L30.6944444,32.9032258 C31.9930556,32.9032258 33.0555556,31.9778226 33.0555556,30.8467742 L33.0555556,8.22580645 L23.6111111,0 L7.08333333,0" id="Fill-1" fill="#E1E4E1"></path>
                    <path d="M25.9722222,8.22580645 L33.0555556,8.22580645 L23.6111111,0 L23.6111111,6.16935484 C23.6111111,7.30040323 24.6736111,8.22580645 25.9722222,8.22580645" id="Fill-2" fill="#AAB0B1"></path>
                    <g id="Group-6" transform="translate(0.000000, 8.225806)">
                        <mask id="mask-2" fill="white">
                            <use xlink:href="#path-1"></use>
                        </mask>
                        <g id="Clip-4"></g>
                        <polyline id="Fill-3" fill="#C6CCCE" mask="url(#mask-2)" points="33.0555556 6.16935484 25.9722222 0 33.0555556 0 33.0555556 6.16935484"></polyline>
                        <path d="M28.3333333,18.5080645 C28.3333333,19.0735887 27.8020833,19.5362903 27.1527778,19.5362903 L1.18055556,19.5362903 C0.53125,19.5362903 0,19.0735887 0,18.5080645 L0,8.22580645 C0,7.66028226 0.53125,7.19758065 1.18055556,7.19758065 L27.1527778,7.19758065 C27.8020833,7.19758065 28.3333333,7.66028226 28.3333333,8.22580645 L28.3333333,18.5080645" id="Fill-5" fill="#56B7D9" mask="url(#mask-2)"></path>
                    </g>
                    <path d="M5.06458333,19.9907661 L5.06458333,23.673871 L6.63118056,23.673871 C9.18,23.673871 9.29215278,19.9907661 6.63118056,19.9907661 L5.06458333,19.9907661 Z M4.46958333,24.6774194 C4.15791667,24.6774194 3.81791667,24.5283266 3.81791667,24.1674194 L3.81791667,19.498246 C3.81791667,19.2021169 4.15791667,18.988246 4.46958333,18.988246 L6.63118056,18.988246 C10.9449306,18.988246 10.8493056,24.6774194 6.715,24.6774194 L4.46958333,24.6774194 Z" id="Fill-7" fill="#FFFFFE"></path>
                    <path d="M14.3579167,19.8519556 C13.3001389,19.8519556 12.1490972,20.5017944 12.1490972,21.8004435 C12.1490972,23.0918952 13.3013194,23.7499597 14.3579167,23.7499597 C15.4440278,23.7499597 16.6045139,23.0918952 16.6045139,21.8004435 C16.6045139,20.5007661 15.4440278,19.8519556 14.3579167,19.8519556 Z M14.4618056,24.7596774 C12.7157639,24.8254839 10.9024306,23.8137097 10.9024306,21.7994153 C10.9024306,19.7768952 12.7145833,18.7826008 14.4618056,18.7826008 C16.1134028,18.8556048 17.8405556,19.8509274 17.8405556,21.7994153 C17.8405556,23.7489315 16.1134028,24.7596774 14.4618056,24.7596774 Z" id="Fill-8" fill="#FFFFFE"></path>
                    <path d="M18.9514583,21.7911895 C18.9514583,20.2046371 20.0942361,18.8401815 22.2652778,18.8401815 C23.0869444,18.8401815 23.7386111,19.0540524 24.426875,19.5722782 C24.681875,19.7768952 24.7102083,20.1388306 24.4552083,20.3691532 C24.2002083,20.5655444 23.8129861,20.5418952 23.5863194,20.3444758 C23.2002778,19.9907661 22.8036111,19.8930847 22.2652778,19.8930847 C20.8120139,19.8930847 20.1143056,20.7896976 20.1143056,21.7922177 C20.1143056,22.8122177 20.8025694,23.7489315 22.2652778,23.7489315 C22.8036111,23.7489315 23.3041667,23.5587097 23.7386111,23.2224798 C24.0302083,23.0250605 24.4363194,23.1227419 24.6063194,23.3211895 C24.7574306,23.5021573 24.8318056,23.8065121 24.5024306,24.0933871 C23.8413194,24.6290927 23.0491667,24.7360282 22.2640972,24.7360282 C19.9809028,24.7360282 18.9514583,23.3777419 18.9514583,21.7911895" id="Fill-9" fill="#FFFFFE"></path>
                    <path d="M27.1527778,27.7620968 L4.72222222,27.7620968 L4.72222222,28.7903226 L27.1527778,28.7903226 C27.8020833,28.7903226 28.3333333,28.327621 28.3333333,27.7620968 L28.3333333,26.733871 C28.3333333,27.2993952 27.8020833,27.7620968 27.1527778,27.7620968" id="Fill-10" fill="#C6CCCE"></path>
                </g>
            </g>
        </g>
    </g>
</svg>