<?xml version="1.0" encoding="UTF-8"?>
<svg width="34px" height="34px" viewBox="0 0 34 34" version="1.1" xmlns="http://www.w3.org/2000/svg" xmlns:xlink="http://www.w3.org/1999/xlink">
    <!-- Generator: Sketch 52.6 (67491) - http://www.bohemiancoding.com/sketch -->
    <title>mp3_icon</title>
    <desc>Created with Sketch.</desc>
    <defs>
        <polygon id="path-1" points="0.00442708333 0 33.0555556 0 33.0555556 19.5362903 0.00442708333 19.5362903"></polygon>
    </defs>
    <g id="All-Resources-icons" stroke="none" stroke-width="1" fill="none" fill-rule="evenodd">
        <g id="Res-03" transform="translate(-199.000000, -358.000000)">
            <g id="MP3_icon" transform="translate(199.000000, 358.000000)">
                <g transform="translate(0.000000, 0.658065)">
                    <path d="M7.08333333,0 C5.78472222,0 4.72222222,0.925403226 4.72222222,2.05645161 L4.72222222,30.8467742 C4.72222222,31.9788508 5.78472222,32.9032258 7.08333333,32.9032258 L30.6944444,32.9032258 C31.9930556,32.9032258 33.0555556,31.9788508 33.0555556,30.8467742 L33.0555556,8.22580645 L23.6111111,0 L7.08333333,0" id="Fill-1" fill="#E1E4E1"></path>
                    <path d="M25.9722222,8.22580645 L33.0555556,8.22580645 L23.6111111,0 L23.6111111,6.16935484 C23.6111111,7.30040323 24.6736111,8.22580645 25.9722222,8.22580645" id="Fill-2" fill="#AAB0B1"></path>
                    <g id="Group-6" transform="translate(0.000000, 8.225806)">
                        <mask id="mask-2" fill="white">
                            <use xlink:href="#path-1"></use>
                        </mask>
                        <g id="Clip-4"></g>
                        <polyline id="Fill-3" fill="#C6CCCE" mask="url(#mask-2)" points="33.0555556 6.16935484 25.9722222 0 33.0555556 0 33.0555556 6.16935484"></polyline>
                        <path d="M28.3333333,18.5080645 C28.3333333,19.0735887 27.8020833,19.5362903 27.1527778,19.5362903 L1.18055556,19.5362903 C0.53125,19.5362903 0,19.0735887 0,18.5080645 L0,8.22580645 C0,7.66028226 0.53125,7.19758065 1.18055556,7.19758065 L27.1527778,7.19758065 C27.8020833,7.19758065 28.3333333,7.66028226 28.3333333,8.22580645 L28.3333333,18.5080645" id="Fill-5" fill="#56B7D9" mask="url(#mask-2)"></path>
                    </g>
                    <path d="M6.28527778,21.0683468 L6.28527778,24.1108669 C6.28527778,24.4728024 5.94645833,24.6784476 5.60527778,24.6784476 C5.30305556,24.6784476 5.03979167,24.4728024 5.03979167,24.1108669 L5.03979167,19.4817944 C5.03979167,19.0550806 5.45534722,18.9142137 5.60527778,18.9142137 C5.87916667,18.9142137 6.03972222,19.0550806 6.20027778,19.2103427 L8.27805556,21.652379 L10.4290278,19.1198589 C10.741875,18.7826008 11.5056944,18.9142137 11.5056944,19.4817944 L11.5056944,24.1108669 C11.5056944,24.4728024 11.2400694,24.6784476 10.9390278,24.6784476 C10.6002083,24.6784476 10.3345833,24.4728024 10.3345833,24.1108669 L10.3345833,21.0683468 L8.76798611,22.7957661 C8.42916667,23.1577016 8.00416667,23.1577016 7.6925,22.7957661 L6.28527778,21.0683468" id="Fill-7" fill="#FFFFFE"></path>
                    <path d="M14.4004167,19.9506653 L14.4004167,21.9978629 L15.9764583,21.9978629 C16.6092361,21.9978629 17.1097917,21.5125403 17.1097917,21.0025403 C17.1097917,20.4267339 16.6092361,19.9506653 15.9764583,19.9506653 L14.4004167,19.9506653 Z M13.1549306,19.4817944 C13.1549306,19.2103427 13.4004861,18.9142137 13.7971528,18.9142137 L15.9776389,18.9142137 C17.2054167,18.9142137 18.3104167,19.6298589 18.3104167,21.0025403 C18.3104167,22.3022177 17.2054167,23.0250605 15.9776389,23.0250605 L14.4015972,23.0250605 L14.4015972,24.1108669 C14.4015972,24.4728024 14.1371528,24.6784476 13.7971528,24.6784476 C13.4854861,24.6784476 13.1549306,24.4728024 13.1549306,24.1108669 L13.1549306,19.4817944 Z" id="Fill-8" fill="#FFFFFE"></path>
                    <path d="M21.4022917,20.0164718 L19.7884722,20.0164718 C18.9963194,20.0164718 19.0435417,18.9892742 19.7884722,18.9892742 L22.6772917,18.9892742 C23.2522222,18.9892742 23.5166667,19.5650806 23.0928472,19.9352419 L21.52625,21.2092137 C22.6784722,21.1351815 23.5839583,21.8827016 23.5839583,22.8039919 C23.5839583,23.8147379 22.7622917,24.6784476 21.0351389,24.6784476 C20.2795833,24.6784476 19.5346528,24.406996 19.1002083,23.8147379 C18.646875,23.2317339 19.6184722,22.672379 20.1284722,23.2471573 C20.3740278,23.5268347 20.7706944,23.6666734 21.1945139,23.6666734 C21.770625,23.6666734 22.3372917,23.4528024 22.3372917,22.8029637 C22.3372917,21.9485081 21.1378472,22.080121 20.4873611,22.1377016 C19.6940278,22.2693145 19.4590972,21.5207661 19.921875,21.2092137 L21.4022917,20.0164718" id="Fill-9" fill="#FFFFFE"></path>
                    <path d="M27.1527778,27.7620968 L4.72222222,27.7620968 L4.72222222,28.7903226 L27.1527778,28.7903226 C27.8020833,28.7903226 28.3333333,28.327621 28.3333333,27.7620968 L28.3333333,26.733871 C28.3333333,27.2993952 27.8020833,27.7620968 27.1527778,27.7620968" id="Fill-10" fill="#C6CCCE"></path>
                </g>
            </g>
        </g>
    </g>
</svg>