<?xml version="1.0" encoding="UTF-8"?>
<svg width="34px" height="34px" viewBox="0 0 34 34" version="1.1" xmlns="http://www.w3.org/2000/svg" xmlns:xlink="http://www.w3.org/1999/xlink">
    <!-- Generator: Sketch 52.6 (67491) - http://www.bohemiancoding.com/sketch -->
    <title>mp4_icon</title>
    <desc>Created with Sketch.</desc>
    <defs>
        <polygon id="path-1" points="0.00442708333 0 33.0555556 0 33.0555556 19.5362903 0.00442708333 19.5362903"></polygon>
    </defs>
    <g id="All-Resources-icons" stroke="none" stroke-width="1" fill="none" fill-rule="evenodd">
        <g id="Res-03" transform="translate(-209.000000, -408.000000)">
            <g id="mp4_icon" transform="translate(209.000000, 408.000000)">
                <g id="AVI_icon" transform="translate(0.000000, 0.219355)">
                    <path d="M7.08333333,0 C5.78472222,0 4.72222222,0.925403226 4.72222222,2.05645161 L4.72222222,30.8467742 C4.72222222,31.9778226 5.78472222,32.9032258 7.08333333,32.9032258 L30.6944444,32.9032258 C31.9930556,32.9032258 33.0555556,31.9778226 33.0555556,30.8467742 L33.0555556,8.22580645 L23.6111111,0 L7.08333333,0" id="Fill-1" fill="#E1E4E1"></path>
                    <path d="M25.9722222,8.22580645 L33.0555556,8.22580645 L23.6111111,0 L23.6111111,6.16935484 C23.6111111,7.30040323 24.6736111,8.22580645 25.9722222,8.22580645" id="Fill-2" fill="#AAB0B1"></path>
                    <g id="Group-6" transform="translate(0.000000, 8.225806)">
                        <mask id="mask-2" fill="white">
                            <use xlink:href="#path-1"></use>
                        </mask>
                        <g id="Clip-4"></g>
                        <polyline id="Fill-3" fill="#C6CCCE" mask="url(#mask-2)" points="33.0555556 6.16935484 25.9722222 0 33.0555556 0 33.0555556 6.16935484"></polyline>
                        <path d="M28.3333333,18.5080645 C28.3333333,19.0735887 27.8020833,19.5362903 27.1527778,19.5362903 L1.18055556,19.5362903 C0.53125,19.5362903 0,19.0735887 0,18.5080645 L0,8.22580645 C0,7.66028226 0.53125,7.19758065 1.18055556,7.19758065 L27.1527778,7.19758065 C27.8020833,7.19758065 28.3333333,7.66028226 28.3333333,8.22580645 L28.3333333,18.5080645" id="Fill-5" fill="#6E3E85" mask="url(#mask-2)"></path>
                    </g>
                    <path d="M27.1527778,27.7620968 L4.72222222,27.7620968 L4.72222222,28.7903226 L27.1527778,28.7903226 C27.8020833,28.7903226 28.3333333,28.327621 28.3333333,27.7620968 L28.3333333,26.733871 C28.3333333,27.2993952 27.8020833,27.7620968 27.1527778,27.7620968" id="Fill-10" fill="#C6CCCE"></path>
                </g>
                <path d="M12.408,19.44 L12.408,25 L11.488,25 L11.488,20.832 L9.88,25 L9.08,25 L7.464,20.832 L7.464,25 L6.552,25 L6.552,19.44 L7.656,19.44 L9.496,23.88 L11.304,19.44 L12.408,19.44 Z M14.416,22.808 L14.416,25 L13.504,25 L13.504,19.352 L15.424,19.352 C16.0746699,19.352 16.5639984,19.5066651 16.892,19.816 C17.2200016,20.1253349 17.384,20.5493306 17.384,21.088 C17.384,21.621336 17.2160017,22.0413318 16.88,22.348 C16.5439983,22.6546682 16.0586698,22.808 15.424,22.808 L14.416,22.808 Z M15.328,22.064 C16.0800038,22.064 16.456,21.7386699 16.456,21.088 C16.456,20.7679984 16.3666676,20.5240008 16.188,20.356 C16.0093324,20.1879992 15.7226686,20.104 15.328,20.104 L14.416,20.104 L14.416,22.064 L15.328,22.064 Z M17.912,23.784 L17.912,23.016 L20.72,19.304 L21.696,19.304 L21.696,22.984 L22.488,22.984 L22.488,23.784 L21.696,23.784 L21.696,25 L20.776,25 L20.776,23.784 L17.912,23.784 Z M20.84,20.392 L18.856,22.984 L20.84,22.984 L20.84,20.392 Z" id="MP4" fill="#FFFFFF"></path>
            </g>
        </g>
    </g>
</svg>