<?xml version="1.0" encoding="UTF-8"?>
<svg width="34px" height="34px" viewBox="0 0 34 34" version="1.1" xmlns="http://www.w3.org/2000/svg" xmlns:xlink="http://www.w3.org/1999/xlink">
    <!-- Generator: Sketch 52.6 (67491) - http://www.bohemiancoding.com/sketch -->
    <title>pdf_icon</title>
    <desc>Created with Sketch.</desc>
    <defs>
        <polygon id="path-1" points="0.00442708333 0 33.0555556 0 33.0555556 20.1875 0.00442708333 20.1875"></polygon>
    </defs>
    <g id="All-Resources-icons" stroke="none" stroke-width="1" fill="none" fill-rule="evenodd">
        <g id="Res-03" transform="translate(-250.000000, -358.000000)">
            <g id="PDF_icon" transform="translate(250.000000, 358.000000)">
                <g>
                    <path d="M7.08333333,0 C5.78472222,0 4.72222222,0.95625 4.72222222,2.125 L4.72222222,31.875 C4.72222222,33.04375 5.78472222,34 7.08333333,34 L30.6944444,34 C31.9930556,34 33.0555556,33.04375 33.0555556,31.875 L33.0555556,8.5 L23.6111111,0 L7.08333333,0" id="Fill-1" fill="#E1E4E1"></path>
                    <path d="M25.9722222,8.5 L33.0555556,8.5 L23.6111111,0 L23.6111111,6.375 C23.6111111,7.54375 24.6736111,8.5 25.9722222,8.5" id="Fill-2" fill="#AAB0B1"></path>
                    <g id="Group-6" transform="translate(0.000000, 8.500000)">
                        <mask id="mask-2" fill="white">
                            <use xlink:href="#path-1"></use>
                        </mask>
                        <g id="Clip-4"></g>
                        <polyline id="Fill-3" fill="#C6CCCE" mask="url(#mask-2)" points="33.0555556 6.375 25.9722222 0 33.0555556 0 33.0555556 6.375"></polyline>
                        <path d="M28.3333333,19.125 C28.3333333,19.709375 27.8020833,20.1875 27.1527778,20.1875 L1.18055556,20.1875 C0.53125,20.1875 0,19.709375 0,19.125 L0,8.5 C0,7.915625 0.53125,7.4375 1.18055556,7.4375 L27.1527778,7.4375 C27.8020833,7.4375 28.3333333,7.915625 28.3333333,8.5 L28.3333333,19.125" id="Fill-5" fill="#E05243" mask="url(#mask-2)"></path>
                    </g>
                    <path d="M6.39152778,20.614625 L6.39152778,22.731125 L7.96756944,22.731125 C8.60034722,22.731125 9.10090278,22.2285625 9.10090278,21.7015625 C9.10090278,21.107625 8.60034722,20.614625 7.96756944,20.614625 L6.39152778,20.614625 Z M5.14604167,20.1311875 C5.14604167,19.8506875 5.39159722,19.5446875 5.78708333,19.5446875 L7.96756944,19.5446875 C9.19534722,19.5446875 10.3003472,20.2841875 10.3003472,21.7015625 C10.3003472,23.0445625 9.19534722,23.7925625 7.96756944,23.7925625 L6.39152778,23.7925625 L6.39152778,24.9145625 C6.39152778,25.2885625 6.12708333,25.5 5.78708333,25.5 C5.47541667,25.5 5.14604167,25.2885625 5.14604167,24.9145625 L5.14604167,20.1311875 Z" id="Fill-7" fill="#FFFFFE"></path>
                    <path d="M12.7440972,20.6581875 L12.7440972,24.4640625 L14.3106944,24.4640625 C16.8595139,24.4640625 16.9728472,20.6581875 14.3106944,20.6581875 L12.7440972,20.6581875 Z M12.1490972,25.5 C11.8374306,25.5 11.4974306,25.347 11.4974306,24.9740625 L11.4974306,20.1481875 C11.4974306,19.84325 11.8374306,19.6211875 12.1490972,19.6211875 L14.3106944,19.6211875 C18.6244444,19.6211875 18.53,25.5 14.3956944,25.5 L12.1490972,25.5 Z" id="Fill-8" fill="#FFFFFE"></path>
                    <path d="M20.06,20.7261875 L20.06,22.076625 L22.4671528,22.076625 C22.8071528,22.076625 23.1471528,22.382625 23.1471528,22.6790625 C23.1471528,22.9595625 22.8071528,23.1890625 22.4671528,23.1890625 L20.06,23.1890625 L20.06,24.973 C20.06,25.2705 19.8250694,25.4989375 19.4945139,25.4989375 C19.0789583,25.4989375 18.8251389,25.2705 18.8251389,24.973 L18.8251389,20.147125 C18.8251389,19.8421875 19.0801389,19.620125 19.4945139,19.620125 L22.8083333,19.620125 C23.2238889,19.620125 23.4694444,19.8421875 23.4694444,20.147125 C23.4694444,20.419125 23.2238889,20.725125 22.8083333,20.725125 L20.06,20.725125 L20.06,20.7261875" id="Fill-9" fill="#FFFFFE"></path>
                    <path d="M27.1527778,28.6875 L4.72222222,28.6875 L4.72222222,29.75 L27.1527778,29.75 C27.8020833,29.75 28.3333333,29.271875 28.3333333,28.6875 L28.3333333,27.625 C28.3333333,28.209375 27.8020833,28.6875 27.1527778,28.6875" id="Fill-10" fill="#C6CCCE"></path>
                </g>
            </g>
        </g>
    </g>
</svg>