<?xml version="1.0" encoding="UTF-8"?>
<svg width="15px" height="15px" viewBox="0 0 15 15" version="1.1" xmlns="http://www.w3.org/2000/svg" xmlns:xlink="http://www.w3.org/1999/xlink">
    <title>cross_delete_white_icon</title>
    <g id="Talent-Management-UI" stroke="none" stroke-width="1" fill="none" fill-rule="evenodd">
        <g id="06_individual-card_person_A_Edit-View" transform="translate(-455.000000, -919.000000)" fill="#FFFFFF">
            <g id="Group-33" transform="translate(50.000000, 843.000000)">
                <g id="Group" transform="translate(18.000000, 63.000000)">
                    <path d="M401.552308,13.216 C401.264308,12.928 400.795385,12.928 400.507385,13.216 L394.384615,19.3387692 L388.258154,13.216 C387.970154,12.928 387.504923,12.928 387.216,13.216 C386.928,13.5049231 386.928,13.9701538 387.216,14.2581538 L393.338769,20.3846154 L387.216,26.5073846 C386.928,26.7953846 386.928,27.2643077 387.216,27.5523077 C387.36,27.6972308 387.548308,27.7692308 387.739385,27.7692308 C387.926769,27.7692308 388.114154,27.6972308 388.258154,27.5523077 L394.384615,21.4267692 L400.507385,27.5523077 C400.651385,27.6972308 400.842462,27.7692308 401.029846,27.7692308 C401.217231,27.7692308 401.408308,27.6972308 401.552308,27.5523077 C401.841231,27.2643077 401.841231,26.7953846 401.552308,26.5073846 L395.426769,20.3846154 L401.552308,14.2581538 C401.841231,13.9701538 401.841231,13.5049231 401.552308,13.216 Z" id="cross_delete_white_icon"></path>
                </g>
            </g>
        </g>
    </g>
</svg>