<?xml version="1.0" encoding="utf-8"?>
<svg width="25px" height="100px" viewBox="0 0 25 100" version="1.1" xmlns:xlink="http://www.w3.org/1999/xlink" xmlns="http://www.w3.org/2000/svg">
  <desc>Created with Lunacy</desc>
  <g id="more">
    <path d="M21.3388 3.66115C26.2203 8.54269 26.2203 16.4573 21.3388 21.3388C16.4573 26.2203 8.54268 26.2203 3.66115 21.3388C-1.22038 16.4573 -1.22038 8.54269 3.66115 3.66115C8.54249 -1.22038 16.4571 -1.22038 21.3388 3.66115" id="Shape" fill="#4374FF" stroke="none" />
    <path d="M21.3388 3.66115C26.2203 8.54269 26.2203 16.4573 21.3388 21.3388C16.4573 26.2203 8.54268 26.2203 3.66115 21.3388C-1.22038 16.4573 -1.22038 8.54268 3.66115 3.66115C8.54249 -1.22038 16.4571 -1.22038 21.3388 3.66115" transform="translate(0 37.50024)" id="Shape" fill="#4374FF" stroke="none" />
    <path d="M21.3388 3.66115C26.2203 8.54269 26.2203 16.4573 21.3388 21.3388C16.4573 26.2203 8.54268 26.2203 3.66115 21.3388C-1.22038 16.4573 -1.22038 8.54269 3.66115 3.66115C8.54249 -1.22038 16.4571 -1.22038 21.3388 3.66115" transform="translate(0 75)" id="Shape" fill="#4374FF" stroke="none" />
  </g>
</svg>