<?xml version="1.0" encoding="UTF-8" standalone="no"?>
<svg width="190px" height="88px" viewBox="0 0 190 88" version="1.1" xmlns="http://www.w3.org/2000/svg" xmlns:xlink="http://www.w3.org/1999/xlink">
    <!-- Generator: Sketch 50.2 (55047) - http://www.bohemiancoding.com/sketch -->
    <title>Error</title>
    <desc>Created with Sketch.</desc>
    <defs></defs>
    <g id="Alert-UI-screens" stroke="none" stroke-width="1" fill="none" fill-rule="evenodd">
        <g id="05_Alert" transform="translate(-625.000000, -306.000000)">
            <g id="Group-2" transform="translate(495.000000, 275.000000)">
                <g id="Error" transform="translate(130.000000, 15.000000)">
                    <path d="M40.2919708,88.5912409 C36.9056993,88.5912409 34.1605839,85.8461255 34.1605839,82.459854 C34.1605839,79.0735826 36.9056993,76.3284672 40.2919708,76.3284672 L6.13138686,76.3284672 C2.7451154,76.3284672 4.1469865e-16,73.5833518 0,70.1970803 C-4.1469865e-16,66.8108088 2.7451154,64.0656934 6.13138686,64.0656934 L41.1678832,64.0656934 C44.5541547,64.0656934 47.2992701,61.320578 47.2992701,57.9343066 C47.2992701,54.5480351 44.5541547,51.8029197 41.1678832,51.8029197 L19.270073,51.8029197 C15.8838015,51.8029197 13.1386861,49.0578043 13.1386861,45.6715328 C13.1386861,42.2852614 15.8838015,39.540146 19.270073,39.540146 L54.3065693,39.540146 C50.9202979,39.540146 48.1751825,36.7950306 48.1751825,33.4087591 C48.1751825,30.0224877 50.9202979,27.2773723 54.3065693,27.2773723 L104.233577,27.2773723 C107.619848,27.2773723 110.364964,30.0224877 110.364964,33.4087591 C110.364964,36.7950306 107.619848,39.540146 104.233577,39.540146 L160.291971,39.540146 C163.678242,39.540146 166.423358,42.2852614 166.423358,45.6715328 C166.423358,49.0578043 163.678242,51.8029197 160.291971,51.8029197 L179.562044,51.8029197 C182.948315,51.8029197 185.693431,54.5480351 185.693431,57.9343066 C185.693431,61.320578 182.948315,64.0656934 179.562044,64.0656934 L162.919708,64.0656934 C159.533437,64.0656934 156.788321,66.8108088 156.788321,70.1970803 C156.788321,73.5833518 159.533437,76.3284672 162.919708,76.3284672 L168.175182,76.3284672 C171.561454,76.3284672 174.306569,79.0735826 174.306569,82.459854 C174.306569,85.8461255 171.561454,88.5912409 168.175182,88.5912409 L40.2919708,88.5912409 Z M183.065693,88.5912409 C179.679422,88.5912409 176.934307,85.8461255 176.934307,82.459854 C176.934307,79.0735826 179.679422,76.3284672 183.065693,76.3284672 C186.451965,76.3284672 189.19708,79.0735826 189.19708,82.459854 C189.19708,85.8461255 186.451965,88.5912409 183.065693,88.5912409 Z" id="BG" fill="#FF5C58" opacity="0.200000003"></path>
                    <path d="M91.6632361,101.872157 C94.7670458,102.488866 97.9531574,102.595527 100.258612,102.424013 M104.036555,102.087591 C106.035703,101.850226 107.991872,101.472103 109.894948,100.963373 C114.080544,99.8444783 118.009312,98.0937948 121.573645,95.8193053 C125.178461,93.5189827 128.410517,90.6828881 131.158499,87.4227256 C133.556376,84.5779212 135.585668,81.4102214 137.172415,77.9938444 C138.746634,74.604443 139.885268,70.970276 140.516098,67.163817 C140.892,64.8956067 141.087591,62.5662191 141.087591,60.1909888 C141.087591,56.7037382 140.665987,53.3153032 139.871139,50.0742126 C139.017101,46.5917666 137.732159,43.2794269 136.076301,40.1973909 C134.002564,36.3375578 131.347076,32.8389372 128.227668,29.8197709 C125.80058,27.4706778 123.092644,25.4118356 120.159362,23.6989388 C116.857072,21.7705597 113.269172,20.2806406 109.474851,19.3086499 C106.139412,18.4542108 102.644462,18 99.0437956,18 C94.5188816,18 90.1609219,18.717319 86.0766785,20.0448212 C82.0780229,21.3445048 78.341732,23.229066 74.9679958,25.5979643 C71.4921592,28.0385532 68.4011535,30.9932379 65.8045427,34.3520708 C62.439025,38.7055193 59.904054,43.7379067 58.438193,49.2098345 C57.500231,52.7111624 57,56.3924535 57,60.1909888 C57,66.2212137 58.2606813,71.9559599 60.5319905,77.1442985 C63.2941069,83.4537852 67.5508157,88.9552035 72.8524093,93.1972716 C77.3019424,96.7575637 82.4874868,99.4307764 88.1431819,100.950118" id="Shape" stroke="#FF5C58" stroke-width="2.5" fill="#FFFFFF" stroke-linecap="round" transform="translate(99.043796, 60.248790) rotate(-44.000000) translate(-99.043796, -60.248790) "></path>
                    <g id="bling" transform="translate(130.510949, 10.635036)"></g>
                    <g id="bling" transform="translate(59.562044, 100.854015)"></g>
                    <g id="Group-4" transform="translate(79.000000, 40.000000)">
                        <path d="M1.31585202,4.72027329 C2.99374228,2.20469136 4.52382161,1.01439397 5.90609001,1.14938112 C7.28835841,1.28436826 8.3458863,1.67968777 9.07867368,2.33533964 L19.8746566,12.8195022 L24.5192751,8.42567052 L32.2748653,1.14938112 C33.8067766,0.866293781 35.0142366,1.07407757 35.8972454,1.77273248 C36.7802542,2.4713874 37.7531259,3.58898457 38.8158604,5.125524 C39.2443482,6.7579043 39.0568125,8.04346405 38.2532533,8.98220325 C37.449694,9.92094245 33.8123689,13.6066701 27.3412778,20.0393863 L38.2532533,31.5582253 C38.9285747,33.1927269 38.9285747,34.6935911 38.2532533,36.0608181 C37.5779318,37.4280451 36.6338896,38.3430651 35.4211265,38.8058782 C33.9680862,39.3604825 32.5569884,39.1835529 31.1878331,38.2750894 C29.8186777,37.3666259 26.1486075,33.8280342 20.1776225,27.6593144 L9.07867368,38.2750894 C6.70637096,39.4386786 4.83458131,39.4386786 3.46330471,38.2750894 C2.09202812,37.1115002 1.37621056,36.0679531 1.31585202,35.1444482 C1.09312322,32.7808232 1.52064681,31.2315564 2.59842277,30.4966478 C3.67619873,29.7617392 6.98241968,26.2919765 12.5170856,20.0873596 L1.31585202,8.42567052 L1.31585202,4.72027329 Z" id="Path-2" fill="#FFEBEB"></path>
                        <path d="M16.5525107,32.0628743 L20.0348608,28.5833696 L29.57891,38.1196248 C30.7537145,39.2929447 32.2971919,39.8800995 33.840298,39.8800995 C35.3832805,39.8800995 36.9263867,39.2929447 38.1011912,38.1196248 C39.2397469,36.981935 39.8666145,35.4698815 39.8666145,33.8610823 C39.8666145,32.252283 39.2397469,30.7396109 38.1011912,29.6025397 L28.5582554,20.0677692 L38.1011912,10.5328749 C39.2397469,9.3958037 39.8666145,7.88313159 39.8666145,6.27433236 C39.8666145,4.66565684 39.2397469,3.15347959 38.1011912,2.01591354 C35.7515822,-0.33134482 31.928519,-0.33134482 29.57891,2.01591354 L26.5593805,5.0328451 C26.1970171,5.3948373 26.1965222,5.98248697 26.5588856,6.34497403 C26.9208778,6.70733738 27.5085275,6.70783224 27.8710145,6.3454689 L30.8904204,3.32890848 C32.5166635,1.70365507 35.1629428,1.70365507 36.7896808,3.32890848 C37.5773788,4.11561675 38.0108787,5.16138574 38.0108787,6.27433236 C38.0108787,7.38740269 37.5773788,8.43317168 36.7896808,9.22037481 L26.5893197,19.4114573 C26.4153754,19.5854016 26.3172688,19.8212037 26.3172688,20.0677692 C26.3172688,20.3142109 26.4153754,20.5500131 26.5893197,20.7239574 L36.7896808,30.9150398 C37.5773788,31.7018718 38.0108787,32.7481357 38.0108787,33.8610823 C38.0108787,34.9740289 37.5773788,36.0197979 36.7896808,36.8065061 C35.1629428,38.4317596 32.5166635,38.4317596 30.8904204,36.8065061 L20.6906778,26.6154237 C20.3281908,26.2535552 19.741036,26.2535552 19.3785489,26.6154237 L15.2403818,30.7502505 C14.8778947,31.1127375 14.8773998,31.6998924 15.2398869,32.0623794 C15.602374,32.4247428 16.1900236,32.4252376 16.5525107,32.0628743 Z" id="Fill-4" stroke="#FF5C58" stroke-width="0.6" fill="#FF5C58"></path>
                        <path d="M48.9173923,41.5839416 C48.572004,41.5839416 48.2232861,41.4912025 47.9159238,41.2979148 C47.0989778,40.783457 46.8855414,39.7517754 47.4394596,38.9931047 C49.714712,35.8772345 51.3740131,32.4545118 52.3709256,28.8197909 C52.6141519,27.9314481 53.5863562,27.3947004 54.5438407,27.621179 C55.5006243,27.8471695 56.0783745,28.7506433 55.8347977,29.6386606 C54.7355479,33.6466157 52.9062688,37.4206079 50.3983041,40.8553704 C50.0527405,41.3288278 49.4900606,41.5839416 48.9173923,41.5839416" id="Fill-7" fill="#FF5C58"></path>
                        <path d="M54.9990969,24.0656934 C54.9737497,24.0656934 54.9484026,24.0651604 54.9228853,24.0639166 C53.9654771,24.0209161 53.2229244,23.1752995 53.2644325,22.1752721 C53.2855268,21.6628202 53.296244,21.1404178 53.296244,20.6224577 C53.296244,19.6217195 54.0733301,18.810219 55.0314188,18.810219 C55.9895074,18.810219 56.7664234,19.6217195 56.7664234,20.6224577 C56.7664234,21.1924804 56.7545153,21.7674784 56.7312095,22.3318151 C56.6908922,23.3050116 55.9228222,24.0656934 54.9990969,24.0656934" id="Fill-8" fill="#FF5C58"></path>
                        <path d="M9.17930119,3.32890848 L19.3790438,13.519991 C19.7415308,13.8819832 20.3281908,13.8819832 20.6906778,13.519991 L24.8278552,9.38615387 C25.1908372,9.02366681 25.1908372,8.436512 24.8283501,8.07402494 C24.4663579,7.7116616 23.8787082,7.71116673 23.5163449,8.07353008 L20.0348608,11.5521687 L10.4908115,2.01591354 C8.14120258,-0.33134482 4.31813939,-0.33134482 1.96853042,2.01591354 C0.829974648,3.15347959 0.20261223,4.66602799 0.20261223,6.27433236 C0.20261223,7.88313159 0.829974648,9.3958037 1.96853042,10.5328749 L11.5114662,20.0677692 L1.96853042,29.6025397 C0.829974648,30.7396109 0.20261223,32.252283 0.20261223,33.8610823 C0.20261223,35.4698815 0.829974648,36.981935 1.96853042,38.1196248 C3.1433349,39.2929447 4.68644109,39.8800995 6.22942355,39.8800995 C7.77252973,39.8800995 9.3155122,39.2929447 10.4904404,38.1196248 L13.5001964,35.1122194 C13.8630546,34.7502272 13.8630546,34.1625775 13.5011862,33.8002141 C13.1386991,33.4377271 12.5510494,33.4372322 12.1885624,33.7997193 L9.17930119,36.8065061 C7.55256318,38.4317596 4.90628392,38.4317596 3.28004078,36.8065061 C2.49234278,36.0197979 2.05834804,34.9740289 2.05834804,33.8610823 C2.05834804,32.7481357 2.49234278,31.7023667 3.28004078,30.9150398 L13.4799071,20.7239574 C13.6543462,20.5500131 13.7519579,20.3142109 13.7519579,20.0677692 C13.7519579,19.8216986 13.6543462,19.5854016 13.4799071,19.4114573 L3.28004078,9.22037481 C2.49234278,8.43366654 2.05834804,7.38740269 2.05834804,6.27433236 C2.05834804,5.16138574 2.49234278,4.11561675 3.28004078,3.32890848 C4.90628392,1.70414993 7.55256318,1.70365507 9.17930119,3.32890848 Z" id="Fill-5" stroke="#FF5C58" stroke-width="0.6" fill="#FF5C58"></path>
                    </g>
                </g>
            </g>
        </g>
    </g>
</svg>