<?xml version="1.0" encoding="UTF-8"?>
<svg width="16px" height="18px" viewBox="0 0 16 18" version="1.1" xmlns="http://www.w3.org/2000/svg" xmlns:xlink="http://www.w3.org/1999/xlink">
    <title>filter_icon</title>
    <g id="Talent-Management-UI" stroke="none" stroke-width="1" fill="none" fill-rule="evenodd">
        <g id="03_individual-card_A-Copy" transform="translate(-462.000000, -640.000000)" fill="#222222" fill-rule="nonzero">
            <g id="holiday" transform="translate(222.000000, 616.000000)">
                <g id="search" transform="translate(150.000000, 13.000000)">
                    <g id="Group-3-Copy-2">
                        <g id="filter_icon" transform="translate(90.000000, 11.666667)">
                            <g id="Group" transform="translate(0.000000, 0.333333)">
                                <path d="M15.4857143,7.49268293 L10.0571429,7.49268293 C9.84761905,6.49756098 8.97142857,5.75609756 7.94285714,5.75609756 C6.91428571,5.75609756 6.03809524,6.49756098 5.82857143,7.49268293 L0.533333333,7.49268293 C0.266666667,7.49268293 0.0571428571,7.70731707 0.0571428571,7.9804878 C0.0571428571,8.25365854 0.266666667,8.46829268 0.533333333,8.46829268 L5.82857143,8.46829268 C6.03809524,9.46341463 6.91428571,10.204878 7.94285714,10.204878 C8.97142857,10.204878 9.84761905,9.46341463 10.0571429,8.46829268 L15.4857143,8.46829268 C15.752381,8.46829268 15.9619048,8.25365854 15.9619048,7.9804878 C15.9619048,7.72682927 15.7333333,7.49268293 15.4857143,7.49268293 Z M7.94285714,9.22926829 C7.27619048,9.22926829 6.72380952,8.66341463 6.72380952,7.9804878 C6.72380952,7.29756098 7.27619048,6.73170732 7.94285714,6.73170732 C8.60952381,6.73170732 9.16190476,7.29756098 9.16190476,7.9804878 C9.16190476,8.66341463 8.60952381,9.22926829 7.94285714,9.22926829 Z" id="Shape"></path>
                                <path d="M2.24761905,4.56585366 C3.27619048,4.56585366 4.15238095,3.82439024 4.36190476,2.82926829 L15.4666667,2.82926829 C15.7333333,2.82926829 15.9428571,2.61463415 15.9428571,2.34146341 C15.9428571,2.06829268 15.7333333,1.85365854 15.4666667,1.85365854 L4.36190476,1.85365854 C4.15238095,0.858536585 3.27619048,0.117073171 2.24761905,0.117073171 C1.04761905,0.117073171 0.0761904762,1.13170732 0.0761904762,2.34146341 C0.0761904762,3.55121951 1.04761905,4.56585366 2.24761905,4.56585366 Z M2.24761905,1.09268293 C2.91428571,1.09268293 3.46666667,1.65853659 3.46666667,2.34146341 C3.46666667,3.02439024 2.91428571,3.5902439 2.24761905,3.5902439 C1.58095238,3.5902439 1.02857143,3.02439024 1.02857143,2.34146341 C1.02857143,1.65853659 1.58095238,1.09268293 2.24761905,1.09268293 Z" id="Shape"></path>
                                <path d="M13.7714286,11.4341463 C12.7428571,11.4341463 11.8857143,12.1756098 11.6571429,13.1512195 L0.533333333,13.1512195 C0.266666667,13.1512195 0.0571428571,13.3658537 0.0571428571,13.6390244 C0.0571428571,13.9121951 0.266666667,14.1268293 0.533333333,14.1268293 L11.6571429,14.1268293 C11.8666667,15.1219512 12.7428571,15.8829268 13.7714286,15.8829268 C14.9714286,15.8829268 15.9428571,14.8878049 15.9428571,13.6585366 C15.9428571,12.4292683 14.952381,11.4341463 13.7714286,11.4341463 Z M13.7714286,14.8878049 C13.1047619,14.8878049 12.552381,14.3219512 12.552381,13.6390244 C12.552381,12.9560976 13.1047619,12.3902439 13.7714286,12.3902439 C14.4380952,12.3902439 14.9904762,12.9560976 14.9904762,13.6390244 C14.9904762,14.3219512 14.4380952,14.8878049 13.7714286,14.8878049 Z" id="Shape"></path>
                            </g>
                        </g>
                    </g>
                </g>
            </g>
        </g>
    </g>
</svg>