<?xml version="1.0" encoding="UTF-8"?>
<svg width="227px" height="187px" viewBox="0 0 227 187" version="1.1" xmlns="http://www.w3.org/2000/svg" xmlns:xlink="http://www.w3.org/1999/xlink">
    <!-- Generator: Sketch 52.6 (67491) - http://www.bohemiancoding.com/sketch -->
    <title>Azure cloud &amp; AL logo_2 Copy</title>
    <desc>Created with Sketch.</desc>
    <defs>
        <linearGradient x1="100%" y1="50%" x2="0%" y2="50%" id="linearGradient-1">
            <stop stop-color="#3CA2EB" offset="0%"></stop>
            <stop stop-color="#2975AF" offset="100%"></stop>
        </linearGradient>
    </defs>
    <g id="Page-1" stroke="none" stroke-width="1" fill="none" fill-rule="evenodd">
        <g id="Azure-cloud-&amp;-AL-logo_2-Copy">
            <path d="M108.549,0.845 C110.209,0.726 111.89,0.666 113.585,0.666 C152.042,0.666 183.22,31.805 183.22,70.217 C183.22,102.925 160.615,130.36 130.154,137.788 L130.154,122.986 L137.075,116.591 C138.665,117.455 140.489,117.946 142.427,117.946 C148.606,117.946 153.623,112.953 153.623,106.803 C153.623,100.654 148.606,95.661 142.427,95.661 C136.247,95.661 131.23,100.654 131.23,106.803 C131.23,108.728 131.721,110.54 132.586,112.12 L123.82,120.219 L123.86,120.262 L123.82,120.262 L123.82,139.023 C122.254,139.254 117.549,139.433 115.948,139.557 L115.948,93.013 L134.389,75.071 C135.874,75.795 137.543,76.202 139.307,76.202 C145.486,76.202 150.503,71.209 150.503,65.06 C150.503,58.91 145.486,53.917 139.307,53.917 C133.127,53.917 128.11,58.91 128.11,65.06 C128.11,66.9 128.559,68.637 129.354,70.167 L108.841,90.125 L108.878,90.163 L108.841,90.163 L108.841,139.769 L39.998,139.769 L39.998,139.666 C17.924,138.147 0.489,119.781 0.489,97.348 C0.489,73.918 19.505,54.926 42.962,54.926 C43.854,54.926 44.741,54.953 45.62,55.008 C50.448,33.389 65.352,15.566 85.154,6.708 L85.154,30.507 L77.691,37.403 C75.977,36.472 74.01,35.942 71.921,35.942 C65.257,35.942 59.847,41.326 59.847,47.957 C59.847,54.588 65.257,59.972 71.921,59.972 C78.584,59.972 83.994,54.588 83.994,47.957 C83.994,45.882 83.464,43.928 82.532,42.225 L91.983,33.491 L91.941,33.445 L91.983,33.445 L91.983,4.077 C94.873,3.136 97.845,2.379 100.885,1.82 L100.885,54.02 L81.001,73.366 C79.4,72.585 77.6,72.146 75.698,72.146 C69.035,72.146 63.625,77.53 63.625,84.161 C63.625,90.792 69.035,96.176 75.698,96.176 C82.362,96.176 87.772,90.792 87.772,84.161 C87.772,82.176 87.287,80.303 86.43,78.654 L108.549,57.133 L108.509,57.092 L108.549,57.092 L108.549,0.845 Z M142.427,102.154 C145.005,102.154 147.098,104.238 147.098,106.803 C147.098,109.369 145.005,111.452 142.427,111.452 C139.848,111.452 137.755,109.369 137.755,106.803 C137.755,104.238 139.848,102.154 142.427,102.154 Z M75.698,89.174 C72.918,89.174 70.661,86.928 70.661,84.161 C70.661,81.394 72.918,79.148 75.698,79.148 C78.478,79.148 80.735,81.394 80.735,84.161 C80.735,86.928 78.478,89.174 75.698,89.174 Z M139.307,60.411 C141.885,60.411 143.978,62.494 143.978,65.06 C143.978,67.625 141.885,69.709 139.307,69.709 C136.728,69.709 134.635,67.625 134.635,65.06 C134.635,62.494 136.728,60.411 139.307,60.411 Z M71.921,52.97 C69.14,52.97 66.883,50.724 66.883,47.957 C66.883,45.191 69.14,42.945 71.921,42.945 C74.701,42.945 76.958,45.191 76.958,47.957 C76.958,50.724 74.701,52.97 71.921,52.97 Z" id="Fill-29" fill="url(#linearGradient-1)"></path>
            <path d="M184.951,74.314 C185.698,62.635 183.563,54.573 183.563,54.573 C183.563,54.573 183.913,54.578 184.088,54.582 C207.093,55.105 225.584,73.867 225.584,96.935 C225.584,120.002 207.094,139.247 184.088,139.769 L184.088,139.781 L130.13,140.009 C131.1,139.823 132.063,139.618 133.019,139.394 C145.704,136.418 156.434,129.335 165.493,120.579 L184.088,120.579 L184.088,120.574 C196.681,120.311 206.81,110.049 206.81,97.427 C206.811,85.095 197.142,75.014 184.951,74.314" id="Fill-30" fill="#088ED0"></path>
            <polyline id="Fill-63" fill="#088ED0" points="3.176 176.887 3.176 183.934 2.661 183.934 2.661 176.887 0.489 176.887 0.489 176.41 5.348 176.41 5.348 176.887 3.176 176.887"></polyline>
            <path d="M4.949,181.269 C4.949,182.007 5.12,182.584 5.461,183 C5.802,183.416 6.27,183.624 6.864,183.624 C7.466,183.624 8.053,183.402 8.627,182.958 L8.627,183.472 C8.071,183.868 7.45,184.065 6.764,184.065 C6.072,184.065 5.512,183.817 5.085,183.32 C4.659,182.823 4.445,182.122 4.445,181.216 C4.445,180.433 4.668,179.772 5.114,179.235 C5.56,178.698 6.14,178.43 6.854,178.43 C7.522,178.43 8.034,178.664 8.391,179.133 C8.748,179.602 8.926,180.242 8.926,181.053 L8.926,181.269 L4.949,181.269 Z M8.423,180.828 C8.402,180.209 8.253,179.728 7.977,179.385 C7.7,179.042 7.319,178.871 6.833,178.871 C6.329,178.871 5.912,179.04 5.581,179.377 C5.251,179.715 5.047,180.198 4.97,180.828 L8.423,180.828 Z" id="Fill-64" fill="#088ED0"></path>
            <path d="M13.738,183.698 C13.339,183.943 12.863,184.065 12.311,184.065 C11.579,184.065 10.99,183.814 10.542,183.312 C10.095,182.81 9.871,182.154 9.871,181.342 C9.871,180.489 10.123,179.79 10.626,179.246 C11.13,178.702 11.777,178.43 12.568,178.43 C12.977,178.43 13.374,178.514 13.759,178.682 L13.759,179.228 C13.374,178.99 12.952,178.871 12.494,178.871 C11.865,178.871 11.354,179.097 10.962,179.55 C10.57,180.003 10.374,180.59 10.374,181.311 C10.374,182.007 10.554,182.566 10.912,182.99 C11.271,183.413 11.744,183.624 12.332,183.624 C12.87,183.624 13.339,183.481 13.738,183.194 L13.738,183.698" id="Fill-65" fill="#088ED0"></path>
            <path d="M18.68,183.934 L18.68,180.712 C18.68,180.076 18.565,179.61 18.334,179.314 C18.103,179.019 17.743,178.871 17.253,178.871 C16.791,178.871 16.386,179.051 16.036,179.411 C15.686,179.771 15.511,180.287 15.511,180.959 L15.511,183.934 L15.028,183.934 L15.028,175.98 L15.511,175.98 L15.511,179.527 L15.532,179.527 C15.955,178.796 16.571,178.43 17.379,178.43 C17.96,178.43 18.402,178.617 18.707,178.991 C19.011,179.366 19.163,179.903 19.163,180.602 L19.163,183.934 L18.68,183.934" id="Fill-66" fill="#088ED0"></path>
            <path d="M24.431,183.934 L24.431,180.807 C24.431,179.516 23.966,178.871 23.035,178.871 C22.518,178.871 22.093,179.06 21.76,179.44 C21.428,179.82 21.262,180.289 21.262,180.849 L21.262,183.934 L20.779,183.934 L20.779,178.561 L21.262,178.561 L21.262,179.537 L21.283,179.537 C21.675,178.799 22.287,178.43 23.119,178.43 C23.7,178.43 24.144,178.623 24.452,179.01 C24.76,179.396 24.914,179.948 24.914,180.665 L24.914,183.934 L24.431,183.934" id="Fill-67" fill="#088ED0"></path>
            <path d="M26.766,177.207 C26.661,177.207 26.568,177.169 26.488,177.092 C26.407,177.015 26.367,176.917 26.367,176.798 C26.367,176.683 26.408,176.589 26.49,176.517 C26.573,176.446 26.665,176.41 26.766,176.41 C26.874,176.41 26.97,176.445 27.052,176.515 C27.134,176.585 27.175,176.679 27.175,176.798 C27.175,176.91 27.135,177.006 27.055,177.087 C26.974,177.167 26.878,177.207 26.766,177.207 Z M26.53,183.934 L27.013,183.934 L27.013,178.561 L26.53,178.561 L26.53,183.934 Z" id="Fill-68" fill="#088ED0"></path>
            <path d="M32.212,183.698 C31.814,183.943 31.338,184.065 30.785,184.065 C30.054,184.065 29.465,183.814 29.017,183.312 C28.569,182.81 28.345,182.154 28.345,181.342 C28.345,180.489 28.597,179.79 29.101,179.246 C29.605,178.702 30.252,178.43 31.042,178.43 C31.451,178.43 31.849,178.514 32.233,178.682 L32.233,179.228 C31.849,178.99 31.427,178.871 30.969,178.871 C30.339,178.871 29.828,179.097 29.437,179.55 C29.045,180.003 28.849,180.59 28.849,181.311 C28.849,182.007 29.028,182.566 29.387,182.99 C29.745,183.413 30.218,183.624 30.806,183.624 C31.345,183.624 31.814,183.481 32.212,183.194 L32.212,183.698" id="Fill-69" fill="#088ED0"></path>
            <path d="M36.714,183.934 L36.714,182.858 L36.693,182.858 C36.522,183.226 36.273,183.519 35.946,183.737 C35.618,183.956 35.256,184.065 34.857,184.065 C34.346,184.065 33.942,183.922 33.645,183.635 C33.347,183.348 33.199,182.986 33.199,182.549 C33.199,181.611 33.82,181.045 35.061,180.849 L36.714,180.602 C36.714,179.448 36.28,178.871 35.413,178.871 C34.822,178.871 34.246,179.109 33.687,179.584 L33.687,179.002 C33.886,178.844 34.156,178.71 34.497,178.598 C34.838,178.486 35.159,178.43 35.46,178.43 C36.013,178.43 36.44,178.601 36.743,178.944 C37.046,179.287 37.197,179.785 37.197,180.44 L37.197,183.934 L36.714,183.934 Z M35.235,181.258 C34.671,181.339 34.276,181.469 34.049,181.649 C33.821,181.829 33.708,182.122 33.708,182.528 C33.708,182.846 33.814,183.109 34.025,183.315 C34.237,183.521 34.531,183.624 34.909,183.624 C35.427,183.624 35.857,183.433 36.2,183.05 C36.543,182.667 36.714,182.173 36.714,181.568 L36.714,181.043 L35.235,181.258 Z" id="Fill-70" fill="#088ED0"></path>
            <polygon id="Fill-71" fill="#088ED0" points="38.813 183.934 39.296 183.934 39.296 175.98 38.813 175.98"></polygon>
            <polyline id="Fill-72" fill="#088ED0" points="46.106 176.887 46.106 183.934 45.592 183.934 45.592 176.887 43.42 176.887 43.42 176.41 48.279 176.41 48.279 176.887 46.106 176.887"></polyline>
            <path d="M50.934,183.934 L50.934,182.858 L50.913,182.858 C50.741,183.226 50.492,183.519 50.165,183.737 C49.838,183.956 49.475,184.065 49.076,184.065 C48.565,184.065 48.161,183.922 47.864,183.635 C47.567,183.348 47.418,182.986 47.418,182.549 C47.418,181.611 48.039,181.045 49.281,180.849 L50.934,180.602 C50.934,179.448 50.5,178.871 49.632,178.871 C49.041,178.871 48.466,179.109 47.906,179.584 L47.906,179.002 C48.105,178.844 48.376,178.71 48.717,178.598 C49.058,178.486 49.379,178.43 49.679,178.43 C50.232,178.43 50.66,178.601 50.962,178.944 C51.265,179.287 51.416,179.785 51.416,180.44 L51.416,183.934 L50.934,183.934 Z M49.454,181.258 C48.891,181.339 48.495,181.469 48.268,181.649 C48.041,181.829 47.927,182.122 47.927,182.528 C47.927,182.846 48.033,183.109 48.244,183.315 C48.456,183.521 48.751,183.624 49.129,183.624 C49.646,183.624 50.077,183.433 50.419,183.05 C50.762,182.667 50.934,182.173 50.934,181.568 L50.934,181.043 L49.454,181.258 Z" id="Fill-73" fill="#088ED0"></path>
            <polygon id="Fill-74" fill="#088ED0" points="53.032 183.934 53.515 183.934 53.515 175.98 53.032 175.98"></polygon>
            <path d="M55.351,181.269 C55.351,182.007 55.522,182.584 55.863,183 C56.204,183.416 56.672,183.624 57.267,183.624 C57.868,183.624 58.456,183.402 59.03,182.958 L59.03,183.472 C58.473,183.868 57.853,184.065 57.167,184.065 C56.474,184.065 55.915,183.817 55.488,183.32 C55.061,182.823 54.848,182.122 54.848,181.216 C54.848,180.433 55.071,179.772 55.517,179.235 C55.963,178.698 56.543,178.43 57.256,178.43 C57.924,178.43 58.437,178.664 58.793,179.133 C59.15,179.602 59.329,180.242 59.329,181.053 L59.329,181.269 L55.351,181.269 Z M58.825,180.828 C58.804,180.209 58.655,179.728 58.379,179.385 C58.103,179.042 57.721,178.871 57.235,178.871 C56.731,178.871 56.314,179.04 55.984,179.377 C55.653,179.715 55.449,180.198 55.372,180.828 L58.825,180.828 Z" id="Fill-75" fill="#088ED0"></path>
            <path d="M64.313,183.934 L64.313,180.807 C64.313,179.516 63.848,178.871 62.918,178.871 C62.4,178.871 61.975,179.06 61.643,179.44 C61.31,179.82 61.144,180.289 61.144,180.849 L61.144,183.934 L60.661,183.934 L60.661,178.561 L61.144,178.561 L61.144,179.537 L61.165,179.537 C61.557,178.799 62.169,178.43 63.002,178.43 C63.582,178.43 64.026,178.623 64.334,179.01 C64.642,179.396 64.796,179.948 64.796,180.665 L64.796,183.934 L64.313,183.934" id="Fill-76" fill="#088ED0"></path>
            <path d="M68.537,183.861 C68.285,183.98 68.049,184.039 67.829,184.039 C67.035,184.039 66.638,183.563 66.638,182.612 L66.638,179.002 L65.672,179.002 L65.672,178.561 L66.638,178.561 L66.638,177.165 C66.715,177.137 66.795,177.109 66.879,177.082 C66.963,177.057 67.043,177.031 67.12,177.003 L67.12,178.561 L68.537,178.561 L68.537,179.002 L67.12,179.002 L67.12,182.549 C67.12,182.92 67.179,183.188 67.296,183.354 C67.413,183.52 67.612,183.603 67.892,183.603 C68.091,183.603 68.306,183.539 68.537,183.409 L68.537,183.861" id="Fill-77" fill="#088ED0"></path>
            <path d="M79.173,183.934 L79.173,178.593 C79.173,178.463 79.192,178.094 79.23,177.486 L79.209,177.486 C79.101,177.769 79.01,177.987 78.937,178.141 L76.261,183.934 L76.093,183.934 L73.406,178.173 C73.319,177.987 73.237,177.751 73.16,177.465 L73.133,177.465 C73.158,177.8 73.17,178.134 73.17,178.467 L73.17,183.934 L72.651,183.934 L72.651,176.41 L73.133,176.41 L75.941,182.47 C75.958,182.505 75.977,182.552 75.998,182.612 C76.019,182.671 76.042,182.731 76.067,182.79 C76.101,182.881 76.138,182.983 76.177,183.095 L76.208,183.095 L76.266,182.927 C76.269,182.913 76.329,182.746 76.444,182.428 L79.209,176.41 L79.671,176.41 L79.671,183.934 L79.173,183.934" id="Fill-78" fill="#088ED0"></path>
            <path d="M84.708,183.934 L84.708,182.858 L84.687,182.858 C84.516,183.226 84.267,183.519 83.94,183.737 C83.613,183.956 83.25,184.065 82.851,184.065 C82.34,184.065 81.936,183.922 81.639,183.635 C81.341,183.348 81.193,182.986 81.193,182.549 C81.193,181.611 81.814,181.045 83.055,180.849 L84.708,180.602 C84.708,179.448 84.275,178.871 83.407,178.871 C82.816,178.871 82.24,179.109 81.681,179.584 L81.681,179.002 C81.88,178.844 82.15,178.71 82.491,178.598 C82.832,178.486 83.153,178.43 83.454,178.43 C84.007,178.43 84.435,178.601 84.737,178.944 C85.04,179.287 85.191,179.785 85.191,180.44 L85.191,183.934 L84.708,183.934 Z M83.229,181.258 C82.665,181.339 82.27,181.469 82.043,181.649 C81.815,181.829 81.702,182.122 81.702,182.528 C81.702,182.846 81.808,183.109 82.019,183.315 C82.231,183.521 82.526,183.624 82.903,183.624 C83.421,183.624 83.851,183.433 84.194,183.05 C84.537,182.667 84.708,182.173 84.708,181.568 L84.708,181.043 L83.229,181.258 Z" id="Fill-79" fill="#088ED0"></path>
            <path d="M90.459,183.934 L90.459,180.807 C90.459,179.516 89.994,178.871 89.063,178.871 C88.546,178.871 88.121,179.06 87.788,179.44 C87.456,179.82 87.29,180.289 87.29,180.849 L87.29,183.934 L86.807,183.934 L86.807,178.561 L87.29,178.561 L87.29,179.537 L87.311,179.537 C87.703,178.799 88.315,178.43 89.147,178.43 C89.728,178.43 90.172,178.623 90.48,179.01 C90.788,179.396 90.942,179.948 90.942,180.665 L90.942,183.934 L90.459,183.934" id="Fill-80" fill="#088ED0"></path>
            <path d="M95.769,183.934 L95.769,182.858 L95.748,182.858 C95.577,183.226 95.327,183.519 95,183.737 C94.673,183.956 94.31,184.065 93.911,184.065 C93.401,184.065 92.997,183.922 92.699,183.635 C92.402,183.348 92.253,182.986 92.253,182.549 C92.253,181.611 92.874,181.045 94.116,180.849 L95.769,180.602 C95.769,179.448 95.335,178.871 94.468,178.871 C93.876,178.871 93.301,179.109 92.741,179.584 L92.741,179.002 C92.941,178.844 93.211,178.71 93.552,178.598 C93.893,178.486 94.214,178.43 94.515,178.43 C95.068,178.43 95.495,178.601 95.798,178.944 C96.1,179.287 96.252,179.785 96.252,180.44 L96.252,183.934 L95.769,183.934 Z M94.289,181.258 C93.726,181.339 93.331,181.469 93.103,181.649 C92.876,181.829 92.762,182.122 92.762,182.528 C92.762,182.846 92.868,183.109 93.08,183.315 C93.291,183.521 93.586,183.624 93.964,183.624 C94.482,183.624 94.912,183.433 95.255,183.05 C95.597,182.667 95.769,182.173 95.769,181.568 L95.769,181.043 L94.289,181.258 Z" id="Fill-81" fill="#088ED0"></path>
            <path d="M102.165,183.535 C102.165,184.546 101.945,185.286 101.504,185.755 C101.063,186.223 100.377,186.458 99.447,186.458 C98.929,186.458 98.396,186.321 97.847,186.049 L97.847,185.545 C98.413,185.86 98.95,186.017 99.458,186.017 C100.941,186.017 101.682,185.234 101.682,183.666 L101.682,182.969 L101.661,182.969 C101.238,183.7 100.593,184.065 99.725,184.065 C99.064,184.065 98.524,183.826 98.106,183.346 C97.688,182.867 97.479,182.199 97.479,181.342 C97.479,180.485 97.705,179.785 98.156,179.243 C98.608,178.701 99.202,178.43 99.94,178.43 C100.731,178.43 101.304,178.757 101.661,179.411 L101.682,179.411 L101.682,178.561 L102.165,178.561 L102.165,183.535 Z M101.682,180.623 C101.682,180.147 101.522,179.736 101.202,179.39 C100.882,179.044 100.465,178.871 99.951,178.871 C99.36,178.871 98.884,179.093 98.524,179.537 C98.163,179.981 97.983,180.569 97.983,181.3 C97.983,182.035 98.148,182.606 98.479,183.013 C98.81,183.421 99.246,183.624 99.788,183.624 C100.365,183.624 100.825,183.437 101.168,183.063 C101.511,182.689 101.682,182.231 101.682,181.688 L101.682,180.623 Z" id="Fill-82" fill="#088ED0"></path>
            <path d="M104.001,181.269 C104.001,182.007 104.172,182.584 104.513,183 C104.854,183.416 105.322,183.624 105.917,183.624 C106.518,183.624 107.106,183.402 107.68,182.958 L107.68,183.472 C107.123,183.868 106.502,184.065 105.817,184.065 C105.124,184.065 104.565,183.817 104.138,183.32 C103.711,182.823 103.498,182.122 103.498,181.216 C103.498,180.433 103.721,179.772 104.167,179.235 C104.613,178.698 105.192,178.43 105.906,178.43 C106.574,178.43 107.087,178.664 107.443,179.133 C107.8,179.602 107.979,180.242 107.979,181.053 L107.979,181.269 L104.001,181.269 Z M107.475,180.828 C107.454,180.209 107.305,179.728 107.029,179.385 C106.753,179.042 106.371,178.871 105.885,178.871 C105.381,178.871 104.964,179.04 104.634,179.377 C104.303,179.715 104.099,180.198 104.022,180.828 L107.475,180.828 Z" id="Fill-83" fill="#088ED0"></path>
            <path d="M116.048,183.934 L116.048,180.702 C116.048,180.027 115.943,179.553 115.731,179.28 C115.519,179.007 115.184,178.871 114.726,178.871 C114.303,178.871 113.937,179.053 113.63,179.416 C113.322,179.78 113.168,180.237 113.168,180.786 L113.168,183.934 L112.685,183.934 L112.685,180.665 C112.685,179.469 112.23,178.871 111.321,178.871 C110.884,178.871 110.52,179.053 110.23,179.419 C109.939,179.785 109.794,180.258 109.794,180.838 L109.794,183.934 L109.311,183.934 L109.311,178.561 L109.794,178.561 L109.794,179.453 L109.815,179.453 C110.189,178.771 110.737,178.43 111.457,178.43 C111.849,178.43 112.184,178.543 112.462,178.768 C112.74,178.994 112.928,179.29 113.026,179.658 C113.194,179.269 113.435,178.968 113.748,178.753 C114.061,178.538 114.401,178.43 114.768,178.43 C115.944,178.43 116.531,179.158 116.531,180.613 L116.531,183.934 L116.048,183.934" id="Fill-84" fill="#088ED0"></path>
            <path d="M118.257,181.269 C118.257,182.007 118.428,182.584 118.769,183 C119.11,183.416 119.578,183.624 120.173,183.624 C120.774,183.624 121.362,183.402 121.936,182.958 L121.936,183.472 C121.379,183.868 120.758,184.065 120.073,184.065 C119.38,184.065 118.821,183.817 118.394,183.32 C117.967,182.823 117.754,182.122 117.754,181.216 C117.754,180.433 117.977,179.772 118.423,179.235 C118.869,178.698 119.448,178.43 120.162,178.43 C120.83,178.43 121.343,178.664 121.699,179.133 C122.056,179.602 122.235,180.242 122.235,181.053 L122.235,181.269 L118.257,181.269 Z M121.731,180.828 C121.71,180.209 121.561,179.728 121.285,179.385 C121.009,179.042 120.627,178.871 120.141,178.871 C119.637,178.871 119.22,179.04 118.89,179.377 C118.559,179.715 118.355,180.198 118.278,180.828 L121.731,180.828 Z" id="Fill-85" fill="#088ED0"></path>
            <path d="M127.219,183.934 L127.219,180.807 C127.219,179.516 126.754,178.871 125.824,178.871 C125.306,178.871 124.881,179.06 124.549,179.44 C124.216,179.82 124.05,180.289 124.05,180.849 L124.05,183.934 L123.567,183.934 L123.567,178.561 L124.05,178.561 L124.05,179.537 L124.071,179.537 C124.463,178.799 125.075,178.43 125.908,178.43 C126.488,178.43 126.932,178.623 127.24,179.01 C127.548,179.396 127.702,179.948 127.702,180.665 L127.702,183.934 L127.219,183.934" id="Fill-86" fill="#088ED0"></path>
            <path d="M131.443,183.861 C131.191,183.98 130.955,184.039 130.735,184.039 C129.941,184.039 129.544,183.563 129.544,182.612 L129.544,179.002 L128.578,179.002 L128.578,178.561 L129.544,178.561 L129.544,177.165 C129.621,177.137 129.701,177.109 129.785,177.082 C129.869,177.057 129.949,177.031 130.026,177.003 L130.026,178.561 L131.443,178.561 L131.443,179.002 L130.026,179.002 L130.026,182.549 C130.026,182.92 130.085,183.188 130.202,183.354 C130.319,183.52 130.518,183.603 130.798,183.603 C130.997,183.603 131.212,183.539 131.443,183.409 L131.443,183.861" id="Fill-87" fill="#088ED0"></path>
            <path d="M20.195,170.677 L16.451,170.677 L14.6,165.441 L6.509,165.441 L4.731,170.677 L1.001,170.677 L8.704,150.106 L12.549,150.106 L20.195,170.677 Z M13.696,162.658 L10.842,154.453 C10.756,154.185 10.665,153.755 10.569,153.162 L10.512,153.162 C10.426,153.707 10.33,154.137 10.225,154.453 L7.399,162.658 L13.696,162.658 Z" id="Fill-88" fill="#088ED0"></path>
            <polyline id="Fill-89" fill="#088ED0" points="33.493 157.379 25.56 168.081 33.465 168.081 33.465 170.677 20.898 170.677 20.898 169.429 29.003 158.584 21.673 158.584 21.673 155.988 33.493 155.988 33.493 157.379"></polyline>
            <path d="M49.101,170.677 L45.773,170.677 L45.773,168.353 L45.716,168.353 C44.75,170.132 43.248,171.022 41.211,171.022 C37.739,171.022 36.004,168.937 36.004,164.767 L36.004,155.988 L39.332,155.988 L39.332,164.423 C39.332,167.062 40.35,168.382 42.387,168.382 C43.372,168.382 44.183,168.019 44.819,167.292 C45.455,166.565 45.773,165.613 45.773,164.437 L45.773,155.988 L49.101,155.988 L49.101,170.677" id="Fill-90" fill="#088ED0"></path>
            <path d="M61.955,159.158 C61.553,158.842 60.974,158.685 60.219,158.685 C59.234,158.685 58.411,159.129 57.751,160.019 C57.091,160.908 56.762,162.118 56.762,163.648 L56.762,170.677 L53.433,170.677 L53.433,155.988 L56.762,155.988 L56.762,159.015 L56.819,159.015 C57.144,157.982 57.644,157.176 58.318,156.597 C58.992,156.019 59.745,155.729 60.577,155.729 C61.18,155.729 61.639,155.82 61.955,156.002 L61.955,159.158" id="Fill-91" fill="#088ED0"></path>
            <path d="M76.487,164.236 L66.473,164.236 C66.512,165.594 66.93,166.642 67.729,167.378 C68.527,168.114 69.625,168.483 71.021,168.483 C72.589,168.483 74.029,168.014 75.339,167.077 L75.339,169.759 C74,170.601 72.231,171.022 70.031,171.022 C67.87,171.022 66.175,170.355 64.946,169.02 C63.717,167.686 63.102,165.809 63.102,163.39 C63.102,161.104 63.779,159.242 65.132,157.802 C66.485,156.363 68.166,155.643 70.175,155.643 C72.183,155.643 73.737,156.289 74.837,157.58 C75.937,158.871 76.487,160.664 76.487,162.96 L76.487,164.236 Z M73.273,161.884 C73.264,160.688 72.981,159.758 72.427,159.093 C71.872,158.429 71.107,158.096 70.131,158.096 C69.175,158.096 68.365,158.445 67.7,159.144 C67.035,159.842 66.626,160.755 66.473,161.884 L73.273,161.884 Z" id="Fill-92" fill="#088ED0"></path>
            <path d="M102.452,169.817 C100.902,170.62 98.975,171.022 96.671,171.022 C93.687,171.022 91.296,170.08 89.498,168.196 C87.7,166.312 86.801,163.839 86.801,160.779 C86.801,157.489 87.812,154.83 89.835,152.803 C91.858,150.775 94.414,149.762 97.503,149.762 C99.492,149.762 101.142,150.044 102.452,150.608 L102.452,153.994 C101.065,153.171 99.535,152.76 97.861,152.76 C95.633,152.76 93.828,153.472 92.446,154.897 C91.064,156.322 90.373,158.226 90.373,160.607 C90.373,162.873 91.018,164.679 92.31,166.022 C93.601,167.366 95.298,168.038 97.402,168.038 C99.344,168.038 101.027,167.579 102.452,166.661 L102.452,169.817" id="Fill-93" fill="#088ED0"></path>
            <polygon id="Fill-94" fill="#088ED0" points="105.981 170.677 109.323 170.677 109.323 148.93 105.981 148.93"></polygon>
            <path d="M120.168,171.022 C117.902,171.022 116.092,170.335 114.739,168.963 C113.385,167.591 112.709,165.771 112.709,163.505 C112.709,161.037 113.414,159.11 114.825,157.723 C116.235,156.337 118.136,155.643 120.527,155.643 C122.822,155.643 124.611,156.318 125.892,157.666 C127.174,159.015 127.815,160.884 127.815,163.275 C127.815,165.618 127.124,167.495 125.742,168.906 C124.36,170.316 122.502,171.022 120.168,171.022 Z M120.326,158.297 C119.026,158.297 117.997,158.752 117.242,159.66 C116.486,160.569 116.109,161.821 116.109,163.419 C116.109,164.958 116.491,166.171 117.256,167.055 C118.021,167.94 119.045,168.382 120.326,168.382 C121.636,168.382 122.643,167.947 123.346,167.077 C124.049,166.206 124.4,164.968 124.4,163.361 C124.4,161.745 124.049,160.497 123.346,159.617 C122.643,158.737 121.636,158.297 120.326,158.297 Z" id="Fill-95" fill="#088ED0"></path>
            <path d="M144.011,170.677 L140.682,170.677 L140.682,168.353 L140.625,168.353 C139.659,170.132 138.158,171.022 136.121,171.022 C132.649,171.022 130.913,168.937 130.913,164.767 L130.913,155.988 L134.241,155.988 L134.241,164.423 C134.241,167.062 135.26,168.382 137.297,168.382 C138.282,168.382 139.092,168.019 139.728,167.292 C140.364,166.565 140.682,165.613 140.682,164.437 L140.682,155.988 L144.011,155.988 L144.011,170.677" id="Fill-96" fill="#088ED0"></path>
            <path d="M161.699,170.677 L158.37,170.677 L158.37,168.181 L158.313,168.181 C157.242,170.075 155.592,171.022 153.364,171.022 C151.556,171.022 150.11,170.364 149.024,169.049 C147.939,167.734 147.396,165.943 147.396,163.677 C147.396,161.248 147.996,159.301 149.196,157.838 C150.397,156.375 151.996,155.643 153.995,155.643 C155.975,155.643 157.414,156.437 158.313,158.025 L158.37,158.025 L158.37,148.93 L161.699,148.93 L161.699,170.677 Z M158.413,163.964 L158.413,162.041 C158.413,160.999 158.074,160.114 157.395,159.388 C156.716,158.661 155.85,158.297 154.798,158.297 C153.555,158.297 152.577,158.761 151.865,159.689 C151.152,160.616 150.796,161.903 150.796,163.548 C150.796,165.04 151.138,166.218 151.822,167.084 C152.505,167.949 153.426,168.382 154.583,168.382 C155.721,168.382 156.644,167.964 157.352,167.127 C158.06,166.29 158.413,165.236 158.413,163.964 Z" id="Fill-97" fill="#088ED0"></path>
            <path d="M188.582,170.692 L186.703,168.698 C186.291,169.061 185.835,169.389 185.333,169.68 C184.831,169.972 184.3,170.218 183.74,170.419 C183.181,170.62 182.6,170.773 181.997,170.878 C181.395,170.983 180.788,171.036 180.175,171.036 C179.143,171.036 178.21,170.902 177.378,170.634 C176.546,170.367 175.836,169.986 175.248,169.494 C174.66,169.001 174.205,168.411 173.885,167.722 C173.565,167.034 173.404,166.269 173.404,165.427 C173.404,163.065 174.973,161.075 178.11,159.459 C176.666,157.671 175.944,156.083 175.944,154.697 C175.944,153.979 176.085,153.319 176.367,152.717 C176.649,152.114 177.043,151.596 177.55,151.16 C178.057,150.725 178.662,150.383 179.365,150.135 C180.068,149.886 180.835,149.762 181.667,149.762 C182.461,149.762 183.181,149.872 183.826,150.092 C184.472,150.312 185.024,150.618 185.483,151.01 C185.942,151.402 186.296,151.868 186.545,152.408 C186.794,152.949 186.918,153.535 186.918,154.166 C186.918,154.787 186.839,155.349 186.681,155.851 C186.523,156.353 186.27,156.824 185.921,157.264 C185.572,157.704 185.113,158.125 184.544,158.527 C183.975,158.928 183.279,159.33 182.456,159.732 C183.212,160.545 183.975,161.353 184.745,162.156 C185.514,162.96 186.296,163.768 187.09,164.581 C187.291,164.275 187.475,163.93 187.642,163.548 C187.81,163.165 187.953,162.763 188.073,162.343 C188.192,161.922 188.285,161.487 188.352,161.037 C188.419,160.588 188.453,160.148 188.453,159.717 L191.365,159.717 C191.365,162.347 190.533,164.648 188.869,166.618 C189.299,167.077 189.842,167.641 190.497,168.31 C191.152,168.98 191.924,169.774 192.814,170.692 L188.582,170.692 Z M183.92,154.424 C183.92,154.108 183.86,153.812 183.74,153.535 C183.621,153.257 183.461,153.016 183.26,152.81 C183.059,152.605 182.825,152.442 182.557,152.322 C182.289,152.203 182.002,152.143 181.696,152.143 C181.294,152.143 180.929,152.203 180.599,152.322 C180.269,152.442 179.987,152.614 179.752,152.839 C179.518,153.064 179.336,153.329 179.207,153.635 C179.078,153.941 179.013,154.281 179.013,154.654 C179.013,155.533 179.64,156.671 180.893,158.068 C182.911,157.035 183.92,155.82 183.92,154.424 Z M184.967,166.833 C183.848,165.676 182.098,163.811 179.716,161.238 C178.664,161.783 177.907,162.367 177.443,162.988 C176.979,163.61 176.747,164.337 176.747,165.169 C176.747,165.676 176.84,166.132 177.027,166.539 C177.213,166.945 177.469,167.292 177.794,167.579 C178.119,167.866 178.504,168.086 178.949,168.239 C179.394,168.392 179.874,168.468 180.391,168.468 C182.189,168.468 183.714,167.923 184.967,166.833 Z" id="Fill-98" fill="#088ED0"></path>
            <path d="M220.486,170.677 L216.742,170.677 L214.891,165.441 L206.801,165.441 L205.022,170.677 L201.292,170.677 L208.995,150.106 L212.84,150.106 L220.486,170.677 Z M213.988,162.658 L211.133,154.453 C211.047,154.185 210.956,153.755 210.86,153.162 L210.803,153.162 C210.717,153.707 210.621,154.137 210.516,154.453 L207.69,162.658 L213.988,162.658 Z" id="Fill-99" fill="#088ED0"></path>
            <polygon id="Fill-100" fill="#088ED0" points="223.298 170.677 226.813 170.677 226.813 150.106 223.298 150.106"></polygon>
        </g>
    </g>
</svg>