<?xml version="1.0" encoding="UTF-8" standalone="no"?>
<svg width="190px" height="87px" viewBox="0 0 190 87" version="1.1" xmlns="http://www.w3.org/2000/svg" xmlns:xlink="http://www.w3.org/1999/xlink">
    <!-- Generator: Sketch 50.2 (55047) - http://www.bohemiancoding.com/sketch -->
    <title>Migrate</title>
    <desc>Created with Sketch.</desc>
    <defs></defs>
    <g id="Alert-UI-screens" stroke="none" stroke-width="1" fill="none" fill-rule="evenodd">
        <g id="03_Alert" transform="translate(-625.000000, -307.000000)">
            <g id="Group-2-Copy-2" transform="translate(495.000000, 275.000000)">
                <g id="Migrate" transform="translate(130.000000, 16.000000)">
                    <path d="M40.2919708,87.5912409 C36.9056993,87.5912409 34.1605839,84.8461255 34.1605839,81.459854 C34.1605839,78.0735826 36.9056993,75.3284672 40.2919708,75.3284672 L6.13138686,75.3284672 C2.7451154,75.3284672 4.1469865e-16,72.5833518 0,69.1970803 C-4.1469865e-16,65.8108088 2.7451154,63.0656934 6.13138686,63.0656934 L41.1678832,63.0656934 C44.5541547,63.0656934 47.2992701,60.320578 47.2992701,56.9343066 C47.2992701,53.5480351 44.5541547,50.8029197 41.1678832,50.8029197 L19.270073,50.8029197 C15.8838015,50.8029197 13.1386861,48.0578043 13.1386861,44.6715328 C13.1386861,41.2852614 15.8838015,38.540146 19.270073,38.540146 L54.3065693,38.540146 C50.9202979,38.540146 48.1751825,35.7950306 48.1751825,32.4087591 C48.1751825,29.0224877 50.9202979,26.2773723 54.3065693,26.2773723 L104.233577,26.2773723 C107.619848,26.2773723 110.364964,29.0224877 110.364964,32.4087591 C110.364964,35.7950306 107.619848,38.540146 104.233577,38.540146 L160.291971,38.540146 C163.678242,38.540146 166.423358,41.2852614 166.423358,44.6715328 C166.423358,48.0578043 163.678242,50.8029197 160.291971,50.8029197 L179.562044,50.8029197 C182.948315,50.8029197 185.693431,53.5480351 185.693431,56.9343066 C185.693431,60.320578 182.948315,63.0656934 179.562044,63.0656934 L162.919708,63.0656934 C159.533437,63.0656934 156.788321,65.8108088 156.788321,69.1970803 C156.788321,72.5833518 159.533437,75.3284672 162.919708,75.3284672 L168.175182,75.3284672 C171.561454,75.3284672 174.306569,78.0735826 174.306569,81.459854 C174.306569,84.8461255 171.561454,87.5912409 168.175182,87.5912409 L40.2919708,87.5912409 Z M183.065693,87.5912409 C179.679422,87.5912409 176.934307,84.8461255 176.934307,81.459854 C176.934307,78.0735826 179.679422,75.3284672 183.065693,75.3284672 C186.451965,75.3284672 189.19708,78.0735826 189.19708,81.459854 C189.19708,84.8461255 186.451965,87.5912409 183.065693,87.5912409 Z" id="BG" fill="#8544C7" opacity="0.200000003"></path>
                    <path d="M91.5313034,101.257939 C94.6351132,101.874648 97.8212248,101.981309 100.12668,101.809795 M103.904623,101.473373 C105.903771,101.236008 107.85994,100.857885 109.763015,100.349155 C113.948611,99.2302604 117.877379,97.4795769 121.441712,95.2050874 C125.046528,92.9047648 128.278584,90.0686702 131.026566,86.8085077 C133.424444,83.9637032 135.453736,80.7960035 137.040483,77.3796264 C138.614701,73.9902251 139.753335,70.3560581 140.384165,66.5495991 C140.760067,64.2813887 140.955659,61.9520012 140.955659,59.5767709 C140.955659,56.0895203 140.534055,52.7010852 139.739206,49.4599946 C138.885168,45.9775487 137.600226,42.665209 135.944369,39.583173 C133.870632,35.7233399 131.215144,32.2247193 128.095735,29.205553 C125.668647,26.8564598 122.960712,24.7976177 120.027429,23.0847209 C116.72514,21.1563418 113.137239,19.6664226 109.342919,18.694432 C106.007479,17.8399928 102.512529,17.3857821 98.911863,17.3857821 C94.386949,17.3857821 90.0289893,18.103101 85.9447459,19.4306033 C81.9460903,20.7302868 78.2097994,22.6148481 74.8360632,24.9837464 C71.3602266,27.4243352 68.2692209,30.37902 65.6726101,33.7378528 C62.3070924,38.0913014 59.7721214,43.1236888 58.3062604,48.5956165 C57.3682984,52.0969445 56.8680674,55.7782356 56.8680674,59.5767709 C56.8680674,65.6069958 58.1287487,71.341742 60.4000579,76.5300805 C63.1621743,82.8395673 67.418883,88.3409856 72.7204767,92.5830536 C77.1700098,96.1433458 82.3555542,98.8165584 88.0112493,100.3359" id="Shape" stroke="#8544C7" stroke-width="2.5" fill="#FFFFFF" stroke-linecap="round" transform="translate(98.911863, 59.634572) rotate(-44.000000) translate(-98.911863, -59.634572) "></path>
                    <g id="bling" transform="translate(130.510949, 9.635036)"></g>
                    <g id="bling" transform="translate(59.562044, 99.854015)"></g>
                    <path d="M97.188554,85.9917195 C94.7176326,85.9917195 92.7077383,83.9587285 92.7077383,81.459854 C92.7077383,78.9608167 94.7176326,76.9279886 97.188554,76.9279886 C99.6581661,76.9279886 101.744162,79.0034657 101.744162,81.459854 C101.744162,83.9162423 99.6581661,85.9917195 97.188554,85.9917195 Z" id="Fill-4" fill="#F8EFFF"></path>
                    <path d="M97.188554,74.4525547 C93.3458441,74.4525547 90.2189781,77.5963736 90.2189781,81.459854 C90.2189781,85.3233344 93.3458441,88.4671533 97.188554,88.4671533 C99.0750496,88.4671533 100.85173,87.7206326 102.190951,86.3643287 C103.488765,85.0500226 104.233577,83.2625077 104.233577,81.459854 C104.233577,79.6075517 103.495148,77.8532444 102.155273,76.51973 C100.81458,75.1870295 99.0508281,74.4525547 97.188554,74.4525547 Z M97.188554,85.9917195 C94.7176326,85.9917195 92.7077383,83.9587285 92.7077383,81.459854 C92.7077383,78.9608167 94.7176326,76.9279886 97.188554,76.9279886 C99.6581661,76.9279886 101.744162,79.0034657 101.744162,81.459854 C101.744162,83.9162423 99.6581661,85.9917195 97.188554,85.9917195 Z" id="Fill-4-Copy" fill="#8544C7"></path>
                    <path d="M109.196336,54.7582649 C109.727043,55.2201323 110.531312,55.1653628 110.994006,54.6370372 C114.063664,51.1316204 115.620438,47.4620619 115.620438,43.7303868 C115.620438,39.7953297 113.847059,36.2279632 110.627469,33.6861895 C107.39096,31.1312244 102.998722,29.7810219 97.9246732,29.7810219 C91.6479896,29.7810219 87.7655187,31.8931554 85.6145468,33.6646491 C83.0134454,35.806672 81.459854,38.6792336 81.459854,41.3482463 C81.459854,43.0833383 82.1724891,44.6115417 83.4669253,45.6519958 C84.5321925,46.5084376 85.9509293,46.9995266 87.3604525,46.9995266 C89.7888396,46.9995266 90.8534367,45.4347544 91.7087998,44.177226 C92.7924943,42.5850691 93.8152111,41.0809108 97.6924888,41.0809108 C99.0214343,41.0809108 103.358055,41.3666141 103.358055,45.0375084 C103.358055,47.808379 100.78828,49.7749057 98.520881,51.5099977 C97.9606902,51.9378011 97.4319934,52.3428953 96.9386435,52.7603459 C94.3276584,55.0035589 91.3298669,58.4683995 91.3298669,65.405261 C91.3298669,69.2581638 92.2676505,71.8248175 96.8449992,71.8248175 C98.8723405,71.8248175 100.402814,71.3669576 101.394204,70.4642623 C102.226617,69.7063388 102.66703,68.6476839 102.66703,67.402512 C102.66703,63.6598162 102.66703,61.7812881 106.496397,58.7958479 C106.730759,58.6138394 106.925754,58.4618873 107.140348,58.2890627 C107.688143,57.8487358 108.666969,54.2970654 109.196336,54.7582649 Z" id="Fill-5" fill="#F8EFFF"></path>
                    <path d="M109.196336,54.7582649 C109.727043,55.2201323 110.531312,55.1653628 110.994006,54.6370372 C114.063664,51.1316204 115.620438,47.4620619 115.620438,43.7303868 C115.620438,39.7953297 113.847059,36.2279632 110.627469,33.6861895 C107.39096,31.1312244 102.998722,29.7810219 97.9246732,29.7810219 C91.6479896,29.7810219 87.7655187,31.8931554 85.6145468,33.6646491 C83.0134454,35.806672 81.459854,38.6792336 81.459854,41.3482463 C81.459854,43.0833383 82.1724891,44.6115417 83.4669253,45.6519958 C84.5321925,46.5084376 85.9509293,46.9995266 87.3604525,46.9995266 C89.7888396,46.9995266 90.8534367,45.4347544 91.7087998,44.177226 C92.7924943,42.5850691 93.8152111,41.0809108 97.6924888,41.0809108 C99.0214343,41.0809108 103.358055,41.3666141 103.358055,45.0375084 C103.358055,47.808379 100.78828,49.7749057 98.520881,51.5099977 C97.9606902,51.9378011 97.4319934,52.3428953 96.9386435,52.7603459 C94.3276584,55.0035589 91.3298669,58.4683995 91.3298669,65.405261 C91.3298669,69.2581638 92.2676505,71.8248175 96.8449992,71.8248175 C98.8723405,71.8248175 100.402814,71.3669576 101.394204,70.4642623 C102.226617,69.7063388 102.66703,68.6476839 102.66703,67.402512 C102.66703,63.6598162 102.66703,61.7812881 106.496397,58.7958479 L106.561898,58.7449189 C106.730759,58.6138394 106.925754,58.4618873 107.140348,58.2890627 C107.688143,57.8487358 107.773746,57.0497352 107.33216,56.5037097 C106.890407,55.9578512 106.088818,55.8723573 105.541024,56.3126842 C105.337485,56.4763249 105.153715,56.61926 104.99457,56.7431594 L104.927226,56.7952572 C100.342674,60.3698039 100.119536,63.0224525 100.119536,67.4031799 C100.119536,67.9660704 100.119536,69.2855485 96.8449992,69.2855485 C95.2456745,69.2855485 94.7588579,68.9522559 94.5134394,68.6613763 C94.0854228,68.1545911 93.8773615,67.089424 93.8773615,65.405261 C93.8773615,59.5342346 96.2658784,56.6908946 98.5940878,54.6904709 C99.0333283,54.3192738 99.5377346,53.9332154 100.072462,53.5241137 C102.670883,51.5353787 105.90622,49.0600631 105.90622,45.0375084 C105.90622,41.0912636 102.682107,38.5416419 97.6924888,38.5416419 C92.4651579,38.5416419 90.8097136,40.9752123 89.6003782,42.7520494 C88.7738287,43.9671648 88.3969061,44.4602576 87.3604525,44.4602576 C86.0130797,44.4602576 84.0080187,43.6312005 84.0080187,41.3482463 C84.0080187,39.8657954 84.8561784,37.5828411 87.2373245,35.6221588 C89.0669908,34.1159967 92.4056879,32.319623 97.9253433,32.319623 C106.844506,32.319623 113.072943,37.0121026 113.072943,43.7303868 C113.072943,46.8300416 111.728251,49.9373775 109.075385,52.9672345 C108.612022,53.4955601 108.666969,54.2970654 109.196336,54.7582649 Z" id="Fill-5-Copy" fill="#8544C7"></path>
                    <path d="M127.917392,80.5839416 C127.572004,80.5839416 127.223286,80.4912025 126.915924,80.2979148 C126.098978,79.783457 125.885541,78.7517754 126.43946,77.9931047 C128.714712,74.8772345 130.374013,71.4545118 131.370926,67.8197909 C131.614152,66.9314481 132.586356,66.3947004 133.543841,66.621179 C134.500624,66.8471695 135.078374,67.7506433 134.834798,68.6386606 C133.735548,72.6466157 131.906269,76.4206079 129.398304,79.8553704 C129.052741,80.3288278 128.490061,80.5839416 127.917392,80.5839416" id="Fill-7" fill="#8544C7"></path>
                    <path d="M133.999097,63.0656934 C133.97375,63.0656934 133.948403,63.0651604 133.922885,63.0639166 C132.965477,63.0209161 132.222924,62.1752995 132.264433,61.1752721 C132.285527,60.6628202 132.296244,60.1404178 132.296244,59.6224577 C132.296244,58.6217195 133.07333,57.810219 134.031419,57.810219 C134.989507,57.810219 135.766423,58.6217195 135.766423,59.6224577 C135.766423,60.1924804 135.754515,60.7674784 135.73121,61.3318151 C135.690892,62.3050116 134.922822,63.0656934 133.999097,63.0656934" id="Fill-8" fill="#8544C7"></path>
                </g>
            </g>
        </g>
    </g>
</svg>