<?xml version="1.0" encoding="UTF-8"?>
<svg width="92px" height="100px" viewBox="0 0 92 100" version="1.1" xmlns="http://www.w3.org/2000/svg" xmlns:xlink="http://www.w3.org/1999/xlink">
    <!-- Generator: Sketch 52.6 (67491) - http://www.bohemiancoding.com/sketch -->
    <title>No Data Found_icon-2</title>
    <desc>Created with Sketch.</desc>
    <defs>
        <linearGradient x1="50%" y1="100%" x2="50%" y2="0%" id="linearGradient-1">
            <stop stop-color="#808080" stop-opacity="0.25" offset="0%"></stop>
            <stop stop-color="#808080" stop-opacity="0.12" offset="54%"></stop>
            <stop stop-color="#808080" stop-opacity="0.1" offset="100%"></stop>
        </linearGradient>
        <rect id="path-2" x="0.0791208791" y="0.105494505" width="21.0681319" height="14.2021978"></rect>
        <rect id="path-4" x="0.0791208791" y="0.0615384615" width="21.0681319" height="14.2021978"></rect>
        <linearGradient x1="0%" y1="50%" x2="100%" y2="50%" id="linearGradient-6">
            <stop stop-color="#808080" stop-opacity="0.25" offset="0%"></stop>
            <stop stop-color="#808080" stop-opacity="0.12" offset="54%"></stop>
            <stop stop-color="#808080" stop-opacity="0.1" offset="100%"></stop>
        </linearGradient>
        <linearGradient x1="0.00629643622%" y1="50.0018066%" x2="100.006296%" y2="50.0018066%" id="linearGradient-7">
            <stop stop-color="#808080" stop-opacity="0.25" offset="0%"></stop>
            <stop stop-color="#808080" stop-opacity="0.12" offset="54%"></stop>
            <stop stop-color="#808080" stop-opacity="0.1" offset="100%"></stop>
        </linearGradient>
    </defs>
    <g id="All-Resources-icons" stroke="none" stroke-width="1" fill="none" fill-rule="evenodd">
        <g id="Res-03-Copy-7" transform="translate(-1112.000000, -519.000000)">
            <g id="No-Data-Found_icon-2" transform="translate(1112.000000, 519.000000)">
                <g id="Group" opacity="0.5" transform="translate(0.278388, 4.908425)" fill="url(#linearGradient-1)">
                    <rect id="Rectangle" x="0.021978022" y="0.0307692308" width="65.7054945" height="88.2930403"></rect>
                </g>
                <rect id="Rectangle" fill="#F2F2F2" x="1.15604396" y="6.13772894" width="63.6527473" height="85.2131868"></rect>
                <rect id="Rectangle" fill="#E0E0E0" x="6.11868132" y="9.73040293" width="21.9018315" height="1"></rect>
                <rect id="Rectangle" fill="#6C63FF" opacity="0.7" x="6.11868132" y="12.8102564" width="21.9018315" height="1"></rect>
                <rect id="Rectangle" fill="#E0E0E0" x="31.2717949" y="9.73040293" width="21.9018315" height="1"></rect>
                <rect id="Rectangle" fill="#E0E0E0" x="34.6930403" y="29.2380952" width="21.9018315" height="1"></rect>
                <rect id="Rectangle" fill="#E0E0E0" x="35.207326" y="31.1194139" width="21.9018315" height="1"></rect>
                <rect id="Rectangle" fill="#E0E0E0" x="36.2344322" y="33.0021978" width="21.9018315" height="1"></rect>
                <rect id="Rectangle" fill="#E0E0E0" x="34.6930403" y="59.5238095" width="21.9018315" height="1"></rect>
                <rect id="Rectangle" fill="#E0E0E0" x="35.207326" y="61.4065934" width="21.9018315" height="1"></rect>
                <rect id="Rectangle" fill="#E0E0E0" x="36.2344322" y="63.2879121" width="21.9018315" height="1"></rect>
                <g id="Group" opacity="0.5" transform="translate(6.285714, 22.197802)" fill="url(#linearGradient-1)">
                    <rect id="Rectangle" x="0.0043956044" y="0.0234432234" width="23.2703297" height="23.6131868"></rect>
                </g>
                <rect id="Rectangle" fill="#F5F5F5" x="6.43663004" y="22.7355311" width="22.9040293" height="22.5860806"></rect>
                <g id="Group" opacity="0.5" transform="translate(7.164835, 24.102564)" fill="url(#linearGradient-1)">
                    <rect id="Rectangle" x="0.0791208791" y="0.00146520147" width="21.3626374" height="14.7150183"></rect>
                </g>
                <rect id="e1f34465-d008-41db-868b-e00503fb87b3" fill="#FFFFFF" x="7.39047619" y="24.2754579" width="21.0681319" height="14.2021978"></rect>
                <g id="Clipped" transform="translate(33.538462, 33.040293)">
                    <mask id="mask-3" fill="white">
                        <use xlink:href="#path-2"></use>
                    </mask>
                    <g id="cf34cfb5-9399-4bae-9cea-d47bbef6cb3a"></g>
                    <g id="Group" mask="url(#mask-3)" fill="#6C63FF" opacity="0.4">
                        <g transform="translate(-28.717949, -8.351648)">
                            <polygon id="Path" points="0.783882784 13.2761905 6.08937729 5.06227106 8.31355311 8.65494505 13.1047619 3.69377289 17.2117216 8.65494505 20.8043956 1.2981685 30.043956 16.0131868 0.0996336996 14.9860806"></polygon>
                            <circle id="Oval" cx="4.89084249" cy="1.63956044" r="1.53992674"></circle>
                        </g>
                    </g>
                </g>
                <g id="Group" opacity="0.5" transform="translate(6.285714, 52.380952)" fill="url(#linearGradient-1)">
                    <rect id="Rectangle" x="0.0043956044" y="0.127472527" width="23.2703297" height="23.6131868"></rect>
                </g>
                <rect id="Rectangle" fill="#F5F5F5" x="6.43663004" y="53.0212454" width="22.9040293" height="22.5860806"></rect>
                <g id="Group" opacity="0.5" transform="translate(7.164835, 54.285714)" fill="url(#linearGradient-1)">
                    <rect id="Rectangle" x="0.0791208791" y="0.105494505" width="21.3626374" height="14.7150183"></rect>
                </g>
                <rect id="c95ac4f6-be4d-44a3-92c2-5c8066e2b531" fill="#FFFFFF" x="7.39047619" y="54.5611722" width="21.0681319" height="14.2021978"></rect>
                <g id="Clipped" transform="translate(33.538462, 63.369963)">
                    <mask id="mask-5" fill="white">
                        <use xlink:href="#path-4"></use>
                    </mask>
                    <g id="7439734d-5f7c-428f-88ce-e68b86a45c07"></g>
                    <g id="Group" mask="url(#mask-5)" fill="#BDBDBD" opacity="0.4">
                        <g transform="translate(-28.717949, -8.351648)">
                            <polygon id="Path" points="0.783882784 13.2322344 6.08937729 5.01831502 8.31355311 8.61245421 13.1047619 3.64981685 17.2117216 8.61245421 20.8043956 1.25421245 30.043956 15.9692308 0.0996336996 14.9435897"></polygon>
                            <circle id="Oval" cx="4.89084249" cy="1.5970696" r="1.53992674"></circle>
                        </g>
                    </g>
                </g>
                <g id="Group" opacity="0.5" transform="translate(9.802198, 0.512821)" fill="url(#linearGradient-6)">
                    <polygon id="Rectangle" transform="translate(40.972037, 49.767382) rotate(-78.760000) translate(-40.972037, -49.767382) " points="-3.17448348 16.914635 85.1185568 16.914635 85.1185568 82.6201295 -3.17448348 82.6201295"></polygon>
                </g>
                <path d="M8.31638641,18.3352716 L8.31638641,81.4880189 L93.0295732,81.4880189 L93.0295732,18.3352716 L8.31638641,18.3352716 Z" id="Rectangle" stroke="#D9D9D9" stroke-width="0.5" fill="#FFFFFF" transform="translate(50.672980, 49.911645) rotate(-78.760000) translate(-50.672980, -49.911645) "></path>
                <polygon id="Rectangle" fill="#E0E0E0" transform="translate(53.620824, 11.416152) rotate(11.240000) translate(-53.620824, -11.416152) " points="31.0340111 11.0740276 76.2076374 11.0740276 76.2076374 11.7582767 31.0340111 11.7582767"></polygon>
                <polygon id="Rectangle" fill="#E0E0E0" transform="translate(41.013725, 74.856533) rotate(11.240000) translate(-41.013725, -74.856533) " points="18.4269121 74.5144082 63.6005385 74.5144082 63.6005385 75.1986573 18.4269121 75.1986573"></polygon>
                <polygon id="Rectangle" fill="#E0E0E0" transform="translate(35.210323, 77.714557) rotate(11.240000) translate(-35.210323, -77.714557) " points="17.7568431 77.372432 52.6638028 77.372432 52.6638028 78.0566811 17.7568431 78.0566811"></polygon>
                <polygon id="Rectangle" fill="#6C63FF" opacity="0.7" transform="translate(23.701957, 79.441169) rotate(11.240000) translate(-23.701957, -79.441169) " points="17.200125 79.0990441 30.203788 79.0990441 30.203788 79.7832932 17.200125 79.7832932"></polygon>
                <polygon id="Rectangle" fill="#6C63FF" opacity="0.7" transform="translate(41.775268, 13.075582) rotate(11.240000) translate(-41.775268, -13.075582) " points="30.4822282 12.7334579 53.0683088 12.7334579 53.0683088 13.4177069 30.4822282 13.4177069"></polygon>
                <polygon id="Rectangle" fill="#E0E0E0" transform="translate(49.904808, 18.702895) rotate(11.240000) translate(-49.904808, -18.702895) " points="29.5429033 18.3607706 70.2667128 18.3607706 70.2667128 19.0450196 29.5429033 19.0450196"></polygon>
                <g id="Group" opacity="0.5" transform="translate(27.824176, 38.315018)" fill="url(#linearGradient-7)">
                    <polygon id="Rectangle" transform="translate(22.164878, 15.473255) rotate(-78.760000) translate(-22.164878, -15.473255) " points="10.5297134 -4.80293549 33.8000431 -4.80293549 33.8000431 35.7494455 10.5297134 35.7494455"></polygon>
                </g>
                <polygon id="Rectangle" fill="#FFFFFF" transform="translate(50.012888, 53.704549) rotate(11.240000) translate(-50.012888, -53.704549) " points="29.9931074 42.3257944 70.0326679 42.3257944 70.0326679 65.0833036 29.9931074 65.0833036"></polygon>
                <g id="Group-7" transform="translate(38.862927, 45.063397) rotate(10.000000) translate(-38.862927, -45.063397) translate(24.862927, 25.563397)">
                    <path d="M12.5998379,16.9105691 L11.1701515,16.9105691 L1.44130987,2.43902439 L1.44130987,16.9105691 L0,16.9105691 L0,0 L1.44130987,0 L11.181775,14.4831591 L11.181775,0 L12.5998379,0 L12.5998379,16.9105691 Z M16.2003026,10.4413473 C16.2003026,9.23344344 16.4347068,8.14557201 16.9035223,7.17770035 C17.3723378,6.20982869 18.0348688,5.45683583 18.8911351,4.91869919 C19.7474014,4.38056254 20.7179512,4.11149826 21.8028135,4.11149826 C23.4766011,4.11149826 24.8326587,4.69801969 25.8710269,5.87108014 C26.9093951,7.04414059 27.4285714,8.59851916 27.4285714,10.5342625 L27.4285714,10.8246225 C27.4285714,12.0402693 27.1941672,13.1339479 26.7253517,14.1056911 C26.2565362,15.0774342 25.5959424,15.8265556 24.7435506,16.3530778 C23.8911588,16.8796 22.9186718,17.1428571 21.8260605,17.1428571 C20.1600219,17.1428571 18.8059016,16.5563357 17.7636588,15.3832753 C16.7214161,14.2102148 16.2003026,12.6558362 16.2003026,10.7200929 L16.2003026,10.4413473 Z M17.5951186,10.8246225 C17.5951186,12.3267593 17.9845008,13.5598093 18.763277,14.5238095 C19.5420531,15.4878097 20.5629708,15.9698026 21.8260605,15.9698026 C23.0814011,15.9698026 24.0984443,15.4878097 24.8772205,14.5238095 C25.6559966,13.5598093 26.0453789,12.2880451 26.0453789,10.7084785 L26.0453789,10.4413473 C26.0453789,9.48121858 25.8671542,8.6024043 25.5106994,7.80487805 C25.1542447,7.0073518 24.6544406,6.38985894 24.0112722,5.95238095 C23.3681038,5.51490296 22.6319583,5.29616725 21.8028135,5.29616725 C20.5629709,5.29616725 19.5517394,5.78203153 18.7690887,6.75377468 C17.986438,7.72551783 17.5951186,8.99728211 17.5951186,10.5691057 L17.5951186,10.8246225 Z" id="No" fill="#4174FF" opacity="0.400000006"></path>
                    <path d="M0,28.4320557 L0,18.2857143 L2.81674444,18.2857143 C3.6426245,18.2857143 4.38313713,18.4750271 5.03830456,18.8536585 C5.69347198,19.2322899 6.20444876,19.7746771 6.57125024,20.4808362 C6.93805172,21.1869954 7.12144971,21.990704 7.12144971,22.8919861 L7.12144971,23.825784 C7.12144971,24.7317118 6.93920517,25.5354204 6.57471062,26.2369338 C6.21021606,26.9384472 5.69693239,27.4796729 5.03484418,27.8606272 C4.37275598,28.2415815 3.61263476,28.4320557 2.75445771,28.4320557 L0,28.4320557 Z M0.851252006,19.0174216 L0.851252006,27.7073171 L2.76137846,27.7073171 C3.82256513,27.7073171 4.67380862,27.3530814 5.31513448,26.6445993 C5.95646033,25.9361172 6.27711845,24.9779387 6.27711845,23.7700348 L6.27711845,22.8780488 C6.27711845,21.711957 5.96107412,20.7781684 5.32897597,20.0766551 C4.69687783,19.3751417 3.86408948,19.0220674 2.83058594,19.0174216 L0.851252006,19.0174216 Z M14.1986192,28.4320557 C14.1155698,28.1951208 14.0625113,27.8443693 14.039442,27.3797909 C13.7487691,27.7607452 13.3785128,28.0545867 12.9286619,28.261324 C12.4788111,28.4680614 12.0024377,28.5714286 11.4995275,28.5714286 C10.7797661,28.5714286 10.1972756,28.36934 9.75203859,27.9651568 C9.30680157,27.5609736 9.0841864,27.049945 9.0841864,26.4320557 C9.0841864,25.6980219 9.38754283,25.1173076 9.99426477,24.6898955 C10.6009867,24.2624833 11.446463,24.0487805 12.5307189,24.0487805 L14.0325212,24.0487805 L14.0325212,23.1916376 C14.0325212,22.6527267 13.8675784,22.2288053 13.5376878,21.9198606 C13.2077971,21.610916 12.7268099,21.456446 12.0947118,21.456446 C11.5179799,21.456446 11.0404531,21.6051089 10.662117,21.902439 C10.2837808,22.1997692 10.0946156,22.5574892 10.0946156,22.9756098 L9.26412585,22.9686411 C9.26412585,22.369335 9.54095301,21.8501764 10.0946156,21.4111498 C10.6482782,20.9721232 11.3288116,20.7526132 12.1362363,20.7526132 C12.971344,20.7526132 13.629962,20.9628318 14.1121098,21.3832753 C14.5942577,21.8037187 14.8422487,22.3902401 14.8560903,23.1428571 L14.8560903,26.7108014 C14.8560903,27.4401895 14.9322177,27.9860609 15.0844749,28.3484321 L15.0844749,28.4320557 L14.1986192,28.4320557 Z M11.5964179,27.8327526 C12.1500805,27.8327526 12.6449091,27.6980269 13.0809184,27.4285714 C13.5169277,27.159116 13.8341255,26.7990731 14.0325212,26.3484321 L14.0325212,24.6898955 L12.5514812,24.6898955 C11.7256011,24.699187 11.0796711,24.8513342 10.6136717,25.1463415 C10.1476724,25.4413487 9.91467617,25.8466873 9.91467617,26.3623693 C9.91467617,26.7851357 10.0703914,27.1358871 10.3818267,27.4146341 C10.6932619,27.6933812 11.0981216,27.8327526 11.5964179,27.8327526 Z M18.7358741,18.9616725 L18.7358741,20.8919861 L20.2861217,20.8919861 L20.2861217,21.5749129 L18.7358741,21.5749129 L18.7358741,26.5993031 C18.7358741,27.0174237 18.8108482,27.3286866 18.9607985,27.533101 C19.1107487,27.7375155 19.3610466,27.8397213 19.7116996,27.8397213 C19.8501153,27.8397213 20.0738839,27.8164927 20.3830122,27.7700348 L20.4176159,28.4529617 C20.2007647,28.53194 19.9054824,28.5714286 19.5317602,28.5714286 C18.964256,28.5714286 18.5513222,28.4053443 18.2929463,28.0731707 C18.0345704,27.7409972 17.9053844,27.2520357 17.9053844,26.6062718 L17.9053844,21.5749129 L16.5281555,21.5749129 L16.5281555,20.8919861 L17.9053844,20.8919861 L17.9053844,18.9616725 L18.7358741,18.9616725 Z M27.1141443,28.4320557 C27.0310949,28.1951208 26.9780363,27.8443693 26.954967,27.3797909 C26.6642942,27.7607452 26.2940379,28.0545867 25.844187,28.261324 C25.3943361,28.4680614 24.9179627,28.5714286 24.4150525,28.5714286 C23.6952911,28.5714286 23.1128007,28.36934 22.6675637,27.9651568 C22.2223266,27.5609736 21.9997115,27.049945 21.9997115,26.4320557 C21.9997115,25.6980219 22.3030679,25.1173076 22.9097898,24.6898955 C23.5165118,24.2624833 24.361988,24.0487805 25.446244,24.0487805 L26.9480463,24.0487805 L26.9480463,23.1916376 C26.9480463,22.6527267 26.7831035,22.2288053 26.4532128,21.9198606 C26.1233222,21.610916 25.642335,21.456446 25.0102369,21.456446 C24.433505,21.456446 23.9559781,21.6051089 23.577642,21.902439 C23.1993059,22.1997692 23.0101407,22.5574892 23.0101407,22.9756098 L22.1796509,22.9686411 C22.1796509,22.369335 22.4564781,21.8501764 23.0101407,21.4111498 C23.5638033,20.9721232 24.2443367,20.7526132 25.0517613,20.7526132 C25.8868691,20.7526132 26.545487,20.9628318 27.0276349,21.3832753 C27.5097828,21.8037187 27.7577738,22.3902401 27.7716153,23.1428571 L27.7716153,26.7108014 C27.7716153,27.4401895 27.8477428,27.9860609 28,28.3484321 L28,28.4320557 L27.1141443,28.4320557 Z M24.511943,27.8327526 C25.0656056,27.8327526 25.5604341,27.6980269 25.9964434,27.4285714 C26.4324528,27.159116 26.7496505,26.7990731 26.9480463,26.3484321 L26.9480463,24.6898955 L25.4670062,24.6898955 C24.6411262,24.699187 23.9951961,24.8513342 23.5291968,25.1463415 C23.0631974,25.4413487 22.8302012,25.8466873 22.8302012,26.3623693 C22.8302012,26.7851357 22.9859165,27.1358871 23.2973517,27.4146341 C23.6087869,27.6933812 24.0136467,27.8327526 24.511943,27.8327526 Z" id="Data" fill="#4A4A4A" opacity="0.5"></path>
                    <path d="M3.86943871,35.691884 L0.925195806,35.691884 L0.925195806,38.7616599 L0,38.7616599 L0,31.8105031 L4.34649279,31.8105031 L4.34649279,32.5648182 L0.925195806,32.5648182 L0.925195806,34.942343 L3.86943871,34.942343 L3.86943871,35.691884 Z M5.35731372,36.1311054 C5.35731372,35.6250434 5.45770289,35.1699127 5.65848423,34.7656996 C5.85926557,34.3614865 6.13874901,34.0495788 6.49694293,33.8299669 C6.85513684,33.6103551 7.26392153,33.5005509 7.72330924,33.5005509 C8.43327207,33.5005509 9.0074981,33.7440299 9.44600456,34.2309952 C9.88451101,34.7179606 10.103761,35.3656466 10.103761,36.1740727 L10.103761,36.2361366 C10.103761,36.7390159 10.0065842,37.1901682 9.8122279,37.5896071 C9.61787156,37.9890459 9.33999435,38.300158 8.97858793,38.5229526 C8.61718151,38.7457472 8.20197192,38.8571429 7.7329467,38.8571429 C7.02619637,38.8571429 6.45357657,38.6136638 6.01507011,38.1266985 C5.57656366,37.6397332 5.35731372,36.9952299 5.35731372,36.1931693 L5.35731372,36.1311054 Z M6.25359716,36.2361366 C6.25359716,36.809037 6.38771708,37.2689418 6.65596096,37.6158649 C6.92420483,37.9627879 7.28319649,38.1362468 7.7329467,38.1362468 C8.18590941,38.1362468 8.54570418,37.9604008 8.81234181,37.6087036 C9.07897943,37.2570064 9.21229624,36.7644786 9.21229624,36.1311054 C9.21229624,35.5645706 9.07657009,35.1054614 8.80511371,34.7537642 C8.53365734,34.402067 8.17305945,34.2262211 7.72330924,34.2262211 C7.28319654,34.2262211 6.92822045,34.39968 6.65837032,34.746603 C6.38852019,35.093526 6.25359716,35.5900323 6.25359716,36.2361366 Z M14.8201838,38.2508263 C14.4732337,38.6550394 13.9640598,38.8571429 13.292647,38.8571429 C12.7368842,38.8571429 12.3136435,38.6972106 12.0229121,38.3773412 C11.7321807,38.0574718 11.585211,37.5840403 11.5819985,36.9570327 L11.5819985,33.5960338 L12.4734632,33.5960338 L12.4734632,36.933162 C12.4734632,37.7161258 12.7947085,38.1076019 13.4372088,38.1076019 C14.1182592,38.1076019 14.5712151,37.8561661 14.7960902,37.3532868 L14.7960902,33.5960338 L15.6875549,33.5960338 L15.6875549,38.7616599 L14.8394587,38.7616599 L14.8201838,38.2508263 Z M18.2644625,33.5960338 L18.2933748,34.2453177 C18.691725,33.748804 19.2121425,33.5005509 19.8546428,33.5005509 C20.9565308,33.5005509 21.5122852,34.1164096 21.5219227,35.3481454 L21.5219227,38.7616599 L20.630458,38.7616599 L20.630458,35.3433713 C20.6272455,34.970986 20.5413124,34.6956797 20.372656,34.517444 C20.2039997,34.3392083 19.9413816,34.2500918 19.584794,34.2500918 C19.2956688,34.2500918 19.041885,34.3264774 18.8234349,34.4792508 C18.6049848,34.6320243 18.4347248,34.8325364 18.3126497,35.0807932 L18.3126497,38.7616599 L17.421185,38.7616599 L17.421185,33.5960338 L18.2644625,33.5960338 Z M23.0290726,36.1358795 C23.0290726,35.3433673 23.2186074,34.7060252 23.5976825,34.223834 C23.9767577,33.7416428 24.4730818,33.5005509 25.0866695,33.5005509 C25.6970448,33.5005509 26.1805191,33.7074285 26.5371067,34.1211899 L26.5371067,31.4285714 L27.4285714,31.4285714 L27.4285714,38.7616599 L26.6093876,38.7616599 L26.5660191,38.207859 C26.2094314,38.6407171 25.7131074,38.8571429 25.0770321,38.8571429 C24.4730818,38.8571429 23.9807733,38.6120725 23.6000919,38.1219243 C23.2194105,37.6317762 23.0290726,36.992047 23.0290726,36.2027176 L23.0290726,36.1358795 Z M23.9205373,36.2361366 C23.9205373,36.8217681 24.0426106,37.2800816 24.2867607,37.6110907 C24.5309108,37.9420998 24.8682184,38.1076019 25.2986936,38.1076019 C25.8640938,38.1076019 26.2768941,37.8561661 26.5371067,37.3532868 L26.5371067,34.9805362 C26.2704691,34.4935708 25.8608813,34.2500918 25.308331,34.2500918 C24.8714308,34.2500918 24.5309108,34.4171853 24.2867607,34.7513772 C24.0426106,35.0855691 23.9205373,35.5804839 23.9205373,36.2361366 Z" id="Found" fill="#4A4A4A" opacity="0.5"></path>
                </g>
            </g>
        </g>
    </g>
</svg>