<?xml version="1.0" encoding="UTF-8"?>
<svg width="197px" height="142px" viewBox="0 0 197 142" version="1.1" xmlns="http://www.w3.org/2000/svg" xmlns:xlink="http://www.w3.org/1999/xlink">
    <!-- Generator: Sketch 52.6 (67491) - http://www.bohemiancoding.com/sketch -->
    <title>No Talent Found 02</title>
    <desc>Created with Sketch.</desc>
    <defs>
        <path d="M111.491,93.006 L112.919,93.006 L113.696,106.341 L113.738,106.341 L120.122,93.006 L121.844,93.006 L122.873,106.215 L122.915,106.215 L129.047,93.006 L130.538,93.006 L123.314,108 L121.76,108 L120.773,94.371 L120.731,94.371 L114.179,108 L112.604,108 L111.491,93.006 Z M132.857693,93.006 L134.180693,93.006 L132.857693,99.138 L132.899693,99.138 C133.277694,98.4939968 133.802689,97.9515022 134.474693,97.5105 C135.146696,97.0694978 135.888689,96.849 136.700693,96.849 C137.176695,96.849 137.614191,96.9049994 138.013193,97.017 C138.412195,97.1290006 138.758691,97.3004988 139.052693,97.5315 C139.346694,97.7625012 139.574192,98.0634981 139.735193,98.4345 C139.896193,98.8055019 139.976693,99.2499974 139.976693,99.768 C139.976693,100.062001 139.920693,100.488997 139.808693,101.049 L138.317693,108 L136.994693,108 L138.506693,101.007 C138.548693,100.838999 138.583692,100.660501 138.611693,100.4715 C138.639693,100.282499 138.653693,100.097001 138.653693,99.915 C138.653693,99.5509982 138.590693,99.2465012 138.464693,99.0015 C138.338692,98.7564988 138.170694,98.5570008 137.960693,98.403 C137.750692,98.2489992 137.509194,98.1370004 137.236193,98.067 C136.963191,97.9969997 136.679694,97.962 136.385693,97.962 C135.90969,97.962 135.447695,98.066999 134.999693,98.277 C134.55169,98.4870011 134.138694,98.7844981 133.760693,99.1695 C133.382691,99.5545019 133.053694,100.023497 132.773693,100.5765 C132.493691,101.129503 132.283693,101.748997 132.143693,102.435 L130.946693,108 L129.644693,108 L132.857693,93.006 Z M146.811385,107.202 C147.539389,107.202 148.179882,107.016502 148.732885,106.6455 C149.285888,106.274498 149.747883,105.802003 150.118885,105.228 C150.489887,104.653997 150.769884,104.024003 150.958885,103.338 C151.147886,102.651997 151.242385,101.994003 151.242385,101.364 C151.242385,100.355995 150.976388,99.5370032 150.444385,98.907 C149.912383,98.2769969 149.114391,97.962 148.050385,97.962 C147.322382,97.962 146.678388,98.1404982 146.118385,98.4975 C145.558382,98.8545018 145.089387,99.3094972 144.711385,99.8625 C144.333383,100.415503 144.046386,101.031497 143.850385,101.7105 C143.654384,102.389503 143.556385,103.043997 143.556385,103.674 C143.556385,104.724005 143.822383,105.574497 144.354385,106.2255 C144.886388,106.876503 145.70538,107.202 146.811385,107.202 Z M148.281385,96.849 C148.911388,96.849 149.488883,96.9434991 150.013885,97.1325 C150.538888,97.3215009 150.990383,97.5979982 151.368385,97.962 C151.746387,98.3260018 152.040384,98.7704974 152.250385,99.2955 C152.460386,99.8205026 152.565385,100.418997 152.565385,101.091 C152.565385,102.001005 152.439386,102.889996 152.187385,103.758 C151.935384,104.626004 151.560888,105.395997 151.063885,106.068 C150.566883,106.740003 149.943889,107.278998 149.194885,107.685 C148.445881,108.091002 147.56739,108.294 146.559385,108.294 C145.159378,108.294 144.088389,107.888004 143.346385,107.076 C142.604381,106.263996 142.233385,105.172007 142.233385,103.8 C142.233385,102.917996 142.366384,102.057004 142.632385,101.217 C142.898387,100.376996 143.290383,99.6350032 143.808385,98.991 C144.326388,98.3469968 144.959881,97.829002 145.708885,97.437 C146.457889,97.044998 147.31538,96.849 148.281385,96.849 Z M159.295078,107.202 C160.023081,107.202 160.663575,107.016502 161.216578,106.6455 C161.769581,106.274498 162.231576,105.802003 162.602578,105.228 C162.97358,104.653997 163.253577,104.024003 163.442578,103.338 C163.631579,102.651997 163.726078,101.994003 163.726078,101.364 C163.726078,100.355995 163.46008,99.5370032 162.928078,98.907 C162.396075,98.2769969 161.598083,97.962 160.534078,97.962 C159.806074,97.962 159.162081,98.1404982 158.602078,98.4975 C158.042075,98.8545018 157.57308,99.3094972 157.195078,99.8625 C156.817076,100.415503 156.530079,101.031497 156.334078,101.7105 C156.138077,102.389503 156.040078,103.043997 156.040078,103.674 C156.040078,104.724005 156.306075,105.574497 156.838078,106.2255 C157.37008,106.876503 158.189072,107.202 159.295078,107.202 Z M160.765078,96.849 C161.395081,96.849 161.972575,96.9434991 162.497578,97.1325 C163.02258,97.3215009 163.474076,97.5979982 163.852078,97.962 C164.23008,98.3260018 164.524077,98.7704974 164.734078,99.2955 C164.944079,99.8205026 165.049078,100.418997 165.049078,101.091 C165.049078,102.001005 164.923079,102.889996 164.671078,103.758 C164.419077,104.626004 164.04458,105.395997 163.547578,106.068 C163.050575,106.740003 162.427582,107.278998 161.678578,107.685 C160.929574,108.091002 160.051083,108.294 159.043078,108.294 C157.643071,108.294 156.572082,107.888004 155.830078,107.076 C155.088074,106.263996 154.717078,105.172007 154.717078,103.8 C154.717078,102.917996 154.850076,102.057004 155.116078,101.217 C155.382079,100.376996 155.774075,99.6350032 156.292078,98.991 C156.81008,98.3469968 157.443574,97.829002 158.192578,97.437 C158.941582,97.044998 159.799073,96.849 160.765078,96.849 Z M169.13277,97.164 L170.32977,97.164 L169.90977,99.117 L169.95177,99.117 C170.413773,98.4029964 170.949267,97.846502 171.55827,97.4475 C172.167273,97.048498 172.947766,96.849 173.89977,96.849 C174.599774,96.849 175.205268,96.9574989 175.71627,97.1745 C176.227273,97.3915011 176.654269,97.6924981 176.99727,98.0775 C177.340272,98.4625019 177.59577,98.9279973 177.76377,99.474 C177.931771,100.020003 178.01577,100.621997 178.01577,101.28 C178.01577,102.120004 177.879272,102.956496 177.60627,103.7895 C177.333269,104.622504 176.937773,105.371497 176.41977,106.0365 C175.901768,106.701503 175.278774,107.243998 174.55077,107.664 C173.822767,108.084002 173.003775,108.294 172.09377,108.294 C171.673768,108.294 171.267772,108.2485 170.87577,108.1575 C170.483768,108.0665 170.133772,107.923001 169.82577,107.727 C169.517769,107.530999 169.258771,107.275502 169.04877,106.9605 C168.838769,106.645498 168.698771,106.271002 168.62877,105.837 L168.58677,105.837 L167.26377,111.99 L165.96177,111.99 L169.13277,97.164 Z M173.77377,97.962 C173.017767,97.962 172.345773,98.1544981 171.75777,98.5395 C171.169767,98.9245019 170.676272,99.414497 170.27727,100.0095 C169.878268,100.604503 169.573771,101.262496 169.36377,101.9835 C169.153769,102.704504 169.04877,103.400997 169.04877,104.073 C169.04877,105.039005 169.311268,105.801997 169.83627,106.362 C170.361273,106.922003 171.106766,107.202 172.07277,107.202 C172.828774,107.202 173.497267,107.013002 174.07827,106.635 C174.659273,106.256998 175.142268,105.774003 175.52727,105.186 C175.912272,104.597997 176.202769,103.950504 176.39877,103.2435 C176.594771,102.536496 176.69277,101.854003 176.69277,101.196 C176.69277,100.271995 176.454773,99.5020031 175.97877,98.886 C175.502768,98.2699969 174.767775,97.962 173.77377,97.962 Z M181.070463,104.472 C181.070463,105.004003 181.157962,105.444998 181.332963,105.795 C181.507964,106.145002 181.738962,106.424999 182.025963,106.635 C182.312964,106.845001 182.641961,106.992 183.012963,107.076 C183.383965,107.16 183.758461,107.202 184.136463,107.202 C184.430464,107.202 184.738461,107.1635 185.060463,107.0865 C185.382465,107.0095 185.676462,106.890501 185.942463,106.7295 C186.208464,106.568499 186.428962,106.362001 186.603963,106.11 C186.778964,105.857999 186.866463,105.557002 186.866463,105.207 C186.866463,104.842998 186.778964,104.542001 186.603963,104.304 C186.428962,104.065999 186.204964,103.859501 185.931963,103.6845 C185.658962,103.509499 185.347465,103.355501 184.997463,103.2225 C184.647461,103.089499 184.297465,102.953001 183.947463,102.813 C183.597461,102.672999 183.247465,102.522501 182.897463,102.3615 C182.547461,102.200499 182.235964,102.004501 181.962963,101.7735 C181.689962,101.542499 181.469464,101.269502 181.301463,100.9545 C181.133462,100.639498 181.049463,100.258002 181.049463,99.81 C181.049463,99.2779973 181.175462,98.8265019 181.427463,98.4555 C181.679464,98.0844981 182.001461,97.7800012 182.393463,97.542 C182.785465,97.3039988 183.219461,97.1290006 183.695463,97.017 C184.171465,96.9049994 184.626461,96.849 185.060463,96.849 C185.634466,96.849 186.159461,96.9119994 186.635463,97.038 C187.111465,97.1640006 187.520961,97.3669986 187.863963,97.647 C188.206965,97.9270014 188.472962,98.2874978 188.661963,98.7285 C188.850964,99.1695022 188.938463,99.7049969 188.924463,100.335 L187.601463,100.335 C187.629463,99.9149979 187.580464,99.5580015 187.454463,99.264 C187.328462,98.9699985 187.149964,98.725001 186.918963,98.529 C186.687962,98.332999 186.411465,98.1895005 186.089463,98.0985 C185.767461,98.0074995 185.424465,97.962 185.060463,97.962 C184.766462,97.962 184.461965,97.9899997 184.146963,98.046 C183.831961,98.1020003 183.544964,98.1964993 183.285963,98.3295 C183.026962,98.4625007 182.809964,98.6479988 182.634963,98.886 C182.459962,99.1240012 182.372463,99.4319981 182.372463,99.81 C182.372463,100.062001 182.435462,100.285999 182.561463,100.482 C182.687464,100.678001 182.855462,100.852999 183.065463,101.007 C183.275464,101.161001 183.516962,101.300999 183.789963,101.427 C184.062964,101.553001 184.353461,101.678999 184.661463,101.805 C185.039465,101.959001 185.434961,102.116499 185.847963,102.2775 C186.260965,102.438501 186.638961,102.637999 186.981963,102.876 C187.324965,103.114001 187.611962,103.400998 187.842963,103.737 C188.073964,104.073002 188.189463,104.492997 188.189463,104.997 C188.189463,105.613003 188.059964,106.130998 187.800963,106.551 C187.541962,106.971002 187.202465,107.310499 186.782463,107.5695 C186.362461,107.828501 185.893466,108.013999 185.375463,108.126 C184.85746,108.238001 184.339466,108.294 183.821463,108.294 C183.28946,108.294 182.774965,108.224001 182.277963,108.084 C181.780961,107.943999 181.343465,107.720002 180.965463,107.412 C180.587461,107.103998 180.286464,106.708502 180.062463,106.2255 C179.838462,105.742498 179.740463,105.158003 179.768463,104.472 L181.070463,104.472 Z M192.441156,104.262 L193.554156,97.668 L194.562156,93.006 L195.969156,93.006 L194.961156,97.689 L193.239156,104.262 L192.441156,104.262 Z M191.160156,108 L191.643156,105.774 L193.428156,105.774 L192.924156,108 L191.160156,108 Z" id="path-1"></path>
        <path d="M110.682,114.148 L113.148,114.148 L117.09,123.742 L117.126,123.742 L119.088,114.148 L121.338,114.148 L118.674,127 L116.208,127 L112.248,117.46 L112.212,117.46 L110.268,127 L108.018,127 L110.682,114.148 Z M127.088308,119.062 C126.560305,119.062 126.10131,119.193999 125.711308,119.458 C125.321306,119.722001 124.994309,120.054998 124.730308,120.457 C124.466307,120.859002 124.271309,121.305998 124.145308,121.798 C124.019307,122.290002 123.956308,122.769998 123.956308,123.238 C123.956308,123.922003 124.127306,124.491998 124.469308,124.948 C124.81131,125.404002 125.354304,125.632 126.098308,125.632 C126.626311,125.632 127.085306,125.503001 127.475308,125.245 C127.86531,124.986999 128.192307,124.657002 128.456308,124.255 C128.720309,123.852998 128.915307,123.403002 129.041308,122.905 C129.167309,122.406998 129.230308,121.924002 129.230308,121.456 C129.230308,120.771997 129.05931,120.202002 128.717308,119.746 C128.375306,119.289998 127.832312,119.062 127.088308,119.062 Z M125.972308,127.252 C124.676301,127.252 123.674311,126.901004 122.966308,126.199 C122.258304,125.496996 121.904308,124.492007 121.904308,123.184 C121.904308,122.415996 122.030307,121.687003 122.282308,120.997 C122.534309,120.306997 122.891306,119.698003 123.353308,119.17 C123.81531,118.641997 124.373305,118.222002 125.027308,117.91 C125.681311,117.597998 126.410304,117.442 127.214308,117.442 C128.510314,117.442 129.512304,117.780997 130.220308,118.459 C130.928311,119.137003 131.282308,120.129993 131.282308,121.438 C131.282308,122.254004 131.162309,123.015996 130.922308,123.724 C130.682307,124.432004 130.33131,125.046997 129.869308,125.569 C129.407306,126.091003 128.849311,126.501999 128.195308,126.802 C127.541305,127.102002 126.800312,127.252 125.972308,127.252 Z M140.172924,114.148 L150.756924,114.148 L150.342924,116.092 L146.256924,116.092 L143.988924,127 L141.738924,127 L144.006924,116.092 L139.776924,116.092 L140.172924,114.148 Z M150.117232,124.444 C150.117232,124.672001 150.168231,124.860999 150.270232,125.011 C150.372232,125.161001 150.501231,125.281 150.657232,125.371 C150.813232,125.461 150.987231,125.527 151.179232,125.569 C151.371233,125.611 151.563231,125.632 151.755232,125.632 C152.259234,125.632 152.68223,125.548001 153.024232,125.38 C153.366233,125.211999 153.64823,124.984001 153.870232,124.696 C154.092233,124.407999 154.266231,124.069002 154.392232,123.679 C154.518232,123.288998 154.617231,122.872002 154.689232,122.428 L154.653232,122.392 C154.509231,122.536001 154.317233,122.638 154.077232,122.698 C153.83723,122.758 153.603233,122.8 153.375232,122.824 C153.08723,122.848 152.754233,122.872 152.376232,122.896 C151.99823,122.92 151.644233,122.982999 151.314232,123.085 C150.98423,123.187001 150.702233,123.342999 150.468232,123.553 C150.23423,123.763001 150.117232,124.059998 150.117232,124.444 Z M156.291232,124.3 C156.255231,124.468001 156.216232,124.629999 156.174232,124.786 C156.132231,124.942001 156.111232,125.085999 156.111232,125.218 C156.111232,125.350001 156.141231,125.452 156.201232,125.524 C156.261232,125.596 156.375231,125.632 156.543232,125.632 C156.663232,125.632 156.783231,125.617 156.903232,125.587 C157.023232,125.557 157.143231,125.536 157.263232,125.524 L156.939232,127 C156.67523,127.06 156.411233,127.117 156.147232,127.171 C155.88323,127.225 155.613233,127.252 155.337232,127.252 C154.98923,127.252 154.701233,127.144001 154.473232,126.928 C154.24523,126.711999 154.119232,126.424002 154.095232,126.064 C153.68723,126.472002 153.207234,126.771999 152.655232,126.964 C152.103229,127.156001 151.539234,127.252 150.963232,127.252 C150.57923,127.252 150.213233,127.198001 149.865232,127.09 C149.51723,126.981999 149.208233,126.826001 148.938232,126.622 C148.66823,126.417999 148.455232,126.160002 148.299232,125.848 C148.143231,125.535998 148.065232,125.176002 148.065232,124.768 C148.065232,124.191997 148.17323,123.709002 148.389232,123.319 C148.605233,122.928998 148.89323,122.608001 149.253232,122.356 C149.613233,122.103999 150.027229,121.918001 150.495232,121.798 C150.963234,121.677999 151.455229,121.6 151.971232,121.564 C152.667235,121.516 153.351228,121.462 154.023232,121.402 C154.395233,121.378 154.668231,121.255001 154.842232,121.033 C155.016232,120.810999 155.103232,120.526002 155.103232,120.178 C155.103232,119.733998 154.947233,119.437001 154.635232,119.287 C154.32323,119.136999 153.957234,119.062 153.537232,119.062 C152.961229,119.062 152.466234,119.160999 152.052232,119.359 C151.638229,119.557001 151.359232,119.943997 151.215232,120.52 L149.271232,120.52 C149.379232,119.943997 149.56523,119.461002 149.829232,119.071 C150.093233,118.680998 150.41723,118.363001 150.801232,118.117 C151.185233,117.870999 151.620229,117.697001 152.106232,117.595 C152.592234,117.492999 153.111229,117.442 153.663232,117.442 C154.503236,117.442 155.160229,117.522999 155.634232,117.685 C156.108234,117.847001 156.45623,118.041999 156.678232,118.27 C156.900233,118.498001 157.035231,118.734999 157.083232,118.981 C157.131232,119.227001 157.155232,119.433999 157.155232,119.602 C157.155232,120.010002 157.095232,120.477997 156.975232,121.006 L156.291232,124.3 Z M161.375539,114.148 L163.427539,114.148 L160.763539,127 L158.711539,127 L161.375539,114.148 Z M171.193847,121.528 C171.205847,121.468 171.211847,121.417 171.211847,121.375 L171.211847,120.952 C171.211847,120.399997 171.037849,119.947002 170.689847,119.593 C170.341846,119.238998 169.86185,119.062 169.249847,119.062 C168.481843,119.062 167.86985,119.292998 167.413847,119.755 C166.957845,120.217002 166.627848,120.807996 166.423847,121.528 L171.193847,121.528 Z M172.687847,124.12 C172.363846,125.212005 171.817851,126.006998 171.049847,126.505 C170.281843,127.003002 169.333853,127.252 168.205847,127.252 C167.617844,127.252 167.07485,127.159001 166.576847,126.973 C166.078845,126.786999 165.649849,126.517002 165.289847,126.163 C164.929846,125.808998 164.647848,125.383002 164.443847,124.885 C164.239846,124.386998 164.137847,123.820003 164.137847,123.184 C164.137847,122.463996 164.251846,121.762003 164.479847,121.078 C164.707848,120.393997 165.040845,119.782003 165.478847,119.242 C165.91685,118.701997 166.456844,118.267002 167.098847,117.937 C167.740851,117.606998 168.475843,117.442 169.303847,117.442 C170.131851,117.442 170.803845,117.579999 171.319847,117.856 C171.83585,118.132001 172.237846,118.479998 172.525847,118.9 C172.813849,119.320002 173.008847,119.781997 173.110847,120.286 C173.212848,120.790003 173.263847,121.269998 173.263847,121.726 C173.263847,121.954001 173.251847,122.163999 173.227847,122.356 C173.203847,122.548001 173.179847,122.721999 173.155847,122.878 L166.225847,122.878 C166.213847,122.938 166.204847,122.992 166.198847,123.04 C166.192847,123.088 166.189847,123.136 166.189847,123.184 L166.189847,123.472 C166.189847,124.120003 166.360846,124.641998 166.702847,125.038 C167.044849,125.434002 167.611843,125.632 168.403847,125.632 C168.95585,125.632 169.429845,125.506001 169.825847,125.254 C170.221849,125.001999 170.491847,124.624003 170.635847,124.12 L172.687847,124.12 Z M176.368155,117.694 L178.294155,117.694 L178.006155,119.044 L178.042155,119.08 C178.414157,118.563997 178.879152,118.162001 179.437155,117.874 C179.995158,117.585999 180.598152,117.442 181.246155,117.442 C182.18216,117.442 182.869153,117.663998 183.307155,118.108 C183.745157,118.552002 183.964155,119.151996 183.964155,119.908 C183.964155,120.076001 183.958155,120.267999 183.946155,120.484 C183.934155,120.700001 183.910155,120.891999 183.874155,121.06 L182.632155,127 L180.580155,127 L181.768155,121.258 C181.804155,121.101999 181.837155,120.952001 181.867155,120.808 C181.897155,120.663999 181.912155,120.526001 181.912155,120.394 C181.912155,120.322 181.909155,120.211001 181.903155,120.061 C181.897155,119.910999 181.852156,119.761001 181.768155,119.611 C181.684155,119.460999 181.543156,119.332001 181.345155,119.224 C181.147154,119.115999 180.862157,119.062 180.490155,119.062 C180.082153,119.062 179.719157,119.148999 179.401155,119.323 C179.083154,119.497001 178.798156,119.709999 178.546155,119.962 C178.306154,120.202001 178.099156,120.498998 177.925155,120.853 C177.751154,121.207002 177.622156,121.575998 177.538155,121.96 L176.494155,127 L174.442155,127 L176.368155,117.694 Z M188.544463,114.904 L190.542463,114.904 L189.966463,117.694 L191.820463,117.694 L191.496463,119.224 L189.642463,119.224 L188.688463,123.778 C188.640463,123.982001 188.598463,124.173999 188.562463,124.354 C188.526463,124.534001 188.508463,124.677999 188.508463,124.786 C188.508463,124.990001 188.553463,125.154999 188.643463,125.281 C188.733464,125.407001 188.934462,125.47 189.246463,125.47 C189.402464,125.47 189.573462,125.467 189.759463,125.461 C189.945464,125.455 190.140462,125.428 190.344463,125.38 L190.002463,126.892 C189.738462,126.952 189.456465,127 189.156463,127.036 C188.856462,127.072 188.574464,127.09 188.310463,127.09 C187.938461,127.09 187.632464,127.042 187.392463,126.946 C187.152462,126.85 186.963464,126.721001 186.825463,126.559 C186.687462,126.396999 186.591463,126.211001 186.537463,126.001 C186.483463,125.790999 186.456463,125.578001 186.456463,125.362 C186.456463,125.181999 186.471463,124.984001 186.501463,124.768 C186.531463,124.551999 186.558463,124.402 186.582463,124.318 L187.644463,119.224 L186.024463,119.224 L186.348463,117.694 L187.968463,117.694 L188.544463,114.904 Z" id="path-2"></path>
        <path d="M106.686,132.862 L114.455,132.862 L114.251,133.848 L107.638,133.848 L106.703,138.234 L112.568,138.234 L112.381,139.22 L106.482,139.22 L105.241,145 L104.085,145 L106.686,132.862 Z M117.726846,144.354 C118.316183,144.354 118.834677,144.203835 119.282346,143.9035 C119.730015,143.603165 120.104011,143.220669 120.404346,142.756 C120.704681,142.291331 120.931346,141.781336 121.084346,141.226 C121.237347,140.670664 121.313846,140.138003 121.313846,139.628 C121.313846,138.811996 121.098515,138.149003 120.667846,137.639 C120.237177,137.128997 119.591184,136.874 118.729846,136.874 C118.14051,136.874 117.619182,137.018499 117.165846,137.3075 C116.712511,137.596501 116.332848,137.964831 116.026846,138.4125 C115.720845,138.860169 115.488514,139.358831 115.329846,139.9085 C115.171179,140.458169 115.091846,140.987997 115.091846,141.498 C115.091846,142.348004 115.307177,143.036497 115.737846,143.5635 C116.168515,144.090503 116.831508,144.354 117.726846,144.354 Z M118.916846,135.973 C119.426849,135.973 119.894344,136.049499 120.319346,136.2025 C120.744348,136.355501 121.109845,136.579332 121.415846,136.874 C121.721848,137.168668 121.959845,137.528498 122.129846,137.9535 C122.299847,138.378502 122.384846,138.862997 122.384846,139.407 C122.384846,140.14367 122.282847,140.86333 122.078846,141.566 C121.874845,142.26867 121.571682,142.891997 121.169346,143.436 C120.767011,143.980003 120.262683,144.416332 119.656346,144.745 C119.05001,145.073668 118.33885,145.238 117.522846,145.238 C116.389507,145.238 115.522516,144.909337 114.921846,144.252 C114.321177,143.594663 114.020846,142.710672 114.020846,141.6 C114.020846,140.885996 114.128512,140.189003 114.343846,139.509 C114.559181,138.828997 114.876511,138.228336 115.295846,137.707 C115.715182,137.185664 116.22801,136.766335 116.834346,136.449 C117.440683,136.131665 118.134842,135.973 118.916846,135.973 Z M130.722693,145 L129.736693,145 L130.042693,143.402 L130.008693,143.402 C129.680024,143.923336 129.240862,144.359665 128.691193,144.711 C128.141523,145.062335 127.538029,145.238 126.880693,145.238 C126.495357,145.238 126.141194,145.1955 125.818193,145.1105 C125.495191,145.0255 125.214694,144.889501 124.976693,144.7025 C124.738691,144.515499 124.554527,144.271835 124.424193,143.9715 C124.293859,143.671165 124.228693,143.311335 124.228693,142.892 C124.228693,142.653999 124.274025,142.308336 124.364693,141.855 L125.571693,136.228 L126.642693,136.228 L125.418693,141.889 C125.384692,142.025001 125.356359,142.169499 125.333693,142.3225 C125.311026,142.475501 125.299693,142.625666 125.299693,142.773 C125.299693,143.056335 125.350692,143.299999 125.452693,143.504 C125.554693,143.708001 125.690692,143.872333 125.860693,143.997 C126.030693,144.121667 126.226191,144.212333 126.447193,144.269 C126.668194,144.325667 126.897691,144.354 127.135693,144.354 C127.532361,144.354 127.909191,144.269001 128.266193,144.099 C128.623194,143.928999 128.951858,143.688168 129.252193,143.3765 C129.552527,143.064832 129.816025,142.685169 130.042693,142.2375 C130.26936,141.789831 130.445025,141.288336 130.569693,140.733 L131.538693,136.228 L132.609693,136.228 L130.722693,145 Z M135.371539,136.228 L136.357539,136.228 L136.051539,137.826 L136.085539,137.826 C136.414207,137.304664 136.853369,136.865502 137.403039,136.5085 C137.952708,136.151498 138.556202,135.973 139.213539,135.973 C139.598874,135.973 139.953037,136.018333 140.276039,136.109 C140.599041,136.199667 140.879538,136.338499 141.117539,136.5255 C141.35554,136.712501 141.539705,136.956165 141.670039,137.2565 C141.800373,137.556835 141.865539,137.916665 141.865539,138.336 C141.865539,138.574001 141.820206,138.919664 141.729539,139.373 L140.522539,145 L139.451539,145 L140.675539,139.339 C140.709539,139.202999 140.737872,139.058501 140.760539,138.9055 C140.783206,138.752499 140.794539,138.602334 140.794539,138.455 C140.794539,138.160332 140.743539,137.913834 140.641539,137.7155 C140.539538,137.517166 140.40354,137.355667 140.233539,137.231 C140.063538,137.106333 139.86804,137.015667 139.647039,136.959 C139.426038,136.902333 139.19654,136.874 138.958539,136.874 C138.573204,136.874 138.199207,136.958999 137.836539,137.129 C137.47387,137.299001 137.13954,137.539832 136.833539,137.8515 C136.527537,138.163168 136.261207,138.542831 136.034539,138.9905 C135.807871,139.438169 135.637873,139.939664 135.524539,140.495 L134.555539,145 L133.501539,145 L135.371539,136.228 Z M150.900385,145 L149.863385,145 L150.254385,143.419 L150.220385,143.419 C149.846383,143.997003 149.412888,144.444665 148.919885,144.762 C148.426883,145.079335 147.795056,145.238 147.024385,145.238 C145.90238,145.238 145.066555,144.91217 144.516885,144.2605 C143.967216,143.60883 143.692385,142.744672 143.692385,141.668 C143.692385,140.99933 143.802884,140.325003 144.023885,139.645 C144.244886,138.964997 144.56505,138.353003 144.984385,137.809 C145.403721,137.264997 145.908049,136.823002 146.497385,136.483 C147.086721,136.142998 147.749715,135.973 148.486385,135.973 C149.177722,135.973 149.778383,136.117499 150.288385,136.4065 C150.798388,136.695501 151.149718,137.185663 151.342385,137.877 L151.376385,137.877 L152.430385,132.862 L153.501385,132.862 L150.900385,145 Z M147.126385,144.354 C147.738388,144.354 148.282383,144.198168 148.758385,143.8865 C149.234388,143.574832 149.633884,143.178169 149.956885,142.6965 C150.279887,142.214831 150.526384,141.68217 150.696385,141.0985 C150.866386,140.51483 150.951385,139.951003 150.951385,139.407 C150.951385,138.624996 150.738887,138.007336 150.313885,137.554 C149.888883,137.100664 149.285389,136.874 148.503385,136.874 C147.891382,136.874 147.350221,137.026998 146.879885,137.333 C146.40955,137.639002 146.018553,138.029998 145.706885,138.506 C145.395217,138.982002 145.160053,139.506164 145.001385,140.0785 C144.842718,140.650836 144.763385,141.203331 144.763385,141.736 C144.763385,142.484004 144.95605,143.107331 145.341385,143.606 C145.72672,144.104669 146.321715,144.354 147.126385,144.354 Z" id="path-3"></path>
    </defs>
    <g id="All-Resources-icons" stroke="none" stroke-width="1" fill="none" fill-rule="evenodd">
        <g id="Res-03-Copy-7" transform="translate(-1428.000000, -765.000000)">
            <g id="No-Talent-Found-02" transform="translate(1406.000000, 721.000000)">
                <path d="M130.167514,44.1599999 C43.8121549,5.05625501 1.69331465,83.9602467 30.0144932,141.997637 C58.3356717,200.035028 220.886935,176.572781 212.042926,134.053824 C206.015251,105.074832 179.871135,66.6669731 130.167514,44.1599999 Z" id="Shape" fill="#EEF5FE" fill-rule="nonzero" transform="translate(116.819594, 105.160224) rotate(-25.000000) translate(-116.819594, -105.160224) "></path>
                <g id="3241683-copy" transform="translate(36.000000, 73.000000)">
                    <ellipse id="Oval" fill="#C0E2FF" cx="39.5" cy="24" rx="17.5" ry="17"></ellipse>
                    <path d="M40,46.5205479 C37.2656951,46.5157961 34.5549901,46.0005765 32,45 L32,47.890411 C32.0065896,50.1572641 33.7935963,51.9932299 36,52 L44,52 C46.2064037,51.9932299 47.9934104,50.1572641 48,47.890411 L48,45 C45.4450099,46.0005765 42.7343049,46.5157961 40,46.5205479 Z" id="Path" fill="#C0E2FF"></path>
                    <path d="M40,1 C27.2974508,1 17,11.2974508 17,24 C17,36.7025492 27.2974508,47 40,47 C52.7025492,47 63,36.7025492 63,24 C63,11.2974508 52.7025492,1 40,1 Z M40,41.5882353 C30.2862859,41.5882353 22.4117647,33.7137141 22.4117647,24 C22.4117647,14.2862859 30.2862859,6.41176471 40,6.41176471 C49.7137141,6.41176471 57.5882353,14.2862859 57.5882353,24 C57.5882353,28.66469 55.7351944,33.1383265 52.4367604,36.4367604 C49.1383265,39.7351944 44.66469,41.5882353 40,41.5882353 Z" id="Shape" fill="#DFECFF" fill-rule="nonzero"></path>
                    <polygon id="Path" fill="#C0E2FF" points="36 52 44 52 44 57 36 57"></polygon>
                    <path d="M40,37 L40,34.4 C45.7410885,34.3935522 50.3935522,29.7410885 50.4,24 L53,24 C52.9921189,31.1764348 47.1764348,36.9921189 40,37 Z" id="Path" fill="#4F83D1"></path>
                    <polygon id="Path" fill="#4F83D1" points="35 34 38 34 38 37 35 37"></polygon>
                    <polygon id="Path" fill="#C0E2FF" points="1 55 14 55 14 77 1 77"></polygon>
                    <path d="M44,52 L46.5,52 C47.8807119,52 49,53.1192881 49,54.5 L49,57 L44,57 L44,52 Z" id="Path" fill="#CDEEF6"></path>
                    <path d="M52,65 C52,63.5640597 50.7847729,62.4 49.2857143,62.4 C50.7847729,62.4 52,61.2359403 52,59.8 C52,58.3640597 50.7847729,57.2 49.2857143,57.2 L35.7142857,57.2 L35.7142857,52 L30.2857143,52 L24.8571429,57.2 L14,57.2 L14,74.1 L24.8571429,74.1 L30.2857143,78 L49.2857143,78 C50.7847729,78 52,76.8359403 52,75.4 C52,73.9640597 50.7847729,72.8 49.2857143,72.8 C50.7847729,72.8 52,71.6359403 52,70.2 C52,68.7640597 50.7847729,67.6 49.2857143,67.6 C50.7847729,67.6 52,66.4359403 52,65 Z" id="Path" fill="#DFECFF" fill-rule="nonzero"></path>
                    <g id="Group">
                        <polygon id="Path" fill="#4F83D1" points="33.3263202 56 47.9899011 56 47.9899011 58.6666667 33.3263202 58.6666667"></polygon>
                        <polygon id="Path" fill="#4F83D1" points="38.6585315 61.3333333 49.3229539 61.3333333 49.3229539 64 38.6585315 64"></polygon>
                        <polygon id="Path" fill="#4F83D1" points="38.6585315 66.6666667 49.3229539 66.6666667 49.3229539 69.3333333 38.6585315 69.3333333"></polygon>
                        <polygon id="Path" fill="#4F83D1" points="38.6585315 72 49.3229539 72 49.3229539 74.6666667 38.6585315 74.6666667"></polygon>
                        <path d="M49.3229539,46.1106667 C59.8412983,41.6697721 65.7746024,30.4309967 63.5096023,19.2385306 C61.2446022,8.04606459 51.4086248,-0.000165269036 39.9915843,-0.000165269036 C28.5745437,-0.000165269036 18.7385663,8.04606459 16.4735662,19.2385306 C14.2085661,30.4309967 20.1418703,41.6697721 30.6602146,46.1106667 L30.6602146,48 C30.6657396,48.9390043 30.9215941,49.8595379 31.401392,50.6666667 L30.6602146,50.6666667 C30.3066959,50.6667422 29.967684,50.8072675 29.7177463,51.0573333 L24.7761195,56 L15.9966337,56 L15.9966337,54.6666667 C15.9966337,53.930287 15.3998056,53.3333333 14.6635809,53.3333333 L1.33305281,53.3333333 C0.596828072,53.3333333 -7.10542736e-15,53.930287 -7.10542736e-15,54.6666667 L-7.10542736e-15,77.3333333 C-7.10542736e-15,78.069713 0.596828072,78.6666667 1.33305281,78.6666667 L14.6635809,78.6666667 C15.3998056,78.6666667 15.9966337,78.069713 15.9966337,77.3333333 L15.9966337,76 L24.8840968,76 L29.8603829,79.7333333 C30.0911293,79.9064295 30.3717817,80 30.6602146,80 L49.3229539,80 C50.8995273,79.9989133 52.3283387,79.0714683 52.9714761,77.6317353 C53.6146135,76.1920023 53.3520434,74.508689 52.3009939,73.3333333 C53.6624644,71.8163281 53.6624644,69.5170053 52.3009939,68 C53.6624644,66.4829947 53.6624644,64.1836719 52.3009939,62.6666667 C53.1919721,61.676331 53.5286563,60.3058875 53.1980423,59.0153103 C52.8674283,57.7247332 51.91334,56.6850929 50.6560067,56.2453333 L50.6560067,54.6666667 C50.6506396,53.117763 49.7517174,51.7111809 48.3484923,51.056 C48.9814245,50.1626197 49.321873,49.0949424 49.3229539,48 L49.3229539,46.1106667 Z M13.3305281,76 L2.66610562,76 L2.66610562,56 L13.3305281,56 L13.3305281,76 Z M49.3229539,58.6666667 C50.0591787,58.6666667 50.6560067,59.2636203 50.6560067,60 C50.6560067,60.7363797 50.0591787,61.3333333 49.3229539,61.3333333 L38.6585315,61.3333333 L38.6585315,64 L49.3229539,64 C50.0591787,64 50.6560067,64.5969537 50.6560067,65.3333333 C50.6560067,66.069713 50.0591787,66.6666667 49.3229539,66.6666667 L38.6585315,66.6666667 L38.6585315,69.3333333 L49.3229539,69.3333333 C50.0591787,69.3333333 50.6560067,69.930287 50.6560067,70.6666667 C50.6560067,71.4030463 50.0591787,72 49.3229539,72 L38.6585315,72 L38.6585315,74.6666667 L49.3229539,74.6666667 C50.0591787,74.6666667 50.6560067,75.2636203 50.6560067,76 C50.6560067,76.7363797 50.0591787,77.3333333 49.3229539,77.3333333 L31.1041212,77.3333333 L26.1278351,73.6 C25.8970887,73.4269038 25.6164363,73.3333333 25.3280034,73.3333333 L15.9966337,73.3333333 L15.9966337,58.6666667 L25.3280034,58.6666667 C25.6815221,58.6665912 26.020534,58.5260658 26.2704717,58.276 L31.2120985,53.3333333 L34.659373,53.3333333 L34.659373,56 L33.3263202,56 L33.3263202,58.6666667 L49.3229539,58.6666667 Z M46.6568483,48 C46.6568483,49.4727593 45.4631922,50.6666667 43.9907427,50.6666667 L35.9924258,50.6666667 C34.5199764,50.6666667 33.3263202,49.4727593 33.3263202,48 L33.3263202,47.0386667 C37.6774597,48.3202581 42.3057088,48.3202581 46.6568483,47.0386667 L46.6568483,48 Z M47.9899011,54.6666667 L47.9899011,56 L45.3237955,56 L45.3237955,53.3333333 L46.6568483,53.3333333 C47.393073,53.3333333 47.9899011,53.930287 47.9899011,54.6666667 Z M42.6576899,53.3333333 L42.6576899,56 L37.3254786,56 L37.3254786,53.3333333 L42.6576899,53.3333333 Z M39.9915843,45.3333333 C28.2119885,45.3333333 18.6627393,35.7820747 18.6627393,24 C18.6627393,12.2179253 28.2119885,2.66666667 39.9915843,2.66666667 C51.7711801,2.66666667 61.3204292,12.2179253 61.3204292,24 C61.3064726,35.7762876 51.7653942,45.3193738 39.9915843,45.3333333 Z" id="Shape" fill="#6DA8FF" fill-rule="nonzero"></path>
                        <path d="M39.9915843,5.33333333 C29.6844379,5.33333333 21.3288449,13.6906847 21.3288449,24 C21.3288449,34.3093153 29.6844379,42.6666667 39.9915843,42.6666667 C50.2987306,42.6666667 58.6543236,34.3093153 58.6543236,24 C58.6433028,13.695254 50.2941622,5.34435643 39.9915843,5.33333333 Z M39.9915843,40 C31.1568874,40 23.9949506,32.836556 23.9949506,24 C23.9949506,15.163444 31.1568874,8 39.9915843,8 C48.8262811,8 55.988218,15.163444 55.988218,24 C55.9786668,32.8325959 48.8223219,39.9904469 39.9915843,40 Z" id="Shape" fill="#6DA8FF" fill-rule="nonzero"></path>
                        <path d="M50.6560067,24 C50.6493949,29.8882959 45.8786413,34.6600535 39.9915843,34.6666667 L39.9915843,37.3333333 C47.3504816,37.3252502 53.3140309,31.3604459 53.3221124,24 L50.6560067,24 Z" id="Path" fill="#6DA8FF" fill-rule="nonzero"></path>
                        <polygon id="Path" fill="#6DA8FF" fill-rule="nonzero" points="34.659373 34.6666667 37.3254786 34.6666667 37.3254786 37.3333333 34.659373 37.3333333"></polygon>
                    </g>
                </g>
                <g id="Whoops!-Copy">
                    <use fill="#000000" xlink:href="#path-1"></use>
                    <use fill="#808EA3" xlink:href="#path-1"></use>
                </g>
                <g id="No-Talent">
                    <use fill="#000000" xlink:href="#path-2"></use>
                    <use fill="#808EA3" xlink:href="#path-2"></use>
                </g>
                <g id="Found">
                    <use fill="#000000" xlink:href="#path-3"></use>
                    <use fill="#808EA3" xlink:href="#path-3"></use>
                </g>
            </g>
        </g>
    </g>
</svg>