<?xml version="1.0" encoding="UTF-8"?>
<svg width="30px" height="38px" viewBox="0 0 30 38" version="1.1" xmlns="http://www.w3.org/2000/svg" xmlns:xlink="http://www.w3.org/1999/xlink">
    <!-- Generator: Sketch 52.6 (67491) - http://www.bohemiancoding.com/sketch -->
    <title>notification_icon</title>
    <desc>Created with Sketch.</desc>
    <g id="New-UI-screen" stroke="none" stroke-width="1" fill="none" fill-rule="evenodd">
        <g id="01_Cost-Management_Notification" transform="translate(-1302.000000, -71.000000)" fill="#4174FF" fill-rule="nonzero">
            <g id="Group-36" transform="translate(1302.000000, 71.000000)">
                <g id="notification_icon" transform="translate(-0.000000, 0.000000)">
                    <path d="M29.3806376,30.2406523 C29.2691921,30.1681406 28.4304263,29.5792148 27.5905497,27.7975938 C26.0481595,24.5258828 25.7244123,19.9170469 25.7244123,16.6268555 C25.7244123,16.6125312 25.7241161,16.5983555 25.7235978,16.5841055 C25.7067884,12.2357031 23.1088876,8.48721094 19.3912748,6.80533984 L19.3912748,4.23314062 C19.3912748,1.89896094 17.4997383,0 15.1747123,0 L14.8252697,0 C12.5002437,0 10.6087071,1.89896094 10.6087071,4.23314062 L10.6087071,6.80519141 C6.87865387,8.49248047 4.2755696,12.2601211 4.2755696,16.6268555 C4.2755696,19.9170469 3.95182242,24.5258086 2.40943223,27.7975938 C1.56962969,29.5791406 0.730863852,30.1680664 0.619344354,30.2406523 C0.14971842,30.4584844 -0.0818363415,30.9616875 0.0262028003,31.4716445 C0.135278644,31.9866484 0.615567797,32.3417109 1.14006488,32.3417109 L9.28165469,32.3417109 C9.32712147,35.4693633 11.8740017,38 15.000028,38 C18.1260543,38 20.6729345,35.4693633 20.7184013,32.3417109 L28.8599911,32.3417109 C29.3844141,32.3417109 29.8647773,31.9866484 29.9738532,31.4716445 C30.0817442,30.9616875 29.8502635,30.4584102 29.3806376,30.2406523 Z M12.8302851,4.23314063 C12.8302851,3.12869141 13.725255,2.23019922 14.8253437,2.23019922 L15.1747863,2.23019922 C16.2748751,2.23019922 17.1698449,3.12869141 17.1698449,4.23314063 L17.1698449,6.08244922 C16.4687383,5.93720313 15.742973,5.86075781 14.9997318,5.86075781 C14.2567128,5.86075781 13.5311696,5.93712891 12.8303591,6.08222656 L12.8303591,4.23314063 L12.8302851,4.23314063 Z M15.000028,35.7698008 C13.098939,35.7698008 11.5482552,34.2396328 11.5031586,32.3417852 L18.4968233,32.3417852 C18.4518008,34.2395586 16.901117,35.7698008 15.000028,35.7698008 Z M19.4726559,30.1114375 C19.4724338,30.1114375 3.67146862,30.1114375 3.67146862,30.1114375 C3.86362872,29.8112969 4.05919511,29.4714492 4.25357671,29.0873672 C5.74228055,26.1451133 6.49714759,21.952793 6.49714759,16.6268555 C6.49714759,11.920125 10.3113958,8.09095703 14.9996577,8.09095703 C19.6879197,8.09095703 23.5021679,11.920125 23.5021679,16.6305664 C23.5021679,16.6442969 23.50239,16.6579531 23.5029084,16.6716094 C23.5071293,21.9761719 24.2619222,26.1534258 25.7464793,29.0873672 C25.9408609,29.4715234 26.1365013,29.8112969 26.3285874,30.1114375 L19.4726559,30.1114375 Z" id="Shape"></path>
                </g>
            </g>
        </g>
    </g>
</svg>