<?xml version="1.0" encoding="UTF-8"?>
<svg width="104px" height="105px" viewBox="0 0 104 105" version="1.1" xmlns="http://www.w3.org/2000/svg" xmlns:xlink="http://www.w3.org/1999/xlink">
    <title>placeholder_image</title>
    <g id="Talent-Management-UI" stroke="none" stroke-width="1" fill="none" fill-rule="evenodd">
        <g id="06_individual-card_person_A_Edit-View" transform="translate(-75.000000, -258.000000)" fill-rule="nonzero">
            <g id="Group-35" transform="translate(50.000000, 162.000000)">
                <g id="Group-25" transform="translate(0.000000, 81.000000)">
                    <g id="placeholder_image" transform="translate(25.000000, 15.000000)">
                        <g id="Group" transform="translate(66.793103, 100.189655)" fill="#F9EDE0">
                            <path d="M1.76441379,2.665 C1.22289655,3.107 0.677793103,3.536 0.129103448,3.93033333 C0.679586207,3.53166667 1.22289655,3.10266667 1.76441379,2.665 Z" id="Path"></path>
                            <path d="M4.48096552,0.255666667 C3.89641379,0.819 3.31186207,1.37366667 2.71655172,1.885 C3.31186207,1.36933333 3.8982069,0.819 4.48096552,0.255666667 Z" id="Path"></path>
                        </g>
                        <circle id="Oval" fill="#EFECE8" cx="52" cy="52" r="52"></circle>
                        <g id="Group" transform="translate(29.362069, 98.620690)" fill="#F9EDE0">
                            <path d="M36.5111724,3.49296552 C35.9804138,3.64546909 35.446069,3.79053347 34.9063448,3.92629885 C35.446069,3.79053347 35.9804138,3.64546909 36.5111724,3.49296552 Z" id="Path"></path>
                            <path d="M18.8706207,5.4085977 C18.2358621,5.32193103 17.6028966,5.22833103 16.9771034,5.0965977 C17.6046897,5.22833103 18.2376552,5.32193103 18.8706207,5.4085977 Z" id="Path"></path>
                            <path d="M10.3677241,3.92450575 C9.8297931,3.78874037 9.29544828,3.64367599 8.76289655,3.49117241 C9.29544828,3.64553579 9.8297931,3.79060017 10.3677241,3.92450575 Z" id="Path"></path>
                            <path d="M15.9012414,5.12229885 C15.3328276,4.99069391 14.7662069,4.85266922 14.2031724,4.68896552 C14.7644138,4.85266922 15.3328276,4.98748404 15.9012414,5.12229885 Z" id="Path"></path>
                            <path d="M22.637931,5.52156322 C21.6804138,5.52156322 20.7318621,5.46262989 19.7868966,5.36556322 C20.7318621,5.46262989 21.6804138,5.52156322 22.637931,5.52156322 Z" id="Path"></path>
                            <path d="M13.0932414,4.59691954 C12.5481379,4.46358621 12.0048276,4.32072906 11.4668966,4.16358621 C12.0048276,4.32072906 12.5481379,4.46358621 13.0932414,4.59691954 Z" id="Path"></path>
                            <path d="M2.6017931,1.37351724 C1.79310345,1.03462069 0.99337931,0.679586207 0.206206897,0.303034483 C0.995172414,0.679586207 1.79489655,1.03641379 2.6017931,1.37351724 Z" id="Path"></path>
                            <path d="M5.12648276,2.34896552 C4.53296552,2.13558621 3.94662069,1.90786207 3.36206897,1.67475862 C3.94662069,1.90786207 4.53296552,2.13558621 5.12648276,2.34896552 Z" id="Path"></path>
                            <path d="M25.4889655,5.36556322 C24.544,5.46262989 23.5954483,5.52156322 22.637931,5.52156322 C23.5954483,5.52156322 24.544,5.46262989 25.4889655,5.36556322 Z" id="Path"></path>
                            <path d="M28.2987586,5.0965977 C27.6711724,5.22833103 27.0382069,5.32193103 26.4052414,5.4085977 C27.0382069,5.32193103 27.6711724,5.22833103 28.2987586,5.0965977 Z" id="Path"></path>
                            <path d="M33.8107586,4.16358621 C33.2710345,4.32072906 32.7295172,4.46358621 32.1844138,4.59691954 C32.7277241,4.46358621 33.2710345,4.32072906 33.8107586,4.16358621 Z" id="Path"></path>
                            <path d="M31.0744828,4.68717241 C30.5114483,4.85087612 29.9448276,4.98890081 29.3764138,5.12050575 C29.9430345,4.98890081 30.5114483,4.85408599 31.0744828,4.68717241 Z" id="Path"></path>
                            <path d="M45.0588966,0.30662069 C44.2753103,0.68137931 43.4791724,1.03641379 42.674069,1.37351724 C43.4791724,1.03641379 44.2753103,0.683172414 45.0588966,0.30662069 Z" id="Path"></path>
                            <path d="M7.71572414,3.19531034 C7.16524138,3.03034483 6.62193103,2.85282759 6.08041379,2.67172414 C6.62193103,2.85282759 7.16524138,3.03034483 7.71572414,3.19531034 Z" id="Path"></path>
                            <path d="M42.674069,1.37351724 C42.4230345,1.52661105 42.1666207,1.66154119 41.9137931,1.80685057 C42.1648276,1.66154119 42.4212414,1.52661105 42.674069,1.37351724 Z" id="Path"></path>
                            <path d="M45.2686897,0.36388046 C45.223623,0.38468046 45.1750897,0.40548046 45.130023,0.42628046 C45.1750897,0.40548046 45.223623,0.388147126 45.2686897,0.36388046 Z" id="Path"></path>
                            <path d="M11.4651034,4.34409195 C11.0975172,4.20579408 10.7317241,4.06134964 10.3677241,3.91075862 C10.7317241,4.06134964 11.0975172,4.20579408 11.4651034,4.34409195 Z" id="Path"></path>
                            <path d="M14.2013793,4.88381609 C13.8302069,4.76594943 13.4608276,4.63421609 13.0914483,4.50248276 C13.4626207,4.63421609 13.8302069,4.76941609 14.2013793,4.88381609 Z" id="Path"></path>
                            <path d="M19.7868966,5.43585287 C19.4802759,5.40465287 19.1754483,5.34225287 18.8706207,5.30065287 C19.1772414,5.34225287 19.4802759,5.40465287 19.7868966,5.43585287 Z" id="Path"></path>
                            <path d="M16.9771034,5.23550345 C16.6166897,5.15923678 16.2598621,5.06217011 15.9012414,4.97203678 C16.2598621,5.06217011 16.6166897,5.15923678 16.9771034,5.23550345 Z" id="Path"></path>
                            <path d="M0.341048276,0.420183908 C0.302914943,0.402850575 0.261314943,0.385517241 0.223181609,0.368183908 C0.261314943,0.385517241 0.302914943,0.402850575 0.341048276,0.420183908 Z" id="Path"></path>
                            <path d="M26.4052414,5.30065287 C26.0986207,5.34225287 25.7955862,5.40465287 25.4889655,5.43585287 C25.7955862,5.40465287 26.0986207,5.34225287 26.4052414,5.30065287 Z" id="Path"></path>
                            <path d="M37.5601379,3.19531034 C37.2122759,3.34671597 36.8626207,3.48767982 36.5111724,3.62864368 C36.8626207,3.48767982 37.2122759,3.34671597 37.5601379,3.19531034 Z" id="Path"></path>
                            <path d="M40.1493793,2.34896552 C39.8337931,2.50063218 39.5146207,2.63785441 39.1972414,2.78229885 C39.5146207,2.63785441 39.8337931,2.50063218 40.1493793,2.34896552 Z" id="Path"></path>
                            <path d="M3.36386207,1.80864368 C3.11103448,1.6633343 2.85462069,1.52580935 2.60358621,1.37531034 C2.85462069,1.52580935 3.11103448,1.66073949 3.36386207,1.80864368 Z" id="Path"></path>
                            <path d="M6.08041379,2.78229885 C5.76303448,2.63785441 5.44206897,2.50063218 5.12827586,2.34896552 C5.44206897,2.50063218 5.76124138,2.63785441 6.08041379,2.78229885 Z" id="Path"></path>
                            <path d="M29.3746207,4.97203678 C29.016,5.06217011 28.6591724,5.16270345 28.2987586,5.23550345 C28.6591724,5.15923678 29.016,5.06217011 29.3746207,4.97203678 Z" id="Path"></path>
                            <path d="M34.9081379,3.90896552 C34.5441379,4.05955653 34.1783448,4.20400098 33.8107586,4.34229885 C34.1783448,4.20707426 34.5441379,4.06262982 34.9081379,3.90896552 Z" id="Path"></path>
                            <path d="M32.1826207,4.50248276 C31.8132414,4.63421609 31.4456552,4.76941609 31.0726897,4.88381609 C31.4456552,4.76941609 31.8132414,4.63421609 32.1826207,4.50248276 Z" id="Path"></path>
                            <path d="M8.76468966,3.62864368 C8.41503448,3.48767982 8.06358621,3.34671597 7.71572414,3.19531034 C8.06358621,3.34671597 8.41324138,3.48767982 8.76468966,3.62864368 Z" id="Path"></path>
                        </g>
                        <path d="M63.9026207,55.5754483 C69.6961379,51.7184828 73.5172414,45.136 73.5172414,37.6551724 C73.5172414,25.7722759 63.8828966,16.137931 52,16.137931 C40.1171034,16.137931 30.4827586,25.7722759 30.4827586,37.6551724 C30.4827586,45.136 34.3038621,51.7184828 40.0973793,55.5754483 C40.0973793,55.5754483 40.0991724,55.5772414 40.1009655,55.5772414 C40.0991724,55.5772414 40.0991724,55.5754483 40.0991724,55.5754483 C26.2313103,59.7551724 15.4332414,71.0104828 11.9564138,85.1706207 L11.9582069,85.1724138 C12.5248276,85.8555862 13.1129655,86.5226207 13.7136552,87.1771034 C13.8588966,87.3366897 14.0113103,87.4891034 14.1601379,87.6451034 C14.6227586,88.1364138 15.0907586,88.6205517 15.5713103,89.093931 C15.7703448,89.2893793 15.9729655,89.4776552 16.1755862,89.6695172 C16.6202759,90.0926897 17.0703448,90.5104828 17.5293793,90.9175172 C17.7571034,91.1183448 17.9884138,91.3173793 18.217931,91.5146207 C18.668,91.9001379 19.1234483,92.2784828 19.5878621,92.6478621 C19.8317241,92.8433103 20.0773793,93.0351724 20.3230345,93.2270345 C20.7928276,93.5892414 21.2697931,93.9406897 21.7521379,94.2849655 C22.0013793,94.4624828 22.2470345,94.6435862 22.4998621,94.8175172 C23.0091034,95.1689655 23.5273103,95.506069 24.0491034,95.8395862 C24.284,95.9884138 24.5135172,96.1426207 24.7502069,96.2896552 C25.3526897,96.6608276 25.965931,97.0158621 26.5845517,97.3637241 C26.7477241,97.4551724 26.9073103,97.5537931 27.0722759,97.6434483 C27.872,98.0809655 28.6842759,98.5005517 29.5091034,98.8968276 C29.5288276,98.9057931 29.5503448,98.9147586 29.570069,98.9237241 C30.3572414,99.3002759 31.1569655,99.6571034 31.9656552,99.9942069 C32.2166897,100.1 32.4731034,100.193241 32.725931,100.293655 C33.3104828,100.526759 33.8950345,100.756276 34.4903448,100.967862 C34.805931,101.080828 35.1251034,101.183034 35.4424828,101.290621 C35.984,101.473517 36.5291034,101.651034 37.0777931,101.814207 C37.4256552,101.918207 37.7753103,102.015034 38.1267586,102.111862 C38.6575172,102.258897 39.1918621,102.398759 39.7315862,102.529655 C40.0955862,102.617517 40.4613793,102.701793 40.8289655,102.782483 C41.3686897,102.900828 41.9102069,103.008414 42.4553103,103.108828 C42.8246897,103.176966 43.1922759,103.246897 43.5652414,103.306069 C44.1282759,103.397517 44.6948966,103.474621 45.2633103,103.548138 C45.621931,103.594759 45.9787586,103.646759 46.3391724,103.684414 C46.9667586,103.752552 47.5997241,103.800966 48.2326897,103.845793 C48.5393103,103.86731 48.8423448,103.899586 49.1489655,103.915724 C50.093931,103.969517 51.0424828,104 52,104 C52.9575172,104 53.906069,103.969517 54.8510345,103.91931 C55.1576552,103.903172 55.4624828,103.870897 55.7673103,103.849379 C56.402069,103.804552 57.0350345,103.756138 57.6608276,103.688 C58.0212414,103.648552 58.378069,103.598345 58.7366897,103.551724 C59.3051034,103.478207 59.8717241,103.401103 60.4347586,103.309655 C60.805931,103.24869 61.1753103,103.180552 61.5446897,103.112414 C62.0897931,103.012 62.6331034,102.904414 63.1710345,102.786069 C63.5386207,102.705379 63.9044138,102.621103 64.2684138,102.533241 C64.8063448,102.402345 65.3406897,102.262483 65.8732414,102.115448 C66.2228966,102.018621 66.5743448,101.921793 66.9222069,101.817793 C67.4726897,101.652828 68.016,101.47531 68.5575172,101.294207 C68.8748966,101.186621 69.1958621,101.084414 69.5096552,100.971448 C70.1031724,100.758069 70.6895172,100.530345 71.274069,100.297241 C71.5268966,100.196828 71.7833103,100.101793 72.0343448,99.9977931 C72.8394483,99.6606897 73.6355862,99.3074483 74.4191724,98.9308966 C74.4424828,98.9201379 74.4675862,98.9093793 74.4908966,98.8986207 C75.3157241,98.5023448 76.128,98.0827586 76.9277241,97.6452414 C77.0926897,97.5555862 77.2522759,97.4569655 77.4154483,97.3655172 C78.034069,97.0176552 78.6473103,96.6626207 79.2497931,96.2914483 C79.4864828,96.1462069 79.7177931,95.992 79.9508966,95.8413793 C80.4726897,95.5078621 80.9908966,95.1689655 81.5001379,94.8193103 C81.7511724,94.6453793 81.9986207,94.466069 82.2478621,94.2867586 C82.7302069,93.9406897 83.2071724,93.5892414 83.6769655,93.2288276 C83.9244138,93.0387586 84.1682759,92.8451034 84.4121379,92.6496552 C84.8747586,92.2802759 85.332,91.901931 85.782069,91.5164138 C86.0133793,91.3191724 86.2446897,91.1201379 86.4706207,90.9193103 C86.9296552,90.5122759 87.3797241,90.0944828 87.8244138,89.6713103 C88.0252414,89.4794483 88.2296552,89.2893793 88.4286897,89.0957241 C88.9092414,88.6223448 89.3790345,88.1382069 89.8398621,87.6468966 C89.9868966,87.4891034 90.1393103,87.3366897 90.2863448,87.1788966 C90.8870345,86.5244138 91.4751724,85.8573793 92.0417931,85.1742069 L92.0435862,85.1724138 C88.5685517,71.0104828 77.7704828,59.7551724 63.9026207,55.5754483 Z" id="Path" fill="#C6C3BD"></path>
                    </g>
                </g>
            </g>
        </g>
    </g>
</svg>