<?xml version="1.0" encoding="UTF-8" standalone="no"?>
<svg width="190px" height="87px" viewBox="0 0 190 87" version="1.1" xmlns="http://www.w3.org/2000/svg" xmlns:xlink="http://www.w3.org/1999/xlink">
    <!-- Generator: Sketch 50.2 (55047) - http://www.bohemiancoding.com/sketch -->
    <title>Success</title>
    <desc>Created with Sketch.</desc>
    <defs></defs>
    <g id="Alert-UI-screens" stroke="none" stroke-width="1" fill="none" fill-rule="evenodd">
        <g id="01_Alert" transform="translate(-625.000000, -307.000000)">
            <g id="Group-2-Copy" transform="translate(495.000000, 275.000000)">
                <g id="Success" transform="translate(130.000000, 16.000000)">
                    <path d="M40.2919708,87.5912409 C36.9056993,87.5912409 34.1605839,84.8461255 34.1605839,81.459854 C34.1605839,78.0735826 36.9056993,75.3284672 40.2919708,75.3284672 L6.13138686,75.3284672 C2.7451154,75.3284672 4.1469865e-16,72.5833518 0,69.1970803 C-4.1469865e-16,65.8108088 2.7451154,63.0656934 6.13138686,63.0656934 L41.1678832,63.0656934 C44.5541547,63.0656934 47.2992701,60.320578 47.2992701,56.9343066 C47.2992701,53.5480351 44.5541547,50.8029197 41.1678832,50.8029197 L19.270073,50.8029197 C15.8838015,50.8029197 13.1386861,48.0578043 13.1386861,44.6715328 C13.1386861,41.2852614 15.8838015,38.540146 19.270073,38.540146 L54.3065693,38.540146 C50.9202979,38.540146 48.1751825,35.7950306 48.1751825,32.4087591 C48.1751825,29.0224877 50.9202979,26.2773723 54.3065693,26.2773723 L104.233577,26.2773723 C107.619848,26.2773723 110.364964,29.0224877 110.364964,32.4087591 C110.364964,35.7950306 107.619848,38.540146 104.233577,38.540146 L160.291971,38.540146 C163.678242,38.540146 166.423358,41.2852614 166.423358,44.6715328 C166.423358,48.0578043 163.678242,50.8029197 160.291971,50.8029197 L179.562044,50.8029197 C182.948315,50.8029197 185.693431,53.5480351 185.693431,56.9343066 C185.693431,60.320578 182.948315,63.0656934 179.562044,63.0656934 L162.919708,63.0656934 C159.533437,63.0656934 156.788321,65.8108088 156.788321,69.1970803 C156.788321,72.5833518 159.533437,75.3284672 162.919708,75.3284672 L168.175182,75.3284672 C171.561454,75.3284672 174.306569,78.0735826 174.306569,81.459854 C174.306569,84.8461255 171.561454,87.5912409 168.175182,87.5912409 L40.2919708,87.5912409 Z M183.065693,87.5912409 C179.679422,87.5912409 176.934307,84.8461255 176.934307,81.459854 C176.934307,78.0735826 179.679422,75.3284672 183.065693,75.3284672 C186.451965,75.3284672 189.19708,78.0735826 189.19708,81.459854 C189.19708,84.8461255 186.451965,87.5912409 183.065693,87.5912409 Z" id="BG" fill="#1ABC9C" opacity="0.200000003"></path>
                    <path d="M91.5313034,101.257939 C94.6351132,101.874648 97.8212248,101.981309 100.12668,101.809795 M103.904623,101.473373 C105.903771,101.236008 107.85994,100.857885 109.763015,100.349155 C113.948611,99.2302604 117.877379,97.4795769 121.441712,95.2050874 C125.046528,92.9047648 128.278584,90.0686702 131.026566,86.8085077 C133.424444,83.9637032 135.453736,80.7960035 137.040483,77.3796264 C138.614701,73.9902251 139.753335,70.3560581 140.384165,66.5495991 C140.760067,64.2813887 140.955659,61.9520012 140.955659,59.5767709 C140.955659,56.0895203 140.534055,52.7010852 139.739206,49.4599946 C138.885168,45.9775487 137.600226,42.665209 135.944369,39.583173 C133.870632,35.7233399 131.215144,32.2247193 128.095735,29.205553 C125.668647,26.8564598 122.960712,24.7976177 120.027429,23.0847209 C116.72514,21.1563418 113.137239,19.6664226 109.342919,18.694432 C106.007479,17.8399928 102.512529,17.3857821 98.911863,17.3857821 C94.386949,17.3857821 90.0289893,18.103101 85.9447459,19.4306033 C81.9460903,20.7302868 78.2097994,22.6148481 74.8360632,24.9837464 C71.3602266,27.4243352 68.2692209,30.37902 65.6726101,33.7378528 C62.3070924,38.0913014 59.7721214,43.1236888 58.3062604,48.5956165 C57.3682984,52.0969445 56.8680674,55.7782356 56.8680674,59.5767709 C56.8680674,65.6069958 58.1287487,71.341742 60.4000579,76.5300805 C63.1621743,82.8395673 67.418883,88.3409856 72.7204767,92.5830536 C77.1700098,96.1433458 82.3555542,98.8165584 88.0112493,100.3359" id="Shape" stroke="#1ABC9C" stroke-width="2.5" fill="#FFFFFF" stroke-linecap="round" transform="translate(98.911863, 59.634572) rotate(-44.000000) translate(-98.911863, -59.634572) "></path>
                    <g id="bling" transform="translate(130.510949, 9.635036)"></g>
                    <g id="bling" transform="translate(59.562044, 99.854015)"></g>
                    <path d="M82.3184021,59.0089222 C81.0428111,57.8598811 79.0641333,57.9481019 77.8989015,59.2059687 C76.7336698,60.4638356 76.8231336,62.41502 78.0987246,63.5640611 L92.8213539,76.8260752 C94.6071812,78.4347327 97.3773301,78.3112236 99.0086546,76.55021 C99.0768708,76.4754125 99.0768708,76.4754125 99.1426989,76.3985623 L120.152988,51.4804249 C121.257554,50.1704138 121.076043,48.2254545 119.747573,47.1362368 C118.419103,46.0470191 116.446738,46.2260075 115.342173,47.5360187 L95.5891248,70.9630717 L82.3184021,59.0089222 Z" id="Path-7" stroke="#1ABC9C" stroke-width="2.5" fill="#DEFFF2" fill-rule="nonzero"></path>
                    <path d="M127.917392,80.5839416 C127.572004,80.5839416 127.223286,80.4912025 126.915924,80.2979148 C126.098978,79.783457 125.885541,78.7517754 126.43946,77.9931047 C128.714712,74.8772345 130.374013,71.4545118 131.370926,67.8197909 C131.614152,66.9314481 132.586356,66.3947004 133.543841,66.621179 C134.500624,66.8471695 135.078374,67.7506433 134.834798,68.6386606 C133.735548,72.6466157 131.906269,76.4206079 129.398304,79.8553704 C129.052741,80.3288278 128.490061,80.5839416 127.917392,80.5839416" id="Fill-7" fill="#1ABC9C"></path>
                    <path d="M133.999097,63.0656934 C133.97375,63.0656934 133.948403,63.0651604 133.922885,63.0639166 C132.965477,63.0209161 132.222924,62.1752995 132.264433,61.1752721 C132.285527,60.6628202 132.296244,60.1404178 132.296244,59.6224577 C132.296244,58.6217195 133.07333,57.810219 134.031419,57.810219 C134.989507,57.810219 135.766423,58.6217195 135.766423,59.6224577 C135.766423,60.1924804 135.754515,60.7674784 135.73121,61.3318151 C135.690892,62.3050116 134.922822,63.0656934 133.999097,63.0656934" id="Fill-8" fill="#1ABC9C"></path>
                </g>
            </g>
        </g>
    </g>
</svg>