<?xml version="1.0" encoding="UTF-8"?>
<svg width="32px" height="16px" viewBox="0 0 32 16" version="1.1" xmlns="http://www.w3.org/2000/svg" xmlns:xlink="http://www.w3.org/1999/xlink">
    <title>view_icon_blue</title>
    <defs>
        <rect id="path-1" x="0" y="0.315" width="32" height="15.37"></rect>
        <rect id="path-3" x="0" y="0.315" width="32" height="15.37"></rect>
        <rect id="path-5" x="0" y="0.315" width="32" height="15.37"></rect>
        <rect id="path-7" x="0" y="0.315" width="32" height="15.37"></rect>
        <rect id="path-9" x="0" y="0.315" width="32" height="15.37"></rect>
    </defs>
    <g id="Talent-Management-UI" stroke="none" stroke-width="1" fill="none" fill-rule="evenodd">
        <g id="03_individual-card_A" transform="translate(-455.000000, -342.000000)">
            <g id="Managers-&amp;-Team-Info" transform="translate(48.000000, 160.000000)">
                <g id="Group-38" transform="translate(0.000000, 81.000000)">
                    <g id="view_icon_blue" transform="translate(407.000000, 101.000000)">
                        <g id="Group">
                            <g id="Clipped">
                                <mask id="mask-2" fill="white">
                                    <use xlink:href="#path-1"></use>
                                </mask>
                                <g id="SVGID_31_"></g>
                                <path d="M9.9405,5.7755 C8.7595,6.2725 7.6515,6.8895 6.6175,7.6275 C5.584,8.3635 4.6075,9.1755 3.69,10.0635 C4.608,10.952 5.584,11.764 6.6175,12.5015 C7.6515,13.2375 8.7595,13.8555 9.9405,14.352 C9.5015,13.728 9.1675,13.0475 8.9375,12.31 C8.7085,11.574 8.5935,10.825 8.5935,10.0635 C8.5935,9.3025 8.7085,8.553 8.9375,7.8165 C9.1675,7.08 9.5015,6.3995 9.9405,5.7755" id="Path" fill="#7DB9FF" fill-rule="nonzero" mask="url(#mask-2)"></path>
                            </g>
                            <g id="Clipped">
                                <mask id="mask-4" fill="white">
                                    <use xlink:href="#path-3"></use>
                                </mask>
                                <g id="SVGID_31_"></g>
                                <path d="M22.2365,5.7755 C22.6745,6.3995 23.0095,7.08 23.2385,7.8165 C23.4685,8.5535 23.5835,9.3025 23.5835,10.0635 C23.5835,10.825 23.4685,11.574 23.2385,12.31 C23.0095,13.0475 22.6745,13.728 22.2365,14.352 C23.4175,13.8555 24.5255,13.2375 25.5595,12.5015 C26.593,11.764 27.5695,10.952 28.4865,10.0635 C27.5695,9.1755 26.5935,8.3635 25.5595,7.6275 C24.5255,6.889 23.4175,6.2725 22.2365,5.7755" id="Path" fill="#7DB9FF" fill-rule="nonzero" mask="url(#mask-4)"></path>
                            </g>
                            <g id="Clipped">
                                <mask id="mask-6" fill="white">
                                    <use xlink:href="#path-5"></use>
                                </mask>
                                <g id="SVGID_31_"></g>
                                <path d="M13.9065,15.238 C14.5905,15.536 15.3165,15.6855 16.0875,15.6855 C16.8595,15.6855 17.5855,15.536 18.268,15.238 C18.951,14.94 19.5475,14.5385 20.054,14.03 C20.562,13.523 20.964,12.928 21.262,12.244 C21.56,11.5615 21.7085,10.8355 21.7085,10.0635 C21.7085,9.2935 21.56,8.5655 21.262,7.8825 C20.964,7.1995 20.562,6.6045 20.054,6.0975 C19.547,5.5905 18.951,5.188 18.268,4.8895 C17.5855,4.5925 16.8595,4.4425 16.0875,4.4425 C15.3165,4.4425 14.5905,4.5925 13.9065,4.8895 C13.2235,5.188 12.6285,5.5905 12.1205,6.0975 C11.6135,6.605 11.212,7.1995 10.9125,7.8825 C10.6155,8.5655 10.4665,9.2935 10.4665,10.0635 C10.4665,10.8355 10.6155,11.5615 10.9125,12.244 C11.212,12.928 11.6135,13.5235 12.1205,14.03 C12.629,14.538 13.2235,14.94 13.9065,15.238 M14.361,9.332 C14.459,9.107 14.593,8.9095 14.764,8.7385 C14.934,8.5675 15.132,8.434 15.3565,8.3355 C15.581,8.2375 15.8245,8.1895 16.0885,8.1895 C16.352,8.1895 16.5965,8.2375 16.8205,8.3355 C17.0455,8.4335 17.2425,8.5675 17.4135,8.7385 C17.585,8.9095 17.7185,9.1065 17.816,9.332 C17.9135,9.5565 17.963,9.8 17.963,10.063 C17.963,10.3265 17.9135,10.571 17.816,10.795 C17.719,11.02 17.585,11.218 17.4135,11.389 C17.2425,11.5605 17.046,11.693 16.8205,11.7915 C16.5965,11.889 16.352,11.9375 16.0885,11.9375 C15.8245,11.9375 15.581,11.889 15.3565,11.7915 C15.1325,11.6935 14.934,11.5605 14.764,11.389 C14.593,11.218 14.4595,11.0205 14.361,10.795 C14.263,10.571 14.215,10.3265 14.215,10.063 C14.215,9.8 14.2625,9.5565 14.361,9.332" id="Shape" fill="#7DB9FF" fill-rule="nonzero" mask="url(#mask-6)"></path>
                            </g>
                            <g id="Clipped">
                                <mask id="mask-8" fill="white">
                                    <use xlink:href="#path-7"></use>
                                </mask>
                                <g id="SVGID_31_"></g>
                                <path d="M14.7635,11.3885 C14.9335,11.5595 15.1325,11.693 15.3555,11.7905 C15.5805,11.8885 15.8245,11.9375 16.088,11.9375 C16.3515,11.9375 16.597,11.8885 16.82,11.7905 C17.0445,11.6935 17.243,11.5595 17.413,11.3885 C17.584,11.2175 17.718,11.0205 17.815,10.7945 C17.913,10.572 17.9625,10.3265 17.9625,10.0635 C17.9625,9.8 17.913,9.5565 17.815,9.3315 C17.7185,9.1075 17.584,8.9095 17.413,8.7395 C17.243,8.568 17.045,8.4335 16.82,8.335 C16.597,8.2385 16.3515,8.19 16.088,8.19 C15.825,8.19 15.5805,8.2385 15.3555,8.335 C15.133,8.433 14.9335,8.568 14.7635,8.7395 C14.5925,8.9095 14.4585,9.107 14.3605,9.3315 C14.2635,9.5565 14.2145,9.8 14.2145,10.0635 C14.2145,10.3265 14.2635,10.572 14.3605,10.7945 C14.4585,11.0205 14.593,11.218 14.7635,11.3885" id="Path" fill="#2F2F2F" fill-rule="nonzero" mask="url(#mask-8)"></path>
                            </g>
                            <g id="Clipped">
                                <mask id="mask-10" fill="white">
                                    <use xlink:href="#path-9"></use>
                                </mask>
                                <g id="SVGID_31_"></g>
                                <path d="M16.127,0.3155 L15.874,0.3155 C9.862,0.3155 4.16,2.9265 0.228,7.4795 C-0.11,7.871 -0.067,8.4625 0.325,8.8005 C0.7155,9.1395 1.308,9.0955 1.646,8.7045 C5.222,4.564 10.407,2.19 15.874,2.19 L16.127,2.19 C21.593,2.19 26.778,4.564 30.354,8.7045 C30.539,8.92 30.801,9.0285 31.064,9.0285 C31.28,9.0285 31.499,8.9535 31.675,8.8005 C32.067,8.4625 32.11,7.8715 31.772,7.4795 C27.84,2.9265 22.138,0.3155 16.127,0.3155" id="Path" fill="#7DB9FF" fill-rule="nonzero" mask="url(#mask-10)"></path>
                            </g>
                        </g>
                    </g>
                </g>
            </g>
        </g>
    </g>
</svg>