<?xml version="1.0" encoding="UTF-8" standalone="no"?>
<svg width="190px" height="76px" viewBox="0 0 190 76" version="1.1" xmlns="http://www.w3.org/2000/svg" xmlns:xlink="http://www.w3.org/1999/xlink">
    <!-- Generator: Sketch 50.2 (55047) - http://www.bohemiancoding.com/sketch -->
    <title>Warning</title>
    <desc>Created with Sketch.</desc>
    <defs>
        <polygon id="path-1" points="0 0.155813817 84.0899963 0.155813817 84.0899963 75.5373842 0 75.5373842"></polygon>
    </defs>
    <g id="Alert-UI-screens" stroke="none" stroke-width="1" fill="none" fill-rule="evenodd">
        <g id="04_Alert" transform="translate(-625.000000, -309.000000)">
            <g id="Group-2-Copy" transform="translate(495.000000, 275.000000)">
                <g id="Warning" transform="translate(130.000000, 16.000000)">
                    <path d="M40.2919708,87.5912409 C36.9056993,87.5912409 34.1605839,84.8461255 34.1605839,81.459854 C34.1605839,78.0735826 36.9056993,75.3284672 40.2919708,75.3284672 L6.13138686,75.3284672 C2.7451154,75.3284672 4.1469865e-16,72.5833518 0,69.1970803 C-4.1469865e-16,65.8108088 2.7451154,63.0656934 6.13138686,63.0656934 L41.1678832,63.0656934 C44.5541547,63.0656934 47.2992701,60.320578 47.2992701,56.9343066 C47.2992701,53.5480351 44.5541547,50.8029197 41.1678832,50.8029197 L19.270073,50.8029197 C15.8838015,50.8029197 13.1386861,48.0578043 13.1386861,44.6715328 C13.1386861,41.2852614 15.8838015,38.540146 19.270073,38.540146 L54.3065693,38.540146 C50.9202979,38.540146 48.1751825,35.7950306 48.1751825,32.4087591 C48.1751825,29.0224877 50.9202979,26.2773723 54.3065693,26.2773723 L104.233577,26.2773723 C107.619848,26.2773723 110.364964,29.0224877 110.364964,32.4087591 C110.364964,35.7950306 107.619848,38.540146 104.233577,38.540146 L160.291971,38.540146 C163.678242,38.540146 166.423358,41.2852614 166.423358,44.6715328 C166.423358,48.0578043 163.678242,50.8029197 160.291971,50.8029197 L179.562044,50.8029197 C182.948315,50.8029197 185.693431,53.5480351 185.693431,56.9343066 C185.693431,60.320578 182.948315,63.0656934 179.562044,63.0656934 L162.919708,63.0656934 C159.533437,63.0656934 156.788321,65.8108088 156.788321,69.1970803 C156.788321,72.5833518 159.533437,75.3284672 162.919708,75.3284672 L168.175182,75.3284672 C171.561454,75.3284672 174.306569,78.0735826 174.306569,81.459854 C174.306569,84.8461255 171.561454,87.5912409 168.175182,87.5912409 L40.2919708,87.5912409 Z M183.065693,87.5912409 C179.679422,87.5912409 176.934307,84.8461255 176.934307,81.459854 C176.934307,78.0735826 179.679422,75.3284672 183.065693,75.3284672 C186.451965,75.3284672 189.19708,78.0735826 189.19708,81.459854 C189.19708,84.8461255 186.451965,87.5912409 183.065693,87.5912409 Z" id="BG" fill="#F5A623" opacity="0.200000003"></path>
                    <g id="Group" transform="translate(58.000000, 18.000000)">
                        <g id="Group-3">
                            <mask id="mask-2" fill="white">
                                <use xlink:href="#path-1"></use>
                            </mask>
                            <g id="Clip-2"></g>
                            <path d="M82.8560169,61.882323 L49.8472308,4.70821538 C48.2010454,1.85756451 45.254433,0.155813817 41.9632165,0.155813817 C38.6713405,0.155813817 35.7247281,1.85822404 34.0803565,4.70821538 L5.56032735,54.1033388 L5.42886054,54.3701052 L1.06909713,61.882323 C-0.575769151,64.7318197 -0.575769151,68.1356508 1.06975666,70.9856421 C2.71544735,73.8357984 5.66205975,75.5373842 8.95261673,75.5373842 L74.9718377,75.5373842 C78.2630542,75.5373842 81.2109857,73.8357984 82.8560169,70.984488 C84.5015427,68.1343317 84.5015427,64.7311601 82.8560169,61.882323 Z" id="Fill-1-Copy" fill="#FFFFFF" mask="url(#mask-2)"></path>
                            <path d="M82.8560169,61.882323 L49.8472308,4.70821538 C48.2010454,1.85756451 45.254433,0.155813817 41.9632165,0.155813817 C41.962557,0.155813817 41.9618975,0.155813817 41.9618975,0.155813817 C38.6713405,0.155813817 35.7247281,1.85822404 34.0803565,4.70821538 L5.56032735,54.1033388 C5.21440418,54.7016968 5.41984759,55.4660913 6.01820562,55.8120145 C6.61656365,56.1572781 7.38178262,55.9524943 7.7275409,55.3541362 L36.2470754,5.95901286 C37.4391747,3.8927073 39.5762148,2.65872783 41.9618975,2.65872783 C44.3482397,2.65872783 46.4859393,3.89204777 47.6793577,5.95967239 L80.6886384,63.13378 C81.8813973,65.199426 81.8813973,67.6662308 80.6886384,69.733031 C79.4958795,71.8011502 77.3581799,73.0351297 74.9718377,73.0351297 L8.95261673,73.0351297 C6.56693407,73.0351297 4.43055351,71.8011502 3.23713509,69.73435 C2.04371668,67.6673849 2.04371668,65.2000855 3.23647556,63.1331204 L5.24012583,59.6635012 C5.58538946,59.0653081 5.38060559,58.3000891 4.78158803,57.9541659 C4.18322999,57.6090672 3.41867056,57.8131915 3.07291228,58.4128686 L1.06909713,61.882323 C-0.575769151,64.7318197 -0.575769151,68.1356508 1.06975666,70.9856421 C2.71544735,73.8357984 5.66205975,75.5373842 8.95261673,75.5373842 L74.9718377,75.5373842 C78.2630542,75.5373842 81.2109857,73.8357984 82.8560169,70.984488 C84.5015427,68.1343317 84.5015427,64.7311601 82.8560169,61.882323 Z" id="Fill-1" fill="#F5A623" mask="url(#mask-2)"></path>
                        </g>
                        <path d="M41.9632165,60.7520545 C39.7488466,60.7520545 37.9486612,58.9512095 37.9486612,56.7374991 C37.9486612,54.5239536 39.7488466,52.7231086 41.9632165,52.7231086 C44.1769269,52.7231086 45.9771124,54.5239536 45.9771124,56.7374991 C45.9771124,58.9512095 44.1769269,60.7520545 41.9632165,60.7520545 Z" id="Fill-5" fill="#FFEBCA"></path>
                        <path d="M41.9632165,50.2201946 C38.369276,50.2201946 35.445912,53.1442182 35.445912,56.7374991 C35.445912,60.3307801 38.369276,63.254309 41.9632165,63.254309 C45.5564975,63.254309 48.4798615,60.3307801 48.4798615,56.7374991 C48.4798615,53.1442182 45.5564975,50.2201946 41.9632165,50.2201946 Z M41.9632165,60.7520545 C39.7488466,60.7520545 37.9486612,58.9512095 37.9486612,56.7374991 C37.9486612,54.5239536 39.7488466,52.7231086 41.9632165,52.7231086 C44.1769269,52.7231086 45.9771124,54.5239536 45.9771124,56.7374991 C45.9771124,58.9512095 44.1769269,60.7520545 41.9632165,60.7520545 Z" id="Fill-5-Copy" fill="#F5A623"></path>
                        <rect id="Rectangle-15" fill="#FFEBCA" x="36" y="22" width="12" height="26" rx="6"></rect>
                        <path d="M40.4954339,48.4361677 L43.4296801,48.4361677 C45.8282236,48.4361677 47.7791115,46.4839607 47.7791115,44.0847577 L47.7791115,33.006148 C47.7791115,32.3149612 47.2195008,31.7540314 46.5278194,31.7540314 C45.8366326,31.7540314 45.2770219,32.3149612 45.2770219,33.006148 L45.2770219,44.0847577 C45.2770219,45.1043901 44.4479935,45.9332536 43.4296801,45.9332536 L40.4954339,45.9332536 C39.4771205,45.9332536 38.6487516,45.1043901 38.6487516,44.0847577 L38.6487516,25.4982304 C38.6487516,24.4805765 39.4771205,23.6515481 40.4954339,23.6515481 L43.4296801,23.6515481 C44.4479935,23.6515481 45.2770219,24.4805765 45.2770219,25.4982304 L45.2770219,28.0009795 C45.2770219,28.6921663 45.8366326,29.251777 46.5278194,29.251777 C47.2195008,29.251777 47.7791115,28.6921663 47.7791115,28.0009795 L47.7791115,25.4982304 C47.7791115,23.1003464 45.8282236,21.1494585 43.4296801,21.1494585 L40.4954339,21.1494585 C38.0968904,21.1494585 36.1460025,23.1003464 36.1460025,25.4982304 L36.1460025,44.0847577 C36.1460025,46.4839607 38.0968904,48.4361677 40.4954339,48.4361677 Z" id="Fill-6-Copy" fill="#F5A623"></path>
                    </g>
                    <g id="bling" transform="translate(130.510949, 9.635036)"></g>
                </g>
            </g>
        </g>
    </g>
</svg>