<?xml version="1.0" encoding="UTF-8"?>
<svg width="20px" height="24px" viewBox="0 0 20 24" version="1.1" xmlns="http://www.w3.org/2000/svg" xmlns:xlink="http://www.w3.org/1999/xlink">
    <!-- Generator: Sketch 52.6 (67491) - http://www.bohemiancoding.com/sketch -->
    <title>deleted_icon</title>
    <desc>Created with Sketch.</desc>
    <g id="changes" stroke="none" stroke-width="1" fill="none" fill-rule="evenodd" opacity="0.600000024">
        <g id="SITTM_new-changes" transform="translate(-1378.000000, -1083.000000)" fill="#000000">
            <g id="Group-33-Copy" transform="translate(992.000000, 992.000000)">
                <g id="Group" transform="translate(18.000000, 63.000000)">
                    <g id="deleted_icon" transform="translate(368.000000, 28.000000)">
                        <path d="M17.625,3 L13.5,3 L13.5,2.25 C13.5,1.00935938 12.4906406,0 11.25,0 L8.25,0 C7.00935938,0 6,1.00935938 6,2.25 L6,3 L1.875,3 C0.841125,3 0,3.841125 0,4.875 L0,7.5 C0,7.9141875 0.3358125,8.25 0.75,8.25 L1.159875,8.25 L1.80782813,21.8570156 C1.8650625,23.0587031 2.85225,24 4.05525,24 L15.44475,24 C16.6477969,24 17.6349844,23.0587031 17.6921719,21.8570156 L18.340125,8.25 L18.75,8.25 C19.1641875,8.25 19.5,7.9141875 19.5,7.5 L19.5,4.875 C19.5,3.841125 18.658875,3 17.625,3 Z M7.5,2.25 C7.5,1.83646875 7.83646875,1.5 8.25,1.5 L11.25,1.5 C11.6635313,1.5 12,1.83646875 12,2.25 L12,3 L7.5,3 L7.5,2.25 Z M1.5,4.875 C1.5,4.66823437 1.66823437,4.5 1.875,4.5 L17.625,4.5 C17.8317656,4.5 18,4.66823437 18,4.875 L18,6.75 C17.7688594,6.75 2.45779687,6.75 1.5,6.75 L1.5,4.875 Z M16.1938594,21.7856719 C16.1747812,22.1862188 15.8457187,22.5 15.44475,22.5 L4.05525,22.5 C3.65423437,22.5 3.32517187,22.1862187 3.30614062,21.7856719 L2.6615625,8.25 L16.8384375,8.25 L16.1938594,21.7856719 Z" id="Shape" fill-rule="nonzero"></path>
                        <path d="M9.75,21 C10.1641875,21 10.5,20.6641875 10.5,20.25 L10.5,10.5 C10.5,10.0858125 10.1641875,9.75 9.75,9.75 C9.3358125,9.75 9,10.0858125 9,10.5 L9,20.25 C9,20.6641875 9.33576563,21 9.75,21 Z" id="Path"></path>
                        <path d="M13.5,21 C13.9141875,21 14.25,20.6641875 14.25,20.25 L14.25,10.5 C14.25,10.0858125 13.9141875,9.75 13.5,9.75 C13.0858125,9.75 12.75,10.0858125 12.75,10.5 L12.75,20.25 C12.75,20.6641875 13.0857656,21 13.5,21 Z" id="Path"></path>
                        <path d="M6,21 C6.4141875,21 6.75,20.6641875 6.75,20.25 L6.75,10.5 C6.75,10.0858125 6.4141875,9.75 6,9.75 C5.5858125,9.75 5.25,10.0858125 5.25,10.5 L5.25,20.25 C5.25,20.6641875 5.58576563,21 6,21 Z" id="Path"></path>
                    </g>
                </g>
            </g>
        </g>
    </g>
</svg>