<?xml version="1.0" encoding="UTF-8"?>
<svg width="24px" height="24px" viewBox="0 0 24 24" version="1.1" xmlns="http://www.w3.org/2000/svg" xmlns:xlink="http://www.w3.org/1999/xlink">
    <title>edit_icon</title>
    <g id="Talent-Management-UI" stroke="none" stroke-width="1" fill="none" fill-rule="evenodd">
        <g id="06_individual-card_person_B_view-only" transform="translate(-549.000000, -347.000000)" fill="#4174FF" fill-rule="nonzero">
            <g id="Group-31" transform="translate(520.000000, 243.000000)">
                <g id="edit_icon" transform="translate(29.000000, 104.000000)">
                    <path d="M19.7087699,11.9968368 C19.2354979,11.9968368 18.8518494,12.3804854 18.8518494,12.8537573 L18.8518494,21.4227615 C18.8518494,21.8960335 18.4682008,22.279682 17.9949289,22.279682 L2.5707113,22.279682 C2.09743933,22.279682 1.71379079,21.8960335 1.71379079,21.4227615 L1.71379079,4.28470293 C1.71379079,3.81143096 2.09743933,3.42778243 2.5707113,3.42778243 L12.8535565,3.42778243 C13.3268285,3.42778243 13.710477,3.04413389 13.710477,2.57086192 C13.710477,2.09758996 13.3268285,1.71399163 12.8535565,1.71399163 L2.5707113,1.71399163 C1.15094561,1.71399163 0,2.86493724 0,4.28470293 L0,21.4227615 C0,22.8425272 1.15094561,23.9934728 2.5707113,23.9934728 L17.9949791,23.9934728 C19.4147448,23.9934728 20.5656904,22.8425272 20.5656904,21.4227615 L20.5656904,12.8537071 C20.5656904,12.3804854 20.1820418,11.9968368 19.7087699,11.9968368 Z" id="Path"></path>
                    <path d="M23.0330711,0.961104603 C22.4178075,0.345740586 21.5832803,0.000187279766 20.7131046,0.000187279766 C19.8424268,-0.00230962343 19.007046,0.343933054 18.3934895,0.961656904 L7.10630962,12.2478828 C7.01266946,12.3422259 6.9420251,12.4569038 6.89979916,12.5829289 L5.18600837,17.7243515 C5.03643515,18.1733724 5.27919665,18.6585941 5.72821757,18.8081172 C5.81533054,18.8371381 5.90656067,18.8520502 5.9983431,18.8520502 C6.09032636,18.8520502 6.18175732,18.8371381 6.26912134,18.8083682 L11.4105439,17.0945774 C11.5368201,17.0524017 11.6515481,16.9814059 11.74559,16.8872134 L23.0327197,5.60008368 C24.3138075,4.31914644 24.3139582,2.24219247 23.0330711,0.961104603 Z" id="Path"></path>
                </g>
            </g>
        </g>
    </g>
</svg>