<?xml version="1.0" encoding="UTF-8"?>
<svg width="413px" height="138px" viewBox="0 0 413 138" version="1.1" xmlns="http://www.w3.org/2000/svg" xmlns:xlink="http://www.w3.org/1999/xlink">
    <title>SITTM logo</title>
    <g id="Page-1" stroke="none" stroke-width="1" fill="none" fill-rule="evenodd">
        <g id="SITTM-logo_01" transform="translate(-1266.000000, -195.000000)">
            <g id="SITTM-logo" transform="translate(1266.000000, 195.000000)">
                <g id="833394">
                    <path d="M54.1064469,131 C62.5991884,128.006739 70.63982,123.846803 78,118.637845 L0.00450165458,40 C-0.166019581,74.3396846 4.27145257,113.143298 54.1064469,131 Z" id="Path" fill="#4A4A4A"></path>
                    <path d="M107.842192,28.7412542 C107.842192,26.0040386 107.672627,23.2668231 107.672627,20.5292801 C85.9495512,19.8452219 68.8086104,13.3442122 54.2137334,0 C47.9918265,5.82251815 40.8139276,10.5113791 33,13.8573378 L102.581149,84 C108.520774,66.2079354 108.181645,46.5336462 107.842192,28.7412542 Z" id="Path" fill="#00A0BE"></path>
                    <path d="M0.17050187,20.1191543 C0.17050187,22.6936668 0,25.6111411 0,28.357463 L0,30.245395 L83.2764449,114 C90.4391566,107.573081 96.1428035,99.6708356 100,90.8300443 L25.5971648,16 C17.3356633,18.4789169 8.78803221,19.8639041 0.17050187,20.1191543 Z" id="Path" fill="#4A4A4A"></path>
                </g>
                <path d="M149.121693,79.8211968 C150.746393,79.8211968 152.354489,79.5973346 153.946032,79.1496035 C155.537574,78.7018723 156.963309,78.0385769 158.22328,77.1596972 C159.483251,76.2808175 160.494529,75.2029624 161.257143,73.9260995 C162.019757,72.6492366 162.401058,71.165113 162.401058,69.4736842 C162.401058,67.4506027 161.878841,65.6514138 160.834392,64.0760634 C159.789942,62.5007131 158.422231,61.0580455 156.731217,59.7480173 C155.040203,58.4379891 153.108829,57.2026013 150.937037,56.0418169 C148.765245,54.8810324 146.552039,53.7202654 144.297354,52.5594809 C142.04267,51.3986964 139.829464,50.179891 137.657672,48.9030281 C135.48588,47.6261652 133.554506,46.20008 131.863492,44.6247296 C130.172478,43.0493793 128.804767,41.2916463 127.760317,39.351478 C126.715868,37.4113097 126.193651,35.1809787 126.193651,32.6604182 C126.193651,30.1398576 126.666133,27.8017411 127.611111,25.6459986 C128.556089,23.490256 129.940379,21.6247375 131.764021,20.0493872 C133.587663,18.4740368 135.834025,17.238649 138.503175,16.3431867 C141.172324,15.4477244 144.231023,15 147.679365,15 C150.796136,15 153.581293,15.3316477 156.034921,15.9949531 C158.488548,16.6582585 160.64373,17.6366193 162.500529,18.9300649 C164.357329,20.2235104 165.932269,21.8154195 167.225397,23.7058399 C168.518525,25.5962604 169.562959,27.7851354 170.35873,30.2725306 L164.688889,32.8594088 C164.025746,30.8363273 163.180252,28.9873912 162.152381,27.3125451 C161.12451,25.6376989 159.897714,24.2033225 158.471958,23.0093727 C157.046201,21.815423 155.396658,20.8951006 153.52328,20.2483778 C151.649902,19.601655 149.536167,19.2782985 147.182011,19.2782985 C145.093111,19.2782985 143.269496,19.5684902 141.711111,20.1488825 C140.152726,20.7292747 138.851328,21.4920645 137.806878,22.4372747 C136.762429,23.3824849 135.983248,24.4437576 135.469312,25.6211247 C134.955377,26.7984918 134.698413,28.0007148 134.698413,29.2278298 C134.698413,30.9524239 135.228919,32.5360418 136.289947,33.9787311 C137.350975,35.4214203 138.760132,36.781176 140.51746,38.0580389 C142.274788,39.3349018 144.272476,40.5702896 146.510582,41.7642394 C148.748688,42.9581891 151.028207,44.1687033 153.349206,45.3958183 C155.670206,46.6229333 157.949724,47.8997771 160.187831,49.2263879 C162.425937,50.5529987 164.423624,52.0039575 166.180952,53.5793079 C167.93828,55.1546582 169.347437,56.8792264 170.408466,58.7530642 C171.469494,60.6269019 172,62.7245738 172,65.0461428 C172,67.6661991 171.50265,70.1286835 170.507937,72.4336698 C169.513223,74.7386561 168.021174,76.7451248 166.031746,78.4531363 C164.042318,80.1611477 161.572149,81.5126122 158.621164,82.5075703 C155.670179,83.5025284 152.238468,84 148.325926,84 C145.142841,84 142.307949,83.6517699 139.821164,82.9552992 C137.334379,82.2588285 135.137752,81.247303 133.231217,79.9206921 C131.324682,78.5940813 129.691718,76.9772986 128.332275,75.0702956 C126.972833,73.1632926 125.862085,70.9827087 125,68.5284787 L130.918519,66.0908435 C131.614818,68.2465861 132.551493,70.1701429 133.728571,71.8615717 C134.90565,73.5530005 136.273361,74.987377 137.831746,76.1647441 C139.390131,77.3421111 141.122565,78.2458512 143.029101,78.8759913 C144.935636,79.5061315 146.96648,79.8211968 149.121693,79.8211968 Z M187,17 L198,17 L198,82 L187,82 L187,17 Z M267,17 L267,21.2156863 L243.46661,21.2156863 L243.46661,82 L232.53339,82 L232.53339,21.2156863 L209,21.2156863 L209,17 L267,17 Z M329,17 L329,21.2156863 L305.46661,21.2156863 L305.46661,82 L294.53339,82 L294.53339,21.2156863 L271,21.2156863 L271,17 L329,17 Z M340,17 L351.208081,17 L376.573737,66.8529412 L377.114478,66.8529412 L401.988552,17 L413,17 L413,82 L401.988552,82 L401.988552,28.7156863 L401.644444,28.7156863 L374.902357,82 L372.641077,82 L345.60404,29.1568627 L344.866667,29.1568627 L344.866667,82 L340,82 L340,17 Z" id="SITTM" fill="#4A4A4A"></path>
                <path d="M178.3875,109.336 C179.0735,109.336 179.763,109.2555 180.456,109.0945 C181.149,108.9335 181.7755,108.6745 182.3355,108.3175 C182.8955,107.9605 183.354,107.4985 183.711,106.9315 C184.068,106.3645 184.2465,105.682 184.2465,104.884 C184.2465,104.142 184.11,103.526 183.837,103.036 C183.564,102.546 183.2,102.14 182.745,101.818 C182.29,101.496 181.7755,101.2405 181.2015,101.0515 C180.6275,100.8625 180.043,100.698 179.448,100.558 C178.853,100.418 178.2685,100.2885 177.6945,100.1695 C177.1205,100.0505 176.606,99.9 176.151,99.718 C175.696,99.536 175.332,99.3015 175.059,99.0145 C174.786,98.7275 174.6495,98.353 174.6495,97.891 C174.6495,97.401 174.744,96.9915 174.933,96.6625 C175.122,96.3335 175.374,96.071 175.689,95.875 C176.004,95.679 176.3645,95.539 176.7705,95.455 C177.1765,95.371 177.5895,95.329 178.0095,95.329 C179.0455,95.329 179.896,95.5705 180.561,96.0535 C181.226,96.5365 181.6145,97.317 181.7265,98.395 L183.6165,98.395 C183.5885,97.569 183.431,96.8585 183.144,96.2635 C182.857,95.6685 182.465,95.175 181.968,94.783 C181.471,94.391 180.8935,94.104 180.2355,93.922 C179.5775,93.74 178.8635,93.649 178.0935,93.649 C177.4075,93.649 176.739,93.7365 176.088,93.9115 C175.437,94.0865 174.856,94.3525 174.345,94.7095 C173.834,95.0665 173.4245,95.5215 173.1165,96.0745 C172.8085,96.6275 172.6545,97.282 172.6545,98.038 C172.6545,98.724 172.791,99.2945 173.064,99.7495 C173.337,100.2045 173.701,100.5755 174.156,100.8625 C174.611,101.1495 175.1255,101.3805 175.6995,101.5555 C176.2735,101.7305 176.858,101.8845 177.453,102.0175 C178.048,102.1505 178.6325,102.28 179.2065,102.406 C179.7805,102.532 180.295,102.6965 180.75,102.8995 C181.205,103.1025 181.569,103.365 181.842,103.687 C182.115,104.009 182.2515,104.429 182.2515,104.947 C182.2515,105.493 182.1395,105.941 181.9155,106.291 C181.6915,106.641 181.3975,106.9175 181.0335,107.1205 C180.6695,107.3235 180.26,107.467 179.805,107.551 C179.35,107.635 178.8985,107.677 178.4505,107.677 C177.8905,107.677 177.3445,107.607 176.8125,107.467 C176.2805,107.327 175.815,107.11 175.416,106.816 C175.017,106.522 174.695,106.1475 174.45,105.6925 C174.205,105.2375 174.0825,104.695 174.0825,104.065 L172.1925,104.065 C172.1925,104.975 172.357,105.7625 172.686,106.4275 C173.015,107.0925 173.463,107.6385 174.03,108.0655 C174.597,108.4925 175.255,108.811 176.004,109.021 C176.753,109.231 177.5475,109.336 178.3875,109.336 Z M190.9875,109.231 C192.2195,109.231 193.2415,108.923 194.0535,108.307 C194.8655,107.691 195.3905,106.774 195.6285,105.556 L193.8645,105.556 C193.7105,106.27 193.392,106.802 192.909,107.152 C192.426,107.502 191.8065,107.677 191.0505,107.677 C190.4625,107.677 189.9515,107.579 189.5175,107.383 C189.0835,107.187 188.7265,106.9245 188.4465,106.5955 C188.1665,106.2665 187.9635,105.8885 187.8375,105.4615 C187.7115,105.0345 187.6555,104.583 187.6695,104.107 L195.7965,104.107 C195.8245,103.449 195.765,102.756 195.618,102.028 C195.471,101.3 195.205,100.628 194.82,100.012 C194.435,99.396 193.924,98.8885 193.287,98.4895 C192.65,98.0905 191.8485,97.891 190.8825,97.891 C190.1405,97.891 189.458,98.031 188.835,98.311 C188.212,98.591 187.673,98.983 187.218,99.487 C186.763,99.991 186.4095,100.586 186.1575,101.272 C185.9055,101.958 185.7795,102.714 185.7795,103.54 C185.8075,104.366 185.93,105.129 186.147,105.829 C186.364,106.529 186.6895,107.131 187.1235,107.635 C187.5575,108.139 188.093,108.531 188.73,108.811 C189.367,109.091 190.1195,109.231 190.9875,109.231 Z M193.9065,102.532 L187.6695,102.532 C187.6975,102.112 187.7885,101.7165 187.9425,101.3455 C188.0965,100.9745 188.3065,100.649 188.5725,100.369 C188.8385,100.089 189.157,99.8685 189.528,99.7075 C189.899,99.5465 190.3155,99.466 190.7775,99.466 C191.2255,99.466 191.635,99.5465 192.006,99.7075 C192.377,99.8685 192.699,100.0855 192.972,100.3585 C193.245,100.6315 193.462,100.957 193.623,101.335 C193.784,101.713 193.8785,102.112 193.9065,102.532 Z M202.1385,109.231 C203.5245,109.231 204.62,108.867 205.425,108.139 C206.23,107.411 206.7305,106.375 206.9265,105.031 L205.0995,105.031 C204.9875,105.871 204.683,106.522 204.186,106.984 C203.689,107.446 202.9995,107.677 202.1175,107.677 C201.5575,107.677 201.0745,107.565 200.6685,107.341 C200.2625,107.117 199.9335,106.8195 199.6815,106.4485 C199.4295,106.0775 199.244,105.654 199.125,105.178 C199.006,104.702 198.9465,104.212 198.9465,103.708 C198.9465,103.162 199.0025,102.6335 199.1145,102.1225 C199.2265,101.6115 199.412,101.16 199.671,100.768 C199.93,100.376 200.2765,100.061 200.7105,99.823 C201.1445,99.585 201.6835,99.466 202.3275,99.466 C203.0835,99.466 203.6855,99.655 204.1335,100.033 C204.5815,100.411 204.8755,100.943 205.0155,101.629 L206.8635,101.629 C206.7935,100.985 206.6255,100.4285 206.3595,99.9595 C206.0935,99.4905 205.754,99.102 205.341,98.794 C204.928,98.486 204.452,98.2585 203.913,98.1115 C203.374,97.9645 202.7965,97.891 202.1805,97.891 C201.3265,97.891 200.5775,98.0415 199.9335,98.3425 C199.2895,98.6435 198.754,99.0565 198.327,99.5815 C197.9,100.1065 197.5815,100.7225 197.3715,101.4295 C197.1615,102.1365 197.0565,102.896 197.0565,103.708 C197.0565,104.52 197.165,105.2655 197.382,105.9445 C197.599,106.6235 197.921,107.208 198.348,107.698 C198.775,108.188 199.307,108.566 199.944,108.832 C200.581,109.098 201.3125,109.231 202.1385,109.231 Z M212.6595,109.231 C213.4575,109.231 214.1505,109.0735 214.7385,108.7585 C215.3265,108.4435 215.8095,107.95 216.1875,107.278 L216.2295,107.278 L216.2295,109 L217.9095,109 L217.9095,98.143 L216.1245,98.143 L216.1245,104.275 C216.1245,104.765 216.058,105.2165 215.925,105.6295 C215.792,106.0425 215.5925,106.403 215.3265,106.711 C215.0605,107.019 214.728,107.257 214.329,107.425 C213.93,107.593 213.4575,107.677 212.9115,107.677 C212.2255,107.677 211.6865,107.481 211.2945,107.089 C210.9025,106.697 210.7065,106.165 210.7065,105.493 L210.7065,98.143 L208.9215,98.143 L208.9215,105.283 C208.9215,105.871 208.981,106.4065 209.1,106.8895 C209.219,107.3725 209.4255,107.789 209.7195,108.139 C210.0135,108.489 210.3985,108.7585 210.8745,108.9475 C211.3505,109.1365 211.9455,109.231 212.6595,109.231 Z M222.3195,109 L222.3195,104.17 C222.3195,103.47 222.3895,102.8505 222.5295,102.3115 C222.6695,101.7725 222.8935,101.314 223.2015,100.936 C223.5095,100.558 223.9155,100.271 224.4195,100.075 C224.9235,99.879 225.5325,99.781 226.2465,99.781 L226.2465,97.891 C225.2805,97.863 224.4825,98.059 223.8525,98.479 C223.2225,98.899 222.6905,99.55 222.2565,100.432 L222.2145,100.432 L222.2145,98.143 L220.5345,98.143 L220.5345,109 L222.3195,109 Z M232.2105,109.231 C233.4425,109.231 234.4645,108.923 235.2765,108.307 C236.0885,107.691 236.6135,106.774 236.8515,105.556 L235.0875,105.556 C234.9335,106.27 234.615,106.802 234.132,107.152 C233.649,107.502 233.0295,107.677 232.2735,107.677 C231.6855,107.677 231.1745,107.579 230.7405,107.383 C230.3065,107.187 229.9495,106.9245 229.6695,106.5955 C229.3895,106.2665 229.1865,105.8885 229.0605,105.4615 C228.9345,105.0345 228.8785,104.583 228.8925,104.107 L237.0195,104.107 C237.0475,103.449 236.988,102.756 236.841,102.028 C236.694,101.3 236.428,100.628 236.043,100.012 C235.658,99.396 235.147,98.8885 234.51,98.4895 C233.873,98.0905 233.0715,97.891 232.1055,97.891 C231.3635,97.891 230.681,98.031 230.058,98.311 C229.435,98.591 228.896,98.983 228.441,99.487 C227.986,99.991 227.6325,100.586 227.3805,101.272 C227.1285,101.958 227.0025,102.714 227.0025,103.54 C227.0305,104.366 227.153,105.129 227.37,105.829 C227.587,106.529 227.9125,107.131 228.3465,107.635 C228.7805,108.139 229.316,108.531 229.953,108.811 C230.59,109.091 231.3425,109.231 232.2105,109.231 Z M235.1295,102.532 L228.8925,102.532 C228.9205,102.112 229.0115,101.7165 229.1655,101.3455 C229.3195,100.9745 229.5295,100.649 229.7955,100.369 C230.0615,100.089 230.38,99.8685 230.751,99.7075 C231.122,99.5465 231.5385,99.466 232.0005,99.466 C232.4485,99.466 232.858,99.5465 233.229,99.7075 C233.6,99.8685 233.922,100.0855 234.195,100.3585 C234.468,100.6315 234.685,100.957 234.846,101.335 C235.007,101.713 235.1015,102.112 235.1295,102.532 Z M247.0785,109 L247.0785,94.006 L245.0835,94.006 L245.0835,109 L247.0785,109 Z M251.9295,109 L251.9295,102.868 C251.9295,102.378 251.996,101.9265 252.129,101.5135 C252.262,101.1005 252.4615,100.74 252.7275,100.432 C252.9935,100.124 253.326,99.886 253.725,99.718 C254.124,99.55 254.5965,99.466 255.1425,99.466 C255.8285,99.466 256.3675,99.662 256.7595,100.054 C257.1515,100.446 257.3475,100.978 257.3475,101.65 L257.3475,109 L259.1325,109 L259.1325,101.86 C259.1325,101.272 259.073,100.7365 258.954,100.2535 C258.835,99.7705 258.6285,99.354 258.3345,99.004 C258.0405,98.654 257.6555,98.381 257.1795,98.185 C256.7035,97.989 256.1085,97.891 255.3945,97.891 C253.7845,97.891 252.6085,98.549 251.8665,99.865 L251.8245,99.865 L251.8245,98.143 L250.1445,98.143 L250.1445,109 L251.9295,109 Z M264.3405,109 L264.3405,99.718 L266.4405,99.718 L266.4405,98.143 L264.3405,98.143 L264.3405,96.631 C264.3405,96.155 264.4595,95.833 264.6975,95.665 C264.9355,95.497 265.2715,95.413 265.7055,95.413 C265.8595,95.413 266.0275,95.4235 266.2095,95.4445 C266.3915,95.4655 266.5595,95.504 266.7135,95.56 L266.7135,94.006 C266.5455,93.95 266.353,93.908 266.136,93.88 C265.919,93.852 265.7265,93.838 265.5585,93.838 C264.5785,93.838 263.833,94.0655 263.322,94.5205 C262.811,94.9755 262.5555,95.644 262.5555,96.526 L262.5555,98.143 L260.7285,98.143 L260.7285,99.718 L262.5555,99.718 L262.5555,109 L264.3405,109 Z M269.7585,109 L269.7585,104.17 C269.7585,103.47 269.8285,102.8505 269.9685,102.3115 C270.1085,101.7725 270.3325,101.314 270.6405,100.936 C270.9485,100.558 271.3545,100.271 271.8585,100.075 C272.3625,99.879 272.9715,99.781 273.6855,99.781 L273.6855,97.891 C272.7195,97.863 271.9215,98.059 271.2915,98.479 C270.6615,98.899 270.1295,99.55 269.6955,100.432 L269.6535,100.432 L269.6535,98.143 L267.9735,98.143 L267.9735,109 L269.7585,109 Z M283.3665,109.231 C283.9125,109.231 284.3395,109.14 284.6475,108.958 L284.6475,108.958 L284.6475,107.572 C284.4375,107.642 284.2555,107.677 284.1015,107.677 C283.8215,107.677 283.657,107.579 283.608,107.383 C283.559,107.187 283.5345,106.879 283.5345,106.459 L283.5345,106.459 L283.5345,100.873 C283.5345,100.243 283.4155,99.732 283.1775,99.34 C282.9395,98.948 282.6245,98.6435 282.2325,98.4265 C281.8405,98.2095 281.403,98.066 280.92,97.996 C280.437,97.926 279.9505,97.891 279.4605,97.891 C278.8445,97.891 278.267,97.954 277.728,98.08 C277.189,98.206 276.7095,98.4125 276.2895,98.6995 C275.8695,98.9865 275.5335,99.361 275.2815,99.823 C275.0295,100.285 274.8895,100.852 274.8615,101.524 L274.8615,101.524 L276.6465,101.524 C276.6885,100.726 276.9615,100.1835 277.4655,99.8965 C277.9695,99.6095 278.5995,99.466 279.3555,99.466 C279.6355,99.466 279.919,99.487 280.206,99.529 C280.493,99.571 280.752,99.655 280.983,99.781 C281.214,99.907 281.403,100.089 281.55,100.327 C281.697,100.565 281.7705,100.88 281.7705,101.272 C281.7705,101.608 281.6725,101.8635 281.4765,102.0385 C281.2805,102.2135 281.0145,102.3465 280.6785,102.4375 C280.3425,102.5285 279.954,102.5985 279.513,102.6475 C279.072,102.6965 278.6065,102.77 278.1165,102.868 C277.6545,102.952 277.203,103.057 276.762,103.183 C276.321,103.309 275.929,103.4945 275.586,103.7395 C275.243,103.9845 274.9665,104.303 274.7565,104.695 C274.5465,105.087 274.4415,105.591 274.4415,106.207 C274.4415,106.753 274.536,107.2185 274.725,107.6035 C274.914,107.9885 275.1695,108.3 275.4915,108.538 C275.8135,108.776 276.195,108.951 276.636,109.063 C277.077,109.175 277.5425,109.231 278.0325,109.231 C278.7885,109.231 279.492,109.1015 280.143,108.8425 C280.794,108.5835 281.3645,108.16 281.8545,107.572 C281.8545,108.16 281.991,108.5835 282.264,108.8425 C282.537,109.1015 282.9045,109.231 283.3665,109.231 Z M278.4315,107.677 C278.1515,107.677 277.8855,107.649 277.6335,107.593 C277.3815,107.537 277.161,107.446 276.972,107.32 C276.783,107.194 276.629,107.0295 276.51,106.8265 C276.391,106.6235 276.3315,106.375 276.3315,106.081 C276.3315,105.633 276.433,105.2795 276.636,105.0205 C276.839,104.7615 277.1015,104.562 277.4235,104.422 C277.7455,104.282 278.1095,104.1805 278.5155,104.1175 C278.9215,104.0545 279.324,103.9985 279.723,103.9495 C280.122,103.9005 280.5035,103.8375 280.8675,103.7605 C281.2315,103.6835 281.5255,103.561 281.7495,103.393 L281.7495,103.393 L281.7495,105.22 C281.7495,105.472 281.6865,105.7415 281.5605,106.0285 C281.4345,106.3155 281.2385,106.5815 280.9725,106.8265 C280.7065,107.0715 280.3635,107.2745 279.9435,107.4355 C279.5235,107.5965 279.0195,107.677 278.4315,107.677 Z M290.2125,109.231 C290.7585,109.231 291.308,109.1785 291.861,109.0735 C292.414,108.9685 292.911,108.783 293.352,108.517 C293.793,108.251 294.15,107.901 294.423,107.467 C294.696,107.033 294.8325,106.487 294.8325,105.829 C294.8325,105.311 294.731,104.877 294.528,104.527 C294.325,104.177 294.059,103.8865 293.73,103.6555 C293.401,103.4245 293.023,103.239 292.596,103.099 C292.169,102.959 291.7315,102.84 291.2835,102.742 C290.8635,102.644 290.4435,102.5495 290.0235,102.4585 C289.6035,102.3675 289.2255,102.2555 288.8895,102.1225 C288.5535,101.9895 288.277,101.8215 288.06,101.6185 C287.843,101.4155 287.7345,101.16 287.7345,100.852 C287.7345,100.572 287.8045,100.3445 287.9445,100.1695 C288.0845,99.9945 288.2665,99.8545 288.4905,99.7495 C288.7145,99.6445 288.963,99.571 289.236,99.529 C289.509,99.487 289.7785,99.466 290.0445,99.466 C290.3385,99.466 290.629,99.4975 290.916,99.5605 C291.203,99.6235 291.4655,99.725 291.7035,99.865 C291.9415,100.005 292.1375,100.1905 292.2915,100.4215 C292.4455,100.6525 292.5365,100.943 292.5645,101.293 L294.3495,101.293 C294.3075,100.635 294.1675,100.0855 293.9295,99.6445 C293.6915,99.2035 293.373,98.8535 292.974,98.5945 C292.575,98.3355 292.1165,98.1535 291.5985,98.0485 C291.0805,97.9435 290.5135,97.891 289.8975,97.891 C289.4215,97.891 288.942,97.9505 288.459,98.0695 C287.976,98.1885 287.542,98.3705 287.157,98.6155 C286.772,98.8605 286.457,99.179 286.212,99.571 C285.967,99.963 285.8445,100.432 285.8445,100.978 C285.8445,101.678 286.0195,102.224 286.3695,102.616 C286.7195,103.008 287.157,103.3125 287.682,103.5295 C288.207,103.7465 288.7775,103.9145 289.3935,104.0335 C290.0095,104.1525 290.58,104.2855 291.105,104.4325 C291.63,104.5795 292.0675,104.772 292.4175,105.01 C292.7675,105.248 292.9425,105.598 292.9425,106.06 C292.9425,106.396 292.8585,106.6725 292.6905,106.8895 C292.5225,107.1065 292.309,107.271 292.05,107.383 C291.791,107.495 291.5075,107.572 291.1995,107.614 C290.8915,107.656 290.5975,107.677 290.3175,107.677 C289.9535,107.677 289.6,107.642 289.257,107.572 C288.914,107.502 288.606,107.3865 288.333,107.2255 C288.06,107.0645 287.8395,106.8475 287.6715,106.5745 C287.5035,106.3015 287.4125,105.969 287.3985,105.577 L285.6135,105.577 C285.6415,106.249 285.7815,106.8195 286.0335,107.2885 C286.2855,107.7575 286.6215,108.1355 287.0415,108.4225 C287.4615,108.7095 287.9445,108.916 288.4905,109.042 C289.0365,109.168 289.6105,109.231 290.2125,109.231 Z M301.4475,109 L301.4475,107.425 L300.6285,107.425 C300.3485,107.425 300.121,107.4145 299.946,107.3935 C299.771,107.3725 299.6345,107.327 299.5365,107.257 C299.4385,107.187 299.372,107.089 299.337,106.963 C299.302,106.837 299.2845,106.669 299.2845,106.459 L299.2845,99.718 L301.4475,99.718 L301.4475,98.143 L299.2845,98.143 L299.2845,94.888 L297.4995,94.888 L297.4995,98.143 L295.6515,98.143 L295.6515,99.718 L297.4995,99.718 L297.4995,106.627 C297.4995,107.131 297.5485,107.537 297.6465,107.845 C297.7445,108.153 297.895,108.391 298.098,108.559 C298.301,108.727 298.567,108.8425 298.896,108.9055 C299.225,108.9685 299.6205,109 300.0825,109 L301.4475,109 Z M305.1435,109 L305.1435,104.17 C305.1435,103.47 305.2135,102.8505 305.3535,102.3115 C305.4935,101.7725 305.7175,101.314 306.0255,100.936 C306.3335,100.558 306.7395,100.271 307.2435,100.075 C307.7475,99.879 308.3565,99.781 309.0705,99.781 L309.0705,97.891 C308.1045,97.863 307.3065,98.059 306.6765,98.479 C306.0465,98.899 305.5145,99.55 305.0805,100.432 L305.0385,100.432 L305.0385,98.143 L303.3585,98.143 L303.3585,109 L305.1435,109 Z M314.1525,109.231 C314.9505,109.231 315.6435,109.0735 316.2315,108.7585 C316.8195,108.4435 317.3025,107.95 317.6805,107.278 L317.7225,107.278 L317.7225,109 L319.4025,109 L319.4025,98.143 L317.6175,98.143 L317.6175,104.275 C317.6175,104.765 317.551,105.2165 317.418,105.6295 C317.285,106.0425 317.0855,106.403 316.8195,106.711 C316.5535,107.019 316.221,107.257 315.822,107.425 C315.423,107.593 314.9505,107.677 314.4045,107.677 C313.7185,107.677 313.1795,107.481 312.7875,107.089 C312.3955,106.697 312.1995,106.165 312.1995,105.493 L312.1995,98.143 L310.4145,98.143 L310.4145,105.283 C310.4145,105.871 310.474,106.4065 310.593,106.8895 C310.712,107.3725 310.9185,107.789 311.2125,108.139 C311.5065,108.489 311.8915,108.7585 312.3675,108.9475 C312.8435,109.1365 313.4385,109.231 314.1525,109.231 Z M326.5845,109.231 C327.9705,109.231 329.066,108.867 329.871,108.139 C330.676,107.411 331.1765,106.375 331.3725,105.031 L329.5455,105.031 C329.4335,105.871 329.129,106.522 328.632,106.984 C328.135,107.446 327.4455,107.677 326.5635,107.677 C326.0035,107.677 325.5205,107.565 325.1145,107.341 C324.7085,107.117 324.3795,106.8195 324.1275,106.4485 C323.8755,106.0775 323.69,105.654 323.571,105.178 C323.452,104.702 323.3925,104.212 323.3925,103.708 C323.3925,103.162 323.4485,102.6335 323.5605,102.1225 C323.6725,101.6115 323.858,101.16 324.117,100.768 C324.376,100.376 324.7225,100.061 325.1565,99.823 C325.5905,99.585 326.1295,99.466 326.7735,99.466 C327.5295,99.466 328.1315,99.655 328.5795,100.033 C329.0275,100.411 329.3215,100.943 329.4615,101.629 L331.3095,101.629 C331.2395,100.985 331.0715,100.4285 330.8055,99.9595 C330.5395,99.4905 330.2,99.102 329.787,98.794 C329.374,98.486 328.898,98.2585 328.359,98.1115 C327.82,97.9645 327.2425,97.891 326.6265,97.891 C325.7725,97.891 325.0235,98.0415 324.3795,98.3425 C323.7355,98.6435 323.2,99.0565 322.773,99.5815 C322.346,100.1065 322.0275,100.7225 321.8175,101.4295 C321.6075,102.1365 321.5025,102.896 321.5025,103.708 C321.5025,104.52 321.611,105.2655 321.828,105.9445 C322.045,106.6235 322.367,107.208 322.794,107.698 C323.221,108.188 323.753,108.566 324.39,108.832 C325.027,109.098 325.7585,109.231 326.5845,109.231 Z M338.0085,109 L338.0085,107.425 L337.1895,107.425 C336.9095,107.425 336.682,107.4145 336.507,107.3935 C336.332,107.3725 336.1955,107.327 336.0975,107.257 C335.9995,107.187 335.933,107.089 335.898,106.963 C335.863,106.837 335.8455,106.669 335.8455,106.459 L335.8455,99.718 L338.0085,99.718 L338.0085,98.143 L335.8455,98.143 L335.8455,94.888 L334.0605,94.888 L334.0605,98.143 L332.2125,98.143 L332.2125,99.718 L334.0605,99.718 L334.0605,106.627 C334.0605,107.131 334.1095,107.537 334.2075,107.845 C334.3055,108.153 334.456,108.391 334.659,108.559 C334.862,108.727 335.128,108.8425 335.457,108.9055 C335.786,108.9685 336.1815,109 336.6435,109 L338.0085,109 Z M343.7205,109.231 C344.5185,109.231 345.2115,109.0735 345.7995,108.7585 C346.3875,108.4435 346.8705,107.95 347.2485,107.278 L347.2905,107.278 L347.2905,109 L348.9705,109 L348.9705,98.143 L347.1855,98.143 L347.1855,104.275 C347.1855,104.765 347.119,105.2165 346.986,105.6295 C346.853,106.0425 346.6535,106.403 346.3875,106.711 C346.1215,107.019 345.789,107.257 345.39,107.425 C344.991,107.593 344.5185,107.677 343.9725,107.677 C343.2865,107.677 342.7475,107.481 342.3555,107.089 C341.9635,106.697 341.7675,106.165 341.7675,105.493 L341.7675,98.143 L339.9825,98.143 L339.9825,105.283 C339.9825,105.871 340.042,106.4065 340.161,106.8895 C340.28,107.3725 340.4865,107.789 340.7805,108.139 C341.0745,108.489 341.4595,108.7585 341.9355,108.9475 C342.4115,109.1365 343.0065,109.231 343.7205,109.231 Z M353.3805,109 L353.3805,104.17 C353.3805,103.47 353.4505,102.8505 353.5905,102.3115 C353.7305,101.7725 353.9545,101.314 354.2625,100.936 C354.5705,100.558 354.9765,100.271 355.4805,100.075 C355.9845,99.879 356.5935,99.781 357.3075,99.781 L357.3075,97.891 C356.3415,97.863 355.5435,98.059 354.9135,98.479 C354.2835,98.899 353.7515,99.55 353.3175,100.432 L353.2755,100.432 L353.2755,98.143 L351.5955,98.143 L351.5955,109 L353.3805,109 Z M363.2715,109.231 C364.5035,109.231 365.5255,108.923 366.3375,108.307 C367.1495,107.691 367.6745,106.774 367.9125,105.556 L366.1485,105.556 C365.9945,106.27 365.676,106.802 365.193,107.152 C364.71,107.502 364.0905,107.677 363.3345,107.677 C362.7465,107.677 362.2355,107.579 361.8015,107.383 C361.3675,107.187 361.0105,106.9245 360.7305,106.5955 C360.4505,106.2665 360.2475,105.8885 360.1215,105.4615 C359.9955,105.0345 359.9395,104.583 359.9535,104.107 L368.0805,104.107 C368.1085,103.449 368.049,102.756 367.902,102.028 C367.755,101.3 367.489,100.628 367.104,100.012 C366.719,99.396 366.208,98.8885 365.571,98.4895 C364.934,98.0905 364.1325,97.891 363.1665,97.891 C362.4245,97.891 361.742,98.031 361.119,98.311 C360.496,98.591 359.957,98.983 359.502,99.487 C359.047,99.991 358.6935,100.586 358.4415,101.272 C358.1895,101.958 358.0635,102.714 358.0635,103.54 C358.0915,104.366 358.214,105.129 358.431,105.829 C358.648,106.529 358.9735,107.131 359.4075,107.635 C359.8415,108.139 360.377,108.531 361.014,108.811 C361.651,109.091 362.4035,109.231 363.2715,109.231 Z M366.1905,102.532 L359.9535,102.532 C359.9815,102.112 360.0725,101.7165 360.2265,101.3455 C360.3805,100.9745 360.5905,100.649 360.8565,100.369 C361.1225,100.089 361.441,99.8685 361.812,99.7075 C362.183,99.5465 362.5995,99.466 363.0615,99.466 C363.5095,99.466 363.919,99.5465 364.29,99.7075 C364.661,99.8685 364.983,100.0855 365.256,100.3585 C365.529,100.6315 365.746,100.957 365.907,101.335 C366.068,101.713 366.1625,102.112 366.1905,102.532 Z M135.831,133 L135.831,119.686 L140.829,119.686 L140.829,118.006 L128.838,118.006 L128.838,119.686 L133.836,119.686 L133.836,133 L135.831,133 Z M146.814,133.231 C148.046,133.231 149.068,132.923 149.88,132.307 C150.692,131.691 151.217,130.774 151.455,129.556 L149.691,129.556 C149.537,130.27 149.2185,130.802 148.7355,131.152 C148.2525,131.502 147.633,131.677 146.877,131.677 C146.289,131.677 145.778,131.579 145.344,131.383 C144.91,131.187 144.553,130.9245 144.273,130.5955 C143.993,130.2665 143.79,129.8885 143.664,129.4615 C143.538,129.0345 143.482,128.583 143.496,128.107 L151.623,128.107 C151.651,127.449 151.5915,126.756 151.4445,126.028 C151.2975,125.3 151.0315,124.628 150.6465,124.012 C150.2615,123.396 149.7505,122.8885 149.1135,122.4895 C148.4765,122.0905 147.675,121.891 146.709,121.891 C145.967,121.891 145.2845,122.031 144.6615,122.311 C144.0385,122.591 143.4995,122.983 143.0445,123.487 C142.5895,123.991 142.236,124.586 141.984,125.272 C141.732,125.958 141.606,126.714 141.606,127.54 C141.634,128.366 141.7565,129.129 141.9735,129.829 C142.1905,130.529 142.516,131.131 142.95,131.635 C143.384,132.139 143.9195,132.531 144.5565,132.811 C145.1935,133.091 145.946,133.231 146.814,133.231 Z M149.733,126.532 L143.496,126.532 C143.524,126.112 143.615,125.7165 143.769,125.3455 C143.923,124.9745 144.133,124.649 144.399,124.369 C144.665,124.089 144.9835,123.8685 145.3545,123.7075 C145.7255,123.5465 146.142,123.466 146.604,123.466 C147.052,123.466 147.4615,123.5465 147.8325,123.7075 C148.2035,123.8685 148.5255,124.0855 148.7985,124.3585 C149.0715,124.6315 149.2885,124.957 149.4495,125.335 C149.6105,125.713 149.705,126.112 149.733,126.532 Z M157.965,133.231 C159.351,133.231 160.4465,132.867 161.2515,132.139 C162.0565,131.411 162.557,130.375 162.753,129.031 L160.926,129.031 C160.814,129.871 160.5095,130.522 160.0125,130.984 C159.5155,131.446 158.826,131.677 157.944,131.677 C157.384,131.677 156.901,131.565 156.495,131.341 C156.089,131.117 155.76,130.8195 155.508,130.4485 C155.256,130.0775 155.0705,129.654 154.9515,129.178 C154.8325,128.702 154.773,128.212 154.773,127.708 C154.773,127.162 154.829,126.6335 154.941,126.1225 C155.053,125.6115 155.2385,125.16 155.4975,124.768 C155.7565,124.376 156.103,124.061 156.537,123.823 C156.971,123.585 157.51,123.466 158.154,123.466 C158.91,123.466 159.512,123.655 159.96,124.033 C160.408,124.411 160.702,124.943 160.842,125.629 L162.69,125.629 C162.62,124.985 162.452,124.4285 162.186,123.9595 C161.92,123.4905 161.5805,123.102 161.1675,122.794 C160.7545,122.486 160.2785,122.2585 159.7395,122.1115 C159.2005,121.9645 158.623,121.891 158.007,121.891 C157.153,121.891 156.404,122.0415 155.76,122.3425 C155.116,122.6435 154.5805,123.0565 154.1535,123.5815 C153.7265,124.1065 153.408,124.7225 153.198,125.4295 C152.988,126.1365 152.883,126.896 152.883,127.708 C152.883,128.52 152.9915,129.2655 153.2085,129.9445 C153.4255,130.6235 153.7475,131.208 154.1745,131.698 C154.6015,132.188 155.1335,132.566 155.7705,132.832 C156.4075,133.098 157.139,133.231 157.965,133.231 Z M166.533,133 L166.533,126.868 C166.533,126.378 166.5995,125.9265 166.7325,125.5135 C166.8655,125.1005 167.065,124.74 167.331,124.432 C167.597,124.124 167.9295,123.886 168.3285,123.718 C168.7275,123.55 169.2,123.466 169.746,123.466 C170.432,123.466 170.971,123.662 171.363,124.054 C171.755,124.446 171.951,124.978 171.951,125.65 L171.951,133 L173.736,133 L173.736,125.86 C173.736,125.272 173.6765,124.7365 173.5575,124.2535 C173.4385,123.7705 173.232,123.354 172.938,123.004 C172.644,122.654 172.259,122.381 171.783,122.185 C171.307,121.989 170.712,121.891 169.998,121.891 C169.676,121.891 169.3435,121.926 169.0005,121.996 C168.6575,122.066 168.3285,122.1745 168.0135,122.3215 C167.6985,122.4685 167.415,122.6575 167.163,122.8885 C166.911,123.1195 166.715,123.403 166.575,123.739 L166.533,123.739 L166.533,118.006 L164.748,118.006 L164.748,133 L166.533,133 Z M178.209,133 L178.209,126.868 C178.209,126.378 178.2755,125.9265 178.4085,125.5135 C178.5415,125.1005 178.741,124.74 179.007,124.432 C179.273,124.124 179.6055,123.886 180.0045,123.718 C180.4035,123.55 180.876,123.466 181.422,123.466 C182.108,123.466 182.647,123.662 183.039,124.054 C183.431,124.446 183.627,124.978 183.627,125.65 L183.627,133 L185.412,133 L185.412,125.86 C185.412,125.272 185.3525,124.7365 185.2335,124.2535 C185.1145,123.7705 184.908,123.354 184.614,123.004 C184.32,122.654 183.935,122.381 183.459,122.185 C182.983,121.989 182.388,121.891 181.674,121.891 C180.064,121.891 178.888,122.549 178.146,123.865 L178.104,123.865 L178.104,122.143 L176.424,122.143 L176.424,133 L178.209,133 Z M189.99,120.19 L189.99,118.006 L188.205,118.006 L188.205,120.19 L189.99,120.19 Z M189.99,133 L189.99,122.143 L188.205,122.143 L188.205,133 L189.99,133 Z M197.256,133.231 C198.642,133.231 199.7375,132.867 200.5425,132.139 C201.3475,131.411 201.848,130.375 202.044,129.031 L200.217,129.031 C200.105,129.871 199.8005,130.522 199.3035,130.984 C198.8065,131.446 198.117,131.677 197.235,131.677 C196.675,131.677 196.192,131.565 195.786,131.341 C195.38,131.117 195.051,130.8195 194.799,130.4485 C194.547,130.0775 194.3615,129.654 194.2425,129.178 C194.1235,128.702 194.064,128.212 194.064,127.708 C194.064,127.162 194.12,126.6335 194.232,126.1225 C194.344,125.6115 194.5295,125.16 194.7885,124.768 C195.0475,124.376 195.394,124.061 195.828,123.823 C196.262,123.585 196.801,123.466 197.445,123.466 C198.201,123.466 198.803,123.655 199.251,124.033 C199.699,124.411 199.993,124.943 200.133,125.629 L201.981,125.629 C201.911,124.985 201.743,124.4285 201.477,123.9595 C201.211,123.4905 200.8715,123.102 200.4585,122.794 C200.0455,122.486 199.5695,122.2585 199.0305,122.1115 C198.4915,121.9645 197.914,121.891 197.298,121.891 C196.444,121.891 195.695,122.0415 195.051,122.3425 C194.407,122.6435 193.8715,123.0565 193.4445,123.5815 C193.0175,124.1065 192.699,124.7225 192.489,125.4295 C192.279,126.1365 192.174,126.896 192.174,127.708 C192.174,128.52 192.2825,129.2655 192.4995,129.9445 C192.7165,130.6235 193.0385,131.208 193.4655,131.698 C193.8925,132.188 194.4245,132.566 195.0615,132.832 C195.6985,133.098 196.43,133.231 197.256,133.231 Z M212.376,133.231 C212.922,133.231 213.349,133.14 213.657,132.958 L213.657,132.958 L213.657,131.572 C213.447,131.642 213.265,131.677 213.111,131.677 C212.831,131.677 212.6665,131.579 212.6175,131.383 C212.5685,131.187 212.544,130.879 212.544,130.459 L212.544,130.459 L212.544,124.873 C212.544,124.243 212.425,123.732 212.187,123.34 C211.949,122.948 211.634,122.6435 211.242,122.4265 C210.85,122.2095 210.4125,122.066 209.9295,121.996 C209.4465,121.926 208.96,121.891 208.47,121.891 C207.854,121.891 207.2765,121.954 206.7375,122.08 C206.1985,122.206 205.719,122.4125 205.299,122.6995 C204.879,122.9865 204.543,123.361 204.291,123.823 C204.039,124.285 203.899,124.852 203.871,125.524 L203.871,125.524 L205.656,125.524 C205.698,124.726 205.971,124.1835 206.475,123.8965 C206.979,123.6095 207.609,123.466 208.365,123.466 C208.645,123.466 208.9285,123.487 209.2155,123.529 C209.5025,123.571 209.7615,123.655 209.9925,123.781 C210.2235,123.907 210.4125,124.089 210.5595,124.327 C210.7065,124.565 210.78,124.88 210.78,125.272 C210.78,125.608 210.682,125.8635 210.486,126.0385 C210.29,126.2135 210.024,126.3465 209.688,126.4375 C209.352,126.5285 208.9635,126.5985 208.5225,126.6475 C208.0815,126.6965 207.616,126.77 207.126,126.868 C206.664,126.952 206.2125,127.057 205.7715,127.183 C205.3305,127.309 204.9385,127.4945 204.5955,127.7395 C204.2525,127.9845 203.976,128.303 203.766,128.695 C203.556,129.087 203.451,129.591 203.451,130.207 C203.451,130.753 203.5455,131.2185 203.7345,131.6035 C203.9235,131.9885 204.179,132.3 204.501,132.538 C204.823,132.776 205.2045,132.951 205.6455,133.063 C206.0865,133.175 206.552,133.231 207.042,133.231 C207.798,133.231 208.5015,133.1015 209.1525,132.8425 C209.8035,132.5835 210.374,132.16 210.864,131.572 C210.864,132.16 211.0005,132.5835 211.2735,132.8425 C211.5465,133.1015 211.914,133.231 212.376,133.231 Z M207.441,131.677 C207.161,131.677 206.895,131.649 206.643,131.593 C206.391,131.537 206.1705,131.446 205.9815,131.32 C205.7925,131.194 205.6385,131.0295 205.5195,130.8265 C205.4005,130.6235 205.341,130.375 205.341,130.081 C205.341,129.633 205.4425,129.2795 205.6455,129.0205 C205.8485,128.7615 206.111,128.562 206.433,128.422 C206.755,128.282 207.119,128.1805 207.525,128.1175 C207.931,128.0545 208.3335,127.9985 208.7325,127.9495 C209.1315,127.9005 209.513,127.8375 209.877,127.7605 C210.241,127.6835 210.535,127.561 210.759,127.393 L210.759,127.393 L210.759,129.22 C210.759,129.472 210.696,129.7415 210.57,130.0285 C210.444,130.3155 210.248,130.5815 209.982,130.8265 C209.716,131.0715 209.373,131.2745 208.953,131.4355 C208.533,131.5965 208.029,131.677 207.441,131.677 Z M217.206,133 L217.206,118.006 L215.421,118.006 L215.421,133 L217.206,133 Z M231.507,133 L231.507,119.686 L236.505,119.686 L236.505,118.006 L224.514,118.006 L224.514,119.686 L229.512,119.686 L229.512,133 L231.507,133 Z M246.207,133.231 C246.753,133.231 247.18,133.14 247.488,132.958 L247.488,132.958 L247.488,131.572 C247.278,131.642 247.096,131.677 246.942,131.677 C246.662,131.677 246.4975,131.579 246.4485,131.383 C246.3995,131.187 246.375,130.879 246.375,130.459 L246.375,130.459 L246.375,124.873 C246.375,124.243 246.256,123.732 246.018,123.34 C245.78,122.948 245.465,122.6435 245.073,122.4265 C244.681,122.2095 244.2435,122.066 243.7605,121.996 C243.2775,121.926 242.791,121.891 242.301,121.891 C241.685,121.891 241.1075,121.954 240.5685,122.08 C240.0295,122.206 239.55,122.4125 239.13,122.6995 C238.71,122.9865 238.374,123.361 238.122,123.823 C237.87,124.285 237.73,124.852 237.702,125.524 L237.702,125.524 L239.487,125.524 C239.529,124.726 239.802,124.1835 240.306,123.8965 C240.81,123.6095 241.44,123.466 242.196,123.466 C242.476,123.466 242.7595,123.487 243.0465,123.529 C243.3335,123.571 243.5925,123.655 243.8235,123.781 C244.0545,123.907 244.2435,124.089 244.3905,124.327 C244.5375,124.565 244.611,124.88 244.611,125.272 C244.611,125.608 244.513,125.8635 244.317,126.0385 C244.121,126.2135 243.855,126.3465 243.519,126.4375 C243.183,126.5285 242.7945,126.5985 242.3535,126.6475 C241.9125,126.6965 241.447,126.77 240.957,126.868 C240.495,126.952 240.0435,127.057 239.6025,127.183 C239.1615,127.309 238.7695,127.4945 238.4265,127.7395 C238.0835,127.9845 237.807,128.303 237.597,128.695 C237.387,129.087 237.282,129.591 237.282,130.207 C237.282,130.753 237.3765,131.2185 237.5655,131.6035 C237.7545,131.9885 238.01,132.3 238.332,132.538 C238.654,132.776 239.0355,132.951 239.4765,133.063 C239.9175,133.175 240.383,133.231 240.873,133.231 C241.629,133.231 242.3325,133.1015 242.9835,132.8425 C243.6345,132.5835 244.205,132.16 244.695,131.572 C244.695,132.16 244.8315,132.5835 245.1045,132.8425 C245.3775,133.1015 245.745,133.231 246.207,133.231 Z M241.272,131.677 C240.992,131.677 240.726,131.649 240.474,131.593 C240.222,131.537 240.0015,131.446 239.8125,131.32 C239.6235,131.194 239.4695,131.0295 239.3505,130.8265 C239.2315,130.6235 239.172,130.375 239.172,130.081 C239.172,129.633 239.2735,129.2795 239.4765,129.0205 C239.6795,128.7615 239.942,128.562 240.264,128.422 C240.586,128.282 240.95,128.1805 241.356,128.1175 C241.762,128.0545 242.1645,127.9985 242.5635,127.9495 C242.9625,127.9005 243.344,127.8375 243.708,127.7605 C244.072,127.6835 244.366,127.561 244.59,127.393 L244.59,127.393 L244.59,129.22 C244.59,129.472 244.527,129.7415 244.401,130.0285 C244.275,130.3155 244.079,130.5815 243.813,130.8265 C243.547,131.0715 243.204,131.2745 242.784,131.4355 C242.364,131.5965 241.86,131.677 241.272,131.677 Z M251.037,133 L251.037,118.006 L249.252,118.006 L249.252,133 L251.037,133 Z M258.429,133.231 C259.661,133.231 260.683,132.923 261.495,132.307 C262.307,131.691 262.832,130.774 263.07,129.556 L261.306,129.556 C261.152,130.27 260.8335,130.802 260.3505,131.152 C259.8675,131.502 259.248,131.677 258.492,131.677 C257.904,131.677 257.393,131.579 256.959,131.383 C256.525,131.187 256.168,130.9245 255.888,130.5955 C255.608,130.2665 255.405,129.8885 255.279,129.4615 C255.153,129.0345 255.097,128.583 255.111,128.107 L263.238,128.107 C263.266,127.449 263.2065,126.756 263.0595,126.028 C262.9125,125.3 262.6465,124.628 262.2615,124.012 C261.8765,123.396 261.3655,122.8885 260.7285,122.4895 C260.0915,122.0905 259.29,121.891 258.324,121.891 C257.582,121.891 256.8995,122.031 256.2765,122.311 C255.6535,122.591 255.1145,122.983 254.6595,123.487 C254.2045,123.991 253.851,124.586 253.599,125.272 C253.347,125.958 253.221,126.714 253.221,127.54 C253.249,128.366 253.3715,129.129 253.5885,129.829 C253.8055,130.529 254.131,131.131 254.565,131.635 C254.999,132.139 255.5345,132.531 256.1715,132.811 C256.8085,133.091 257.561,133.231 258.429,133.231 Z M261.348,126.532 L255.111,126.532 C255.139,126.112 255.23,125.7165 255.384,125.3455 C255.538,124.9745 255.748,124.649 256.014,124.369 C256.28,124.089 256.5985,123.8685 256.9695,123.7075 C257.3405,123.5465 257.757,123.466 258.219,123.466 C258.667,123.466 259.0765,123.5465 259.4475,123.7075 C259.8185,123.8685 260.1405,124.0855 260.4135,124.3585 C260.6865,124.6315 260.9035,124.957 261.0645,125.335 C261.2255,125.713 261.32,126.112 261.348,126.532 Z M266.871,133 L266.871,126.868 C266.871,126.378 266.9375,125.9265 267.0705,125.5135 C267.2035,125.1005 267.403,124.74 267.669,124.432 C267.935,124.124 268.2675,123.886 268.6665,123.718 C269.0655,123.55 269.538,123.466 270.084,123.466 C270.77,123.466 271.309,123.662 271.701,124.054 C272.093,124.446 272.289,124.978 272.289,125.65 L272.289,133 L274.074,133 L274.074,125.86 C274.074,125.272 274.0145,124.7365 273.8955,124.2535 C273.7765,123.7705 273.57,123.354 273.276,123.004 C272.982,122.654 272.597,122.381 272.121,122.185 C271.645,121.989 271.05,121.891 270.336,121.891 C268.726,121.891 267.55,122.549 266.808,123.865 L266.766,123.865 L266.766,122.143 L265.086,122.143 L265.086,133 L266.871,133 Z M281.403,133 L281.403,131.425 L280.584,131.425 C280.304,131.425 280.0765,131.4145 279.9015,131.3935 C279.7265,131.3725 279.59,131.327 279.492,131.257 C279.394,131.187 279.3275,131.089 279.2925,130.963 C279.2575,130.837 279.24,130.669 279.24,130.459 L279.24,123.718 L281.403,123.718 L281.403,122.143 L279.24,122.143 L279.24,118.888 L277.455,118.888 L277.455,122.143 L275.607,122.143 L275.607,123.718 L277.455,123.718 L277.455,130.627 C277.455,131.131 277.504,131.537 277.602,131.845 C277.7,132.153 277.8505,132.391 278.0535,132.559 C278.2565,132.727 278.5225,132.8425 278.8515,132.9055 C279.1805,132.9685 279.576,133 280.038,133 L281.403,133 Z M291.441,133 L291.441,120.526 L291.483,120.526 L296.166,133 L297.867,133 L302.55,120.526 L302.592,120.526 L302.592,133 L304.482,133 L304.482,118.006 L301.752,118.006 L297.006,130.606 L292.281,118.006 L289.551,118.006 L289.551,133 L291.441,133 Z M315.843,133.231 C316.389,133.231 316.816,133.14 317.124,132.958 L317.124,132.958 L317.124,131.572 C316.914,131.642 316.732,131.677 316.578,131.677 C316.298,131.677 316.1335,131.579 316.0845,131.383 C316.0355,131.187 316.011,130.879 316.011,130.459 L316.011,130.459 L316.011,124.873 C316.011,124.243 315.892,123.732 315.654,123.34 C315.416,122.948 315.101,122.6435 314.709,122.4265 C314.317,122.2095 313.8795,122.066 313.3965,121.996 C312.9135,121.926 312.427,121.891 311.937,121.891 C311.321,121.891 310.7435,121.954 310.2045,122.08 C309.6655,122.206 309.186,122.4125 308.766,122.6995 C308.346,122.9865 308.01,123.361 307.758,123.823 C307.506,124.285 307.366,124.852 307.338,125.524 L307.338,125.524 L309.123,125.524 C309.165,124.726 309.438,124.1835 309.942,123.8965 C310.446,123.6095 311.076,123.466 311.832,123.466 C312.112,123.466 312.3955,123.487 312.6825,123.529 C312.9695,123.571 313.2285,123.655 313.4595,123.781 C313.6905,123.907 313.8795,124.089 314.0265,124.327 C314.1735,124.565 314.247,124.88 314.247,125.272 C314.247,125.608 314.149,125.8635 313.953,126.0385 C313.757,126.2135 313.491,126.3465 313.155,126.4375 C312.819,126.5285 312.4305,126.5985 311.9895,126.6475 C311.5485,126.6965 311.083,126.77 310.593,126.868 C310.131,126.952 309.6795,127.057 309.2385,127.183 C308.7975,127.309 308.4055,127.4945 308.0625,127.7395 C307.7195,127.9845 307.443,128.303 307.233,128.695 C307.023,129.087 306.918,129.591 306.918,130.207 C306.918,130.753 307.0125,131.2185 307.2015,131.6035 C307.3905,131.9885 307.646,132.3 307.968,132.538 C308.29,132.776 308.6715,132.951 309.1125,133.063 C309.5535,133.175 310.019,133.231 310.509,133.231 C311.265,133.231 311.9685,133.1015 312.6195,132.8425 C313.2705,132.5835 313.841,132.16 314.331,131.572 C314.331,132.16 314.4675,132.5835 314.7405,132.8425 C315.0135,133.1015 315.381,133.231 315.843,133.231 Z M310.908,131.677 C310.628,131.677 310.362,131.649 310.11,131.593 C309.858,131.537 309.6375,131.446 309.4485,131.32 C309.2595,131.194 309.1055,131.0295 308.9865,130.8265 C308.8675,130.6235 308.808,130.375 308.808,130.081 C308.808,129.633 308.9095,129.2795 309.1125,129.0205 C309.3155,128.7615 309.578,128.562 309.9,128.422 C310.222,128.282 310.586,128.1805 310.992,128.1175 C311.398,128.0545 311.8005,127.9985 312.1995,127.9495 C312.5985,127.9005 312.98,127.8375 313.344,127.7605 C313.708,127.6835 314.002,127.561 314.226,127.393 L314.226,127.393 L314.226,129.22 C314.226,129.472 314.163,129.7415 314.037,130.0285 C313.911,130.3155 313.715,130.5815 313.449,130.8265 C313.183,131.0715 312.84,131.2745 312.42,131.4355 C312,131.5965 311.496,131.677 310.908,131.677 Z M320.568,133 L320.568,126.868 C320.568,126.378 320.6345,125.9265 320.7675,125.5135 C320.9005,125.1005 321.1,124.74 321.366,124.432 C321.632,124.124 321.9645,123.886 322.3635,123.718 C322.7625,123.55 323.235,123.466 323.781,123.466 C324.467,123.466 325.006,123.662 325.398,124.054 C325.79,124.446 325.986,124.978 325.986,125.65 L325.986,133 L327.771,133 L327.771,125.86 C327.771,125.272 327.7115,124.7365 327.5925,124.2535 C327.4735,123.7705 327.267,123.354 326.973,123.004 C326.679,122.654 326.294,122.381 325.818,122.185 C325.342,121.989 324.747,121.891 324.033,121.891 C322.423,121.891 321.247,122.549 320.505,123.865 L320.463,123.865 L320.463,122.143 L318.783,122.143 L318.783,133 L320.568,133 Z M338.796,133.231 C339.342,133.231 339.769,133.14 340.077,132.958 L340.077,132.958 L340.077,131.572 C339.867,131.642 339.685,131.677 339.531,131.677 C339.251,131.677 339.0865,131.579 339.0375,131.383 C338.9885,131.187 338.964,130.879 338.964,130.459 L338.964,130.459 L338.964,124.873 C338.964,124.243 338.845,123.732 338.607,123.34 C338.369,122.948 338.054,122.6435 337.662,122.4265 C337.27,122.2095 336.8325,122.066 336.3495,121.996 C335.8665,121.926 335.38,121.891 334.89,121.891 C334.274,121.891 333.6965,121.954 333.1575,122.08 C332.6185,122.206 332.139,122.4125 331.719,122.6995 C331.299,122.9865 330.963,123.361 330.711,123.823 C330.459,124.285 330.319,124.852 330.291,125.524 L330.291,125.524 L332.076,125.524 C332.118,124.726 332.391,124.1835 332.895,123.8965 C333.399,123.6095 334.029,123.466 334.785,123.466 C335.065,123.466 335.3485,123.487 335.6355,123.529 C335.9225,123.571 336.1815,123.655 336.4125,123.781 C336.6435,123.907 336.8325,124.089 336.9795,124.327 C337.1265,124.565 337.2,124.88 337.2,125.272 C337.2,125.608 337.102,125.8635 336.906,126.0385 C336.71,126.2135 336.444,126.3465 336.108,126.4375 C335.772,126.5285 335.3835,126.5985 334.9425,126.6475 C334.5015,126.6965 334.036,126.77 333.546,126.868 C333.084,126.952 332.6325,127.057 332.1915,127.183 C331.7505,127.309 331.3585,127.4945 331.0155,127.7395 C330.6725,127.9845 330.396,128.303 330.186,128.695 C329.976,129.087 329.871,129.591 329.871,130.207 C329.871,130.753 329.9655,131.2185 330.1545,131.6035 C330.3435,131.9885 330.599,132.3 330.921,132.538 C331.243,132.776 331.6245,132.951 332.0655,133.063 C332.5065,133.175 332.972,133.231 333.462,133.231 C334.218,133.231 334.9215,133.1015 335.5725,132.8425 C336.2235,132.5835 336.794,132.16 337.284,131.572 C337.284,132.16 337.4205,132.5835 337.6935,132.8425 C337.9665,133.1015 338.334,133.231 338.796,133.231 Z M333.861,131.677 C333.581,131.677 333.315,131.649 333.063,131.593 C332.811,131.537 332.5905,131.446 332.4015,131.32 C332.2125,131.194 332.0585,131.0295 331.9395,130.8265 C331.8205,130.6235 331.761,130.375 331.761,130.081 C331.761,129.633 331.8625,129.2795 332.0655,129.0205 C332.2685,128.7615 332.531,128.562 332.853,128.422 C333.175,128.282 333.539,128.1805 333.945,128.1175 C334.351,128.0545 334.7535,127.9985 335.1525,127.9495 C335.5515,127.9005 335.933,127.8375 336.297,127.7605 C336.661,127.6835 336.955,127.561 337.179,127.393 L337.179,127.393 L337.179,129.22 C337.179,129.472 337.116,129.7415 336.99,130.0285 C336.864,130.3155 336.668,130.5815 336.402,130.8265 C336.136,131.0715 335.793,131.2745 335.373,131.4355 C334.953,131.5965 334.449,131.677 333.861,131.677 Z M346.062,137.389 C347.798,137.389 349.072,136.948 349.884,136.066 C350.696,135.184 351.102,133.854 351.102,132.076 L351.102,122.143 L349.422,122.143 L349.422,123.697 L349.401,123.697 C349.079,123.095 348.631,122.6435 348.057,122.3425 C347.483,122.0415 346.853,121.891 346.167,121.891 C345.229,121.891 344.438,122.0695 343.794,122.4265 C343.15,122.7835 342.632,123.2385 342.24,123.7915 C341.848,124.3445 341.568,124.9605 341.4,125.6395 C341.232,126.3185 341.148,126.98 341.148,127.624 C341.148,128.366 341.2495,129.0695 341.4525,129.7345 C341.6555,130.3995 341.96,130.9805 342.366,131.4775 C342.772,131.9745 343.276,132.37 343.878,132.664 C344.48,132.958 345.187,133.105 345.999,133.105 C346.699,133.105 347.3605,132.9475 347.9835,132.6325 C348.6065,132.3175 349.072,131.824 349.38,131.152 L349.422,131.152 L349.422,131.866 C349.422,132.468 349.3625,133.021 349.2435,133.525 C349.1245,134.029 348.932,134.4595 348.666,134.8165 C348.4,135.1735 348.064,135.4535 347.658,135.6565 C347.252,135.8595 346.755,135.961 346.167,135.961 C345.873,135.961 345.565,135.9295 345.243,135.8665 C344.921,135.8035 344.6235,135.702 344.3505,135.562 C344.0775,135.422 343.8465,135.24 343.6575,135.016 C343.4685,134.792 343.367,134.519 343.353,134.197 L341.568,134.197 C341.596,134.785 341.75,135.282 342.03,135.688 C342.31,136.094 342.6635,136.423 343.0905,136.675 C343.5175,136.927 343.9935,137.109 344.5185,137.221 C345.0435,137.333 345.558,137.389 346.062,137.389 Z M346.104,131.551 C345.516,131.551 345.026,131.4285 344.634,131.1835 C344.242,130.9385 343.927,130.6165 343.689,130.2175 C343.451,129.8185 343.283,129.374 343.185,128.884 C343.087,128.394 343.038,127.904 343.038,127.414 C343.038,126.896 343.0975,126.399 343.2165,125.923 C343.3355,125.447 343.5245,125.027 343.7835,124.663 C344.0425,124.299 344.375,124.0085 344.781,123.7915 C345.187,123.5745 345.677,123.466 346.251,123.466 C346.811,123.466 347.287,123.578 347.679,123.802 C348.071,124.026 348.3895,124.3235 348.6345,124.6945 C348.8795,125.0655 349.058,125.482 349.17,125.944 C349.282,126.406 349.338,126.875 349.338,127.351 C349.338,127.855 349.2785,128.359 349.1595,128.863 C349.0405,129.367 348.855,129.8185 348.603,130.2175 C348.351,130.6165 348.0185,130.9385 347.6055,131.1835 C347.1925,131.4285 346.692,131.551 346.104,131.551 Z M358.41,133.231 C359.642,133.231 360.664,132.923 361.476,132.307 C362.288,131.691 362.813,130.774 363.051,129.556 L361.287,129.556 C361.133,130.27 360.8145,130.802 360.3315,131.152 C359.8485,131.502 359.229,131.677 358.473,131.677 C357.885,131.677 357.374,131.579 356.94,131.383 C356.506,131.187 356.149,130.9245 355.869,130.5955 C355.589,130.2665 355.386,129.8885 355.26,129.4615 C355.134,129.0345 355.078,128.583 355.092,128.107 L363.219,128.107 C363.247,127.449 363.1875,126.756 363.0405,126.028 C362.8935,125.3 362.6275,124.628 362.2425,124.012 C361.8575,123.396 361.3465,122.8885 360.7095,122.4895 C360.0725,122.0905 359.271,121.891 358.305,121.891 C357.563,121.891 356.8805,122.031 356.2575,122.311 C355.6345,122.591 355.0955,122.983 354.6405,123.487 C354.1855,123.991 353.832,124.586 353.58,125.272 C353.328,125.958 353.202,126.714 353.202,127.54 C353.23,128.366 353.3525,129.129 353.5695,129.829 C353.7865,130.529 354.112,131.131 354.546,131.635 C354.98,132.139 355.5155,132.531 356.1525,132.811 C356.7895,133.091 357.542,133.231 358.41,133.231 Z M361.329,126.532 L355.092,126.532 C355.12,126.112 355.211,125.7165 355.365,125.3455 C355.519,124.9745 355.729,124.649 355.995,124.369 C356.261,124.089 356.5795,123.8685 356.9505,123.7075 C357.3215,123.5465 357.738,123.466 358.2,123.466 C358.648,123.466 359.0575,123.5465 359.4285,123.7075 C359.7995,123.8685 360.1215,124.0855 360.3945,124.3585 C360.6675,124.6315 360.8845,124.957 361.0455,125.335 C361.2065,125.713 361.301,126.112 361.329,126.532 Z M366.852,133 L366.852,126.238 C366.852,126.028 366.9045,125.7655 367.0095,125.4505 C367.1145,125.1355 367.2825,124.831 367.5135,124.537 C367.7445,124.243 368.0455,123.991 368.4165,123.781 C368.7875,123.571 369.232,123.466 369.75,123.466 C370.156,123.466 370.4885,123.5255 370.7475,123.6445 C371.0065,123.7635 371.213,123.9315 371.367,124.1485 C371.521,124.3655 371.6295,124.621 371.6925,124.915 C371.7555,125.209 371.787,125.531 371.787,125.881 L371.787,133 L373.572,133 L373.572,126.238 C373.572,125.398 373.824,124.726 374.328,124.222 C374.832,123.718 375.525,123.466 376.407,123.466 C376.841,123.466 377.1945,123.529 377.4675,123.655 C377.7405,123.781 377.954,123.9525 378.108,124.1695 C378.262,124.3865 378.367,124.642 378.423,124.936 C378.479,125.23 378.507,125.545 378.507,125.881 L378.507,133 L380.292,133 L380.292,125.041 C380.292,124.481 380.2045,124.0015 380.0295,123.6025 C379.8545,123.2035 379.6095,122.878 379.2945,122.626 C378.9795,122.374 378.6015,122.1885 378.1605,122.0695 C377.7195,121.9505 377.226,121.891 376.68,121.891 C375.966,121.891 375.3115,122.052 374.7165,122.374 C374.1215,122.696 373.642,123.151 373.278,123.739 C373.054,123.067 372.669,122.591 372.123,122.311 C371.577,122.031 370.968,121.891 370.296,121.891 C368.77,121.891 367.601,122.507 366.789,123.739 L366.747,123.739 L366.747,122.143 L365.067,122.143 L365.067,133 L366.852,133 Z M387.6,133.231 C388.832,133.231 389.854,132.923 390.666,132.307 C391.478,131.691 392.003,130.774 392.241,129.556 L390.477,129.556 C390.323,130.27 390.0045,130.802 389.5215,131.152 C389.0385,131.502 388.419,131.677 387.663,131.677 C387.075,131.677 386.564,131.579 386.13,131.383 C385.696,131.187 385.339,130.9245 385.059,130.5955 C384.779,130.2665 384.576,129.8885 384.45,129.4615 C384.324,129.0345 384.268,128.583 384.282,128.107 L392.409,128.107 C392.437,127.449 392.3775,126.756 392.2305,126.028 C392.0835,125.3 391.8175,124.628 391.4325,124.012 C391.0475,123.396 390.5365,122.8885 389.8995,122.4895 C389.2625,122.0905 388.461,121.891 387.495,121.891 C386.753,121.891 386.0705,122.031 385.4475,122.311 C384.8245,122.591 384.2855,122.983 383.8305,123.487 C383.3755,123.991 383.022,124.586 382.77,125.272 C382.518,125.958 382.392,126.714 382.392,127.54 C382.42,128.366 382.5425,129.129 382.7595,129.829 C382.9765,130.529 383.302,131.131 383.736,131.635 C384.17,132.139 384.7055,132.531 385.3425,132.811 C385.9795,133.091 386.732,133.231 387.6,133.231 Z M390.519,126.532 L384.282,126.532 C384.31,126.112 384.401,125.7165 384.555,125.3455 C384.709,124.9745 384.919,124.649 385.185,124.369 C385.451,124.089 385.7695,123.8685 386.1405,123.7075 C386.5115,123.5465 386.928,123.466 387.39,123.466 C387.838,123.466 388.2475,123.5465 388.6185,123.7075 C388.9895,123.8685 389.3115,124.0855 389.5845,124.3585 C389.8575,124.6315 390.0745,124.957 390.2355,125.335 C390.3965,125.713 390.491,126.112 390.519,126.532 Z M396.042,133 L396.042,126.868 C396.042,126.378 396.1085,125.9265 396.2415,125.5135 C396.3745,125.1005 396.574,124.74 396.84,124.432 C397.106,124.124 397.4385,123.886 397.8375,123.718 C398.2365,123.55 398.709,123.466 399.255,123.466 C399.941,123.466 400.48,123.662 400.872,124.054 C401.264,124.446 401.46,124.978 401.46,125.65 L401.46,133 L403.245,133 L403.245,125.86 C403.245,125.272 403.1855,124.7365 403.0665,124.2535 C402.9475,123.7705 402.741,123.354 402.447,123.004 C402.153,122.654 401.768,122.381 401.292,122.185 C400.816,121.989 400.221,121.891 399.507,121.891 C397.897,121.891 396.721,122.549 395.979,123.865 L395.937,123.865 L395.937,122.143 L394.257,122.143 L394.257,133 L396.042,133 Z M410.574,133 L410.574,131.425 L409.755,131.425 C409.475,131.425 409.2475,131.4145 409.0725,131.3935 C408.8975,131.3725 408.761,131.327 408.663,131.257 C408.565,131.187 408.4985,131.089 408.4635,130.963 C408.4285,130.837 408.411,130.669 408.411,130.459 L408.411,123.718 L410.574,123.718 L410.574,122.143 L408.411,122.143 L408.411,118.888 L406.626,118.888 L406.626,122.143 L404.778,122.143 L404.778,123.718 L406.626,123.718 L406.626,130.627 C406.626,131.131 406.675,131.537 406.773,131.845 C406.871,132.153 407.0215,132.391 407.2245,132.559 C407.4275,132.727 407.6935,132.8425 408.0225,132.9055 C408.3515,132.9685 408.747,133 409.209,133 L410.574,133 Z" id="SecureInfrastructureTechnicalTalentManagement" fill="#4A4A4A" fill-rule="nonzero"></path>
            </g>
        </g>
    </g>
</svg>