<?xml version="1.0" encoding="UTF-8"?>
<svg width="20px" height="20px" viewBox="0 0 20 20" version="1.1" xmlns="http://www.w3.org/2000/svg" xmlns:xlink="http://www.w3.org/1999/xlink">
    <title>search_icon</title>
    <defs>
        <rect id="path-1" x="0" y="0.0003125" width="20" height="19.9996875"></rect>
        <rect id="path-3" x="0" y="0.0003125" width="20" height="19.9996875"></rect>
        <rect id="path-5" x="0" y="0.0003125" width="20" height="19.9996875"></rect>
    </defs>
    <g id="Talent-Management-UI" stroke="none" stroke-width="1" fill="none" fill-rule="evenodd">
        <g id="03_individual-card_A" transform="translate(-1193.000000, -296.000000)">
            <g id="Managers-&amp;-Team-Info" transform="translate(48.000000, 160.000000)">
                <g id="Group-38" transform="translate(0.000000, 81.000000)">
                    <g id="Group-10" transform="translate(1135.000000, 43.000000)">
                        <g id="search_icon" transform="translate(10.000000, 12.000000)">
                            <g id="Clipped">
                                <mask id="mask-2" fill="white">
                                    <use xlink:href="#path-1"></use>
                                </mask>
                                <g id="SVGID_5_"></g>
                                <path d="M19.99125,7.00875 C19.991875,6.96375 20,6.920625 20,6.875 C20,6.761875 19.983125,6.654375 19.978125,6.5425 C19.97375,6.435625 19.97875,6.32875 19.9696875,6.221875 C19.965,6.178125 19.95375,6.135625 19.9490625,6.091875 C19.9321875,5.94125 19.9046875,5.79375 19.8784375,5.645625 C19.85125,5.496875 19.82375,5.348125 19.7871875,5.2 C19.7746875,5.150625 19.77,5.098125 19.75625,5.04875 C19.729375,4.951875 19.689375,4.863125 19.65875,4.76875 C19.6278125,4.674375 19.60875,4.57875 19.5740625,4.484375 C19.5559375,4.436875 19.5296875,4.391875 19.5103125,4.34375 C19.4546875,4.2025 19.3896875,4.065625 19.3240625,3.92875 C19.2596875,3.793125 19.1953125,3.6575 19.1209375,3.525625 C19.1,3.4875 19.084375,3.44625 19.0621875,3.408125 C19.0078125,3.31625 18.9409375,3.233125 18.8828125,3.14375 C18.821875,3.05 18.771875,2.951875 18.705625,2.86 C18.6784375,2.823125 18.6471875,2.791875 18.62,2.755625 C18.550625,2.66375 18.474375,2.5775 18.400625,2.489375 C18.2725,2.334375 18.1425,2.18 18.0034375,2.03875 C17.9965625,2.031875 17.9909375,2.02375 17.98375,2.016875 C17.951875,1.985 17.915625,1.959375 17.883125,1.928125 C17.73875,1.78875 17.596875,1.645 17.4415625,1.52 C17.4090625,1.49375 17.373125,1.474375 17.3403125,1.44875 C17.2890625,1.409375 17.2334375,1.375625 17.1809375,1.336875 C17.0009375,1.205625 16.8203125,1.07625 16.630625,0.964375 C16.6175,0.95625 16.605625,0.945625 16.591875,0.9375 C16.48375,0.87375 16.36625,0.825625 16.254375,0.768125 C16.1428125,0.710625 16.0353125,0.64375 15.9203125,0.593125 C15.9059375,0.5875 15.89,0.58375 15.87625,0.576875 C15.675625,0.489375 15.4659375,0.41875 15.2546875,0.349375 C15.1921875,0.329375 15.13125,0.303125 15.068125,0.285 C15.028125,0.273125 14.99125,0.255 14.95125,0.244375 C14.758125,0.190625 14.55875,0.159375 14.36,0.123125 C14.316875,0.115625 14.275,0.10125 14.23125,0.094375 C14.221875,0.0925 14.211875,0.0925 14.2025,0.09125 C14.00625,0.060625 13.8053125,0.045 13.604375,0.03125 C13.489375,0.023125 13.375,0.0115625 13.259375,0.00875 C13.214375,0.008125 13.1709375,0 13.125,0 L13.120625,0.013125 L13.119375,0.013125 L13.125,0 C13.011875,0 12.903125,0.016875 12.79125,0.021875 C12.685,0.026875 12.578125,0.02125 12.4721875,0.030625 C12.428125,0.035 12.3859375,0.04625 12.3428125,0.05125 C12.1915625,0.068125 12.0434375,0.095625 11.8953125,0.121875 C11.746875,0.14875 11.5984375,0.17625 11.45,0.213125 C11.4009375,0.225625 11.3484375,0.230625 11.2990625,0.244375 C11.2025,0.27125 11.1140625,0.310625 11.019375,0.34125 C10.925,0.371875 10.8290625,0.39125 10.735,0.42625 C10.6865625,0.44375 10.641875,0.470625 10.5940625,0.489375 C10.4528125,0.545625 10.31625,0.610625 10.1796875,0.675625 C10.04375,0.74 9.9084375,0.804375 9.7759375,0.87875 C9.7378125,0.9 9.6965625,0.915625 9.6584375,0.9375 C9.5665625,0.991875 9.483125,1.05875 9.39375,1.1175 C9.3,1.178125 9.2021875,1.228125 9.1103125,1.294375 L9.1140625,1.306875 L9.1134375,1.3075 L9.1103125,1.294375 C9.0728125,1.32125 9.041875,1.353125 9.0059375,1.380625 C8.91375,1.449375 8.8284375,1.525625 8.74,1.599375 C8.584375,1.7275 8.43,1.8575 8.28875,1.996875 C8.2821875,2.004375 8.27375,2.009375 8.2671875,2.016875 C8.235,2.048125 8.209375,2.084375 8.1790625,2.11625 C8.0390625,2.26125 7.8959375,2.4025 7.7703125,2.55875 C7.7440625,2.591875 7.7246875,2.6275 7.699375,2.66 C7.65875,2.711875 7.6253125,2.768125 7.585625,2.82125 C7.454375,3.000625 7.3259375,3.18125 7.214375,3.369375 C7.205625,3.383125 7.195625,3.395 7.188125,3.408125 C7.12375,3.51625 7.075625,3.63375 7.018125,3.745 C6.96125,3.8575 6.89375,3.965 6.84375,4.08 C6.8371875,4.094375 6.83375,4.11 6.8271875,4.124375 C6.739375,4.325625 6.6678125,4.53625 6.59875,4.748125 C6.57875,4.81 6.553125,4.87 6.535,4.931875 C6.523125,4.971875 6.505625,5.00875 6.494375,5.04875 C6.440625,5.24125 6.4096875,5.440625 6.37375,5.638125 C6.365625,5.681875 6.35125,5.724375 6.3440625,5.76875 C6.3421875,5.77875 6.3421875,5.78875 6.3409375,5.798125 C6.3103125,5.99375 6.295,6.194375 6.2809375,6.395 C6.273125,6.51 6.2615625,6.625625 6.25875,6.740625 C6.258125,6.78625 6.25,6.829375 6.25,6.875 C6.25,7.09125 6.26125,7.305 6.280625,7.51625 L6.280625,7.52875 C6.281875,7.543125 6.2865625,7.558125 6.288125,7.573125 C6.3125,7.8175 6.3525,8.058125 6.4025,8.296875 C6.41625,8.361875 6.43,8.426875 6.44625,8.49125 C6.505,8.735625 6.573125,8.976875 6.6603125,9.214375 C6.6609375,9.21625 6.6621875,9.218125 6.6628125,9.22 C6.6684375,9.235 6.670625,9.25 6.6765625,9.265 C6.69625,9.32 6.72625,9.370625 6.7478125,9.425 C6.8159375,9.59375 6.8903125,9.76 6.9715625,9.9225 C7.0209375,10.021875 7.0709375,10.120625 7.1253125,10.21875 C7.2390625,10.42125 7.3615625,10.619375 7.495625,10.81125 C7.51375,10.836875 7.526875,10.864375 7.5446875,10.89 C7.6359375,11.016875 7.7334375,11.135625 7.8309375,11.254375 C7.835,11.259375 7.8384375,11.264375 7.8428125,11.269375 C8.2525,11.76375 8.7175,12.1925 9.2434375,12.549375 C9.4840625,12.7125 9.7359375,12.85375 9.9934375,12.985 C10.25,13.1175 10.5125,13.24 10.785625,13.34 C11.383125,13.55875 12.003125,13.68625 12.64375,13.729375 L12.64375,13.73 C12.65625,13.73125 12.66875,13.730625 12.68125,13.73125 C12.82875,13.740625 12.9753125,13.75 13.125,13.75 C13.155625,13.75 13.185,13.744375 13.21625,13.74375 C13.45125,13.740625 13.684375,13.724375 13.915,13.698125 C14.0265625,13.685625 14.13625,13.668125 14.24625,13.65 C14.425,13.62125 14.6028125,13.584375 14.78,13.54125 C14.83625,13.526875 14.895,13.52125 14.95125,13.50625 C14.96625,13.501875 14.980625,13.495 14.9959375,13.490625 C14.9984375,13.49 15.0003125,13.489375 15.0025,13.489375 C15.245,13.42125 15.480625,13.335625 15.713125,13.24125 C15.775625,13.215625 15.8371875,13.18875 15.899375,13.16125 C16.116875,13.065 16.330625,12.959375 16.539375,12.839375 C16.5559375,12.829375 16.575,12.823125 16.591875,12.813125 C16.5965625,12.81 16.600625,12.80625 16.605625,12.803125 C16.7875,12.69625 16.965625,12.58125 17.14,12.455625 C17.176875,12.429375 17.2071875,12.398125 17.243125,12.37125 C17.335625,12.300625 17.42375,12.223125 17.513125,12.14875 C17.6675,12.020625 17.820625,11.89125 17.96125,11.753125 C17.968125,11.74625 17.97625,11.740625 17.98375,11.73375 C18.0153125,11.701875 18.0409375,11.665625 18.071875,11.633125 C18.21125,11.488125 18.355,11.346875 18.48,11.19125 C18.50625,11.15875 18.5253125,11.123125 18.5509375,11.090625 C18.5921875,11.0375 18.626875,10.98 18.6665625,10.925625 C18.7971875,10.746875 18.925,10.5675 19.0365625,10.38 C19.0446875,10.366875 19.0546875,10.355 19.0628125,10.341875 C19.1234375,10.238125 19.1696875,10.12625 19.2246875,10.019375 C19.2846875,9.903125 19.3540625,9.790625 19.4071875,9.670625 C19.4140625,9.655 19.4178125,9.63875 19.425,9.623125 C19.5103125,9.426875 19.58,9.220625 19.648125,9.01375 C19.6690625,8.9475 19.696875,8.88375 19.71625,8.816875 C19.728125,8.7775 19.745625,8.74125 19.756875,8.70125 C19.81,8.508125 19.8415625,8.309375 19.876875,8.11125 C19.885625,8.066875 19.9,8.025625 19.9071875,7.98125 C19.9090625,7.971875 19.9084375,7.961875 19.9103125,7.9525 C19.9403125,7.756875 19.9559375,7.556875 19.9696875,7.35625 C19.976875,7.240625 19.98875,7.125 19.99125,7.00875" id="Path" fill="#2F2F2F" fill-rule="nonzero" mask="url(#mask-2)"></path>
                            </g>
                            <g id="Clipped">
                                <mask id="mask-4" fill="white">
                                    <use xlink:href="#path-3"></use>
                                </mask>
                                <g id="SVGID_5_"></g>
                                <path d="M8.730625,12.15875 L1.064375,19.815 C0.94125,19.93875 0.794375,20 0.6253125,20 C0.4565625,20 0.309375,19.93875 0.1859375,19.815 C0.0621875,19.69125 0.0003125,19.544375 0.0003125,19.375 C0.0003125,19.20625 0.061875,19.059375 0.1859375,18.935625 L7.8428125,11.27 L8.730625,12.15875 Z" id="Path" fill="#0078D4" fill-rule="nonzero" mask="url(#mask-4)"></path>
                            </g>
                            <g id="Clipped">
                                <mask id="mask-6" fill="white">
                                    <use xlink:href="#path-5"></use>
                                </mask>
                                <g id="SVGID_5_"></g>
                                <path d="M13.125,12.5 C13.9,12.5 14.629375,12.351875 15.3125,12.05625 C15.99625,11.759375 16.591875,11.3575 17.099375,10.849375 C17.6075,10.341875 18.009375,9.74625 18.30625,9.0625 C18.601875,8.379375 18.75,7.65 18.75,6.875 C18.75,6.1 18.601875,5.37125 18.30625,4.6875 C18.009375,4.00375 17.6075,3.408125 17.099375,2.900625 C16.591875,2.3925 15.9965625,1.990625 15.3125,1.694375 C14.629375,1.398125 13.9,1.25 13.125,1.25 C12.3503125,1.25 11.6209375,1.398125 10.9375,1.694375 C10.25375,1.990625 9.658125,2.3925 9.150625,2.900625 C8.6425,3.408125 8.240625,4.00375 7.94375,4.6875 C7.6484375,5.37125 7.5,6.1 7.5,6.875 C7.5,7.65 7.6484375,8.379375 7.94375,9.0625 C8.240625,9.74625 8.6425,10.341875 9.150625,10.849375 C9.658125,11.3575 10.25375,11.759375 10.9375,12.05625 C11.6209375,12.351875 12.3503125,12.5 13.125,12.5" id="Path" fill="#C2C2C2" fill-rule="nonzero" mask="url(#mask-6)"></path>
                            </g>
                        </g>
                    </g>
                </g>
            </g>
        </g>
    </g>
</svg>