<?xml version="1.0" encoding="UTF-8"?>
<svg width="25px" height="18px" viewBox="0 0 25 18" version="1.1" xmlns="http://www.w3.org/2000/svg" xmlns:xlink="http://www.w3.org/1999/xlink">
    <!-- Generator: Sketch 52.6 (67491) - http://www.bohemiancoding.com/sketch -->
    <title>upload_icon</title>
    <desc>Created with Sketch.</desc>
    <g id="changes" stroke="none" stroke-width="1" fill="none" fill-rule="evenodd">
        <g id="SITTM_new-changes" transform="translate(-1346.000000, -997.000000)" fill="#FFFFFF" fill-rule="nonzero">
            <g id="Group-33-Copy" transform="translate(992.000000, 992.000000)">
                <g id="Mask-group-Copy" transform="translate(341.000000, 0.000000)">
                    <g id="upload_icon" transform="translate(13.000000, 5.000000)">
                        <path d="M23.4190273,10.0206849 C22.7090323,9.13229777 21.8017072,8.55647643 20.6962928,8.29286352 C21.0451266,7.76581638 21.2190521,7.1791861 21.2190521,6.5331067 C21.2190521,5.63190074 20.9001886,4.86259057 20.2628189,4.22490819 C19.6253151,3.58744913 18.8559603,3.26858561 17.9547543,3.26858561 C17.1470769,3.26858561 16.4415484,3.53215385 15.8380794,4.05929032 C15.3367146,2.83502233 14.5351563,1.85315136 13.4343424,1.11363275 C12.3335285,0.373890819 11.1198908,0.00406451613 9.79351861,0.00406451613 C7.99133002,0.00406451613 6.45248635,0.641836228 5.17725558,1.917067 C3.90193548,3.19198511 3.26447643,4.73091811 3.26447643,6.53324069 C3.26447643,6.64374194 3.27300744,6.82655583 3.28998015,7.08150372 C2.28684864,7.54910174 1.48779156,8.25043176 0.892540943,9.1854938 C0.297513648,10.1208238 0,11.140794 0,12.2462084 C0,13.8190422 0.55907196,15.164129 1.67690323,16.2820496 C2.79477916,17.4003275 4.14017866,17.9591315 5.71292308,17.9591315 L19.5874839,17.9591315 C20.9390025,17.9591315 22.0930124,17.4807246 23.0495583,16.5244913 C24.0059702,15.5682581 24.4842432,14.4142481 24.4842432,13.0622382 C24.4841092,11.9230571 24.129067,10.90934 23.4190273,10.0206849 Z M16.2012953,9.67658561 C16.1203176,9.75716129 16.0249132,9.7974938 15.9145459,9.7974938 L13.0580844,9.7974938 L13.0580844,14.2864169 C13.0580844,14.3967841 13.0177519,14.4924566 12.9369975,14.5731663 C12.8560199,14.6541439 12.7606154,14.6942531 12.6502481,14.6942531 L10.2014442,14.6942531 C10.0909429,14.6942531 9.99531514,14.6541886 9.91456079,14.5731663 C9.83398511,14.4924566 9.79342928,14.3967841 9.79342928,14.2864169 L9.79342928,9.7974938 L6.93692308,9.7974938 C6.81802481,9.7974938 6.72016377,9.75930521 6.6437866,9.68301737 C6.56727543,9.60646154 6.52908685,9.50864516 6.52908685,9.3897469 C6.52908685,9.28764268 6.57151861,9.18553846 6.65647146,9.08356824 L11.1324864,4.60768734 C11.2089975,4.53113151 11.3068139,4.49289826 11.4258015,4.49289826 C11.5448784,4.49289826 11.6426948,4.53113151 11.7191166,4.60768734 L16.2079057,9.09629777 C16.2844615,9.17276427 16.3223375,9.27053598 16.3223375,9.38979156 C16.3222928,9.50006948 16.2819603,9.59605459 16.2012953,9.67658561 Z" id="Shape"></path>
                    </g>
                </g>
            </g>
        </g>
    </g>
</svg>