<?xml version="1.0" encoding="UTF-8"?>
<svg width="34px" height="35px" viewBox="0 0 34 35" version="1.1" xmlns="http://www.w3.org/2000/svg" xmlns:xlink="http://www.w3.org/1999/xlink">
    <!-- Generator: Sketch 52.6 (67491) - http://www.bohemiancoding.com/sketch -->
    <title>xls_icon</title>
    <desc>Created with Sketch.</desc>
    <defs>
        <polygon id="path-1" points="0.00442708333 0 33.0555556 0 33.0555556 20.1875 0.00442708333 20.1875"></polygon>
    </defs>
    <g id="All-Resources-icons" stroke="none" stroke-width="1" fill="none" fill-rule="evenodd">
        <g id="Res-03" transform="translate(-300.000000, -358.000000)">
            <g id="XLS_icon" transform="translate(300.000000, 358.250000)">
                <g>
                    <path d="M7.08333333,0 C5.78472222,0 4.72222222,0.95625 4.72222222,2.125 L4.72222222,31.875 C4.72222222,33.04375 5.78472222,34 7.08333333,34 L30.6944444,34 C31.9930556,34 33.0555556,33.04375 33.0555556,31.875 L33.0555556,8.5 L23.6111111,0 L7.08333333,0" id="Fill-1" fill="#E1E4E1"></path>
                    <path d="M25.9722222,8.5 L33.0555556,8.5 L23.6111111,0 L23.6111111,6.375 C23.6111111,7.54375 24.6736111,8.5 25.9722222,8.5" id="Fill-2" fill="#AAB0B1"></path>
                    <g id="Group-6" transform="translate(0.000000, 8.500000)">
                        <mask id="mask-2" fill="white">
                            <use xlink:href="#path-1"></use>
                        </mask>
                        <g id="Clip-4"></g>
                        <polyline id="Fill-3" fill="#C6CCCE" mask="url(#mask-2)" points="33.0555556 6.375 25.9722222 0 33.0555556 0 33.0555556 6.375"></polyline>
                        <path d="M28.3333333,19.125 C28.3333333,19.709375 27.8020833,20.1875 27.1527778,20.1875 L1.18055556,20.1875 C0.53125,20.1875 0,19.709375 0,19.125 L0,8.5 C0,7.915625 0.53125,7.4375 1.18055556,7.4375 L27.1527778,7.4375 C27.8020833,7.4375 28.3333333,7.915625 28.3333333,8.5 L28.3333333,19.125" id="Fill-5" fill="#7CB659" mask="url(#mask-2)"></path>
                    </g>
                    <path d="M8.28868056,21.6611875 L9.93083333,19.80925 C10.4219444,19.23125 11.3758333,19.9696875 10.8375,20.5221875 C10.2720139,21.1256875 9.67701389,21.7801875 9.11034722,22.450625 L11.0358333,24.6085625 C11.5552778,25.2460625 10.5175694,25.857 10.0075694,25.228 L8.26979167,23.2230625 L6.56152778,25.2715625 C6.07986111,25.891 5.01263889,25.1950625 5.55097222,24.6170625 L7.448125,22.450625 C6.853125,21.779125 6.27701389,21.1256875 5.70208333,20.5221875 C5.10826389,19.8846875 6.21208333,19.23125 6.64652778,19.8273125 L8.28868056,21.6611875" id="Fill-7" fill="#FFFFFE"></path>
                    <path d="M12.2010417,20.1311875 C12.2010417,19.8506875 12.4654861,19.6126875 12.7960417,19.6126875 C13.0982639,19.6126875 13.3532639,19.85175 13.3532639,20.1311875 L13.3532639,24.3875625 L15.9209722,24.3875625 C16.8453472,24.3875625 16.8654167,25.5 15.9209722,25.5 L12.7972222,25.5 C12.4666667,25.5 12.2022222,25.2885625 12.2022222,24.9825625 L12.2022222,20.1311875 L12.2010417,20.1311875" id="Fill-8" fill="#FFFFFE"></path>
                    <path d="M17.7106944,20.8961875 C17.9279167,19.2471875 20.6927778,18.95075 21.9961111,19.85175 C22.6383333,20.3181875 21.9583333,21.0576875 21.3916667,20.6836875 C20.6927778,20.28525 19.1072917,20.09825 18.9089583,20.980125 C18.6539583,22.374125 22.7599306,21.5761875 22.6938194,23.836125 C22.6277083,25.9940625 19.1545139,26.044 17.8511806,25.0760625 C17.5383333,24.8465625 17.5489583,24.473625 17.7189583,24.2430625 C17.9645139,24.023125 18.2372222,23.946625 18.5595139,24.184625 C19.3327778,24.6595625 21.3255556,25.0165625 21.4660417,23.8095625 C21.3444444,22.5536875 17.4179167,23.309125 17.7106944,20.8961875" id="Fill-9" fill="#FFFFFE"></path>
                    <path d="M27.1527778,28.6875 L4.72222222,28.6875 L4.72222222,29.75 L27.1527778,29.75 C27.8020833,29.75 28.3333333,29.271875 28.3333333,28.6875 L28.3333333,27.625 C28.3333333,28.209375 27.8020833,28.6875 27.1527778,28.6875" id="Fill-10" fill="#C6CCCE"></path>
                </g>
            </g>
        </g>
    </g>
</svg>