<?xml version="1.0" encoding="UTF-8"?>
<svg width="27px" height="24px" viewBox="0 0 27 24" version="1.1" xmlns="http://www.w3.org/2000/svg" xmlns:xlink="http://www.w3.org/1999/xlink">
    <title>comment_icon</title>
    <g id="Talent-Management-UI" stroke="none" stroke-width="1" fill="none" fill-rule="evenodd">
        <g id="07_Manager-profile-view_A" transform="translate(-1287.000000, -513.000000)" fill="#4174FF" fill-rule="nonzero">
            <g id="Group-7" transform="translate(519.000000, 243.000000)">
                <g id="listing" transform="translate(20.000000, 22.000000)">
                    <g id="line1-copy" transform="translate(0.000000, 234.000000)">
                        <g id="line1">
                            <g id="1381635" transform="translate(748.000000, 14.000000)">
                                <path d="M22.454714,0.0271716203 L3.57918431,0.0271716203 C1.60566736,0.0271716203 -2.84217094e-14,1.63283898 -2.84217094e-14,3.60635593 L-2.84217094e-14,15.157786 C-2.84217094e-14,17.1274894 1.59867584,18.7302966 3.56647245,18.7369704 L3.56647245,23.9791843 L11.0993644,18.737447 L22.454714,18.737447 C24.4282309,18.737447 26.0338983,17.1317797 26.0338983,15.157786 L26.0338983,3.60635593 C26.0338983,1.63283898 24.4282309,0.0271716203 22.454714,0.0271716203 L22.454714,0.0271716203 Z M19.0658898,13.4513771 L6.96800847,13.4513771 L6.96800847,11.9259534 L19.0658898,11.9259534 L19.0658898,13.4513771 Z M19.0658898,10.1971399 L6.96800847,10.1971399 L6.96800847,8.67171612 L19.0658898,8.67171612 L19.0658898,10.1971399 Z M19.0658898,6.94290256 L6.96800847,6.94290256 L6.96800847,5.41747883 L19.0658898,5.41747883 L19.0658898,6.94290256 Z" id="comment_icon"></path>
                            </g>
                        </g>
                    </g>
                </g>
            </g>
        </g>
    </g>
</svg>