<?xml version="1.0" encoding="UTF-8"?>
<svg width="16px" height="16px" viewBox="0 0 16 16" version="1.1" xmlns="http://www.w3.org/2000/svg" xmlns:xlink="http://www.w3.org/1999/xlink">
    <title>cross_icon</title>
    <g id="Talent-Management-UI" stroke="none" stroke-width="1" fill="none" fill-rule="evenodd" fill-opacity="0.5">
        <g id="06_individual-card_person_A_Edit-View" transform="translate(-1394.000000, -1016.000000)" fill="#000000">
            <g id="Group-Copy-3" transform="translate(1007.000000, 993.000000)">
                <g id="cross_icon" transform="translate(387.000000, 23.000000)">
                    <g id="Input_search">
                        <g id="Group-2">
                            <g id="Group" transform="translate(0.153846, 0.461538)">
                                <path d="M14.5523077,0.216 C14.2643077,-0.072 13.7953846,-0.072 13.5073846,0.216 L7.38461538,6.33876923 L1.25815385,0.216 C0.970153846,-0.072 0.504923077,-0.072 0.216,0.216 C-0.072,0.504923077 -0.072,0.970153846 0.216,1.25815385 L6.33876923,7.38461538 L0.216,13.5073846 C-0.072,13.7953846 -0.072,14.2643077 0.216,14.5523077 C0.36,14.6972308 0.548307692,14.7692308 0.739384615,14.7692308 C0.926769231,14.7692308 1.11415385,14.6972308 1.25815385,14.5523077 L7.38461538,8.42676923 L13.5073846,14.5523077 C13.6513846,14.6972308 13.8424615,14.7692308 14.0298462,14.7692308 C14.2172308,14.7692308 14.4083077,14.6972308 14.5523077,14.5523077 C14.8412308,14.2643077 14.8412308,13.7953846 14.5523077,13.5073846 L8.42676923,7.38461538 L14.5523077,1.25815385 C14.8412308,0.970153846 14.8412308,0.504923077 14.5523077,0.216 Z" id="Fill-2"></path>
                            </g>
                        </g>
                    </g>
                </g>
            </g>
        </g>
    </g>
</svg>