<?xml version="1.0" encoding="UTF-8"?>
<svg width="16px" height="24px" viewBox="0 0 16 24" version="1.1" xmlns="http://www.w3.org/2000/svg" xmlns:xlink="http://www.w3.org/1999/xlink">
    <title>flagblue_icon</title>
    <g id="Talent-Management-UI" stroke="none" stroke-width="1" fill="none" fill-rule="evenodd">
        <g id="06_individual-card_person_A_Edit-View" transform="translate(-469.000000, -255.000000)">
            <g id="Group-33" transform="translate(50.000000, 243.000000)">
                <g id="Group-25">
                    <g id="Group-37" transform="translate(409.000000, 6.000000)">
                        <g id="flagblue_icon" transform="translate(10.000000, 6.000000)">
                            <g id="Group" transform="translate(1.546778, 3.742204)" fill="#C3DFFF">
                                <polygon id="Path" points="13.1007568 0.0376715177 8.90380042 4.59961746 13.1007568 9.16151351 0.457696466 9.16151351 0.0145696466 9.16151351 0.0145696466 0.0376715177 0.457696466 0.0376715177"></polygon>
                            </g>
                            <path d="M11.1544116,8.34182121 L15.0385696,4.14486486 C15.1734886,4.01782952 15.215052,3.82024116 15.1428524,3.64954678 C15.0474012,3.46877339 14.8506112,3.36518919 14.6475343,3.38888981 L2.10875676,3.38888981 L2.10875676,3.0239501 C2.70466528,2.7789106 3.10223701,2.2080499 3.12543867,1.56414137 C3.12543867,0.70029106 2.42514761,0 1.56134719,0 C0.71191684,0 0.0231018711,0.688365904 0.0231018711,1.53779626 C0.0231018711,1.54657796 0.0231018711,1.55530977 0.0233014553,1.56409148 C0.0574303534,2.21204158 0.464133056,2.7814553 1.06602911,3.02390021 L1.06602911,23.4613222 C1.06602911,23.7492723 1.29944283,23.9826861 1.58739293,23.9826861 C1.87534304,23.9826861 2.10875676,23.7492723 2.10875676,23.4613222 L2.10875676,13.5554096 L14.6475343,13.5554096 C14.8632848,13.5242245 15.0491476,13.3872599 15.1428524,13.1904699 C15.2142037,12.9860457 15.174736,12.7592682 15.0385696,12.5909189 L11.1544116,8.34182121 Z M1.56134719,1.04272765 C1.8492973,1.04272765 2.08271102,1.27614137 2.08271102,1.56409148 C2.08271102,1.85204158 1.8492973,2.0854553 1.56134719,2.0854553 C1.27339709,2.0854553 1.03998337,1.85204158 1.03998337,1.56409148 C1.03998337,1.27614137 1.27339709,1.04272765 1.56134719,1.04272765 Z M2.10875676,12.5127318 L2.10875676,4.43156757 L13.4744782,4.43156757 L10.0856383,8.05501871 C9.89977547,8.26283576 9.89977547,8.57713098 10.0856383,8.78494802 L13.4744782,12.5127318 L2.10875676,12.5127318 L2.10875676,12.5127318 Z" id="Shape" fill="#4A4A4A" fill-rule="nonzero"></path>
                        </g>
                    </g>
                </g>
            </g>
        </g>
    </g>
</svg>