<?xml version="1.0" encoding="UTF-8"?>
<svg width="45px" height="45px" viewBox="0 0 45 45" version="1.1" xmlns="http://www.w3.org/2000/svg" xmlns:xlink="http://www.w3.org/1999/xlink">
    <title>resources_joined_icon</title>
    <g id="Talent-Management-UI" stroke="none" stroke-width="1" fill="none" fill-rule="evenodd">
        <g id="08_main-Admin-Dashboard" transform="translate(-671.000000, -263.000000)" fill="#F2F4F4">
            <g id="Group-19" transform="translate(436.000000, 254.000000)">
                <g id="resources_joined_icon" transform="translate(234.999756, 9.000000)">
                    <g id="Group">
                        <g id="_x38__3_">
                            <g id="Group">
                                <path d="M22.5,0 C10.0729414,0 0,10.0729414 0,22.5 C0,34.9270579 10.0729414,45 22.5,45 C34.9270579,45 45,34.9255881 45,22.5 C45,10.0744113 34.9270579,0 22.5,0 L22.5,0 Z M22.5,42.1875 C11.6268383,42.1875 2.8125,33.3731617 2.8125,22.5 C2.8125,11.6268383 11.6268383,2.8125 22.5,2.8125 C33.3731617,2.8125 42.1875,11.6268383 42.1875,22.5 C42.1875,33.3731617 33.3731617,42.1875 22.5,42.1875 L22.5,42.1875 Z M30.9375005,21.093751 L23.9062515,21.093751 L23.9062515,14.062501 C23.9062515,13.2862505 23.2762514,12.656251 22.500001,12.656251 C21.7237506,12.656251 21.093751,13.2862505 21.093751,14.062501 L21.093751,21.093751 L14.062501,21.093751 C13.2862505,21.093751 12.656251,21.7237506 12.656251,22.500001 C12.656251,23.2762514 13.2862505,23.9062515 14.062501,23.9062515 L21.093751,23.9062515 L21.093751,30.9375005 C21.093751,31.713752 21.7237506,32.343751 22.500001,32.343751 C23.2762514,32.343751 23.9062515,31.713752 23.9062515,30.9375005 L23.9062515,23.9062515 L30.9375005,23.9062515 C31.713752,23.9062515 32.343751,23.2762514 32.343751,22.500001 C32.343751,21.7237506 31.713752,21.093751 30.9375005,21.093751 L30.9375005,21.093751 Z" id="Shape"></path>
                            </g>
                        </g>
                    </g>
                </g>
            </g>
        </g>
    </g>
</svg>