<?xml version="1.0" encoding="UTF-8"?>
<svg width="38px" height="46px" viewBox="0 0 38 46" version="1.1" xmlns="http://www.w3.org/2000/svg" xmlns:xlink="http://www.w3.org/1999/xlink">
    <title>resources_total-icon</title>
    <g id="Talent-Management-UI" stroke="none" stroke-width="1" fill="none" fill-rule="evenodd">
        <g id="08_main-Admin-Dashboard" transform="translate(-1380.000000, -264.000000)" fill="#FFFFFF">
            <g id="Analytics-Copy-5" transform="translate(1150.000000, 254.000000)">
                <g id="resources_total-icon" transform="translate(230.000000, 10.000000)">
                    <path d="M18.7123699,21.9401588 C21.7265442,21.9401588 24.3362337,20.8591011 26.46916,18.7261742 C28.6013906,16.5935965 29.6827965,13.9842538 29.6827965,10.9697322 C29.6827965,7.95625286 28.6017385,5.34656296 26.4688122,3.21328922 C24.3358858,1.08105792 21.7261964,0 18.7123699,0 C15.6978484,0 13.0885058,1.08105792 10.9559273,3.21363676 C8.8233487,5.34621543 7.74194336,7.955905 7.74194336,10.9697322 C7.74194336,13.9842538 8.8233487,16.5939431 10.9559273,18.7265221 C13.0892009,20.8587532 15.6988907,21.9401588 18.7123699,21.9401588 Z M12.8435461,5.10088235 C14.4799021,3.46452714 16.3994667,2.66911054 18.7123964,2.66911054 C21.0249782,2.66911054 22.944891,3.46452714 24.5815937,5.10088235 C26.2179502,6.73758477 27.0137146,8.65749606 27.0137146,10.9697295 C27.0137146,13.2826575 26.2179502,15.2022217 24.5815937,16.8389234 C22.944891,18.4756261 21.0249782,19.2710431 18.7123964,19.2710431 C16.4001619,19.2710431 14.4805973,18.4752788 12.8435461,16.8389234 C11.2068428,15.2025691 10.4110782,13.2826575 10.4110782,10.9697295 C10.4110782,8.65749606 11.2068428,6.73758477 12.8435461,5.10088235 Z" id="Shape"></path>
                    <path d="M37.9079129,35.0233069 C37.8464074,34.1358045 37.7220036,33.1676818 37.5388734,32.1453501 C37.3540061,31.115374 37.1159729,30.1416915 36.8310252,29.2517555 C36.5363495,28.3319352 36.1363819,27.4235821 35.6412014,26.553106 C35.1279509,25.6496177 34.5246993,24.8628881 33.8477794,24.2155042 C33.1399312,23.5382354 32.2732787,22.99371 31.2711014,22.5965228 C30.2724007,22.2014204 29.1656268,22.001263 27.98171,22.001263 C27.5167624,22.001263 27.0671034,22.1920381 26.1987114,22.7574131 C25.6642653,23.1059511 25.0391204,23.5090458 24.3413491,23.9548825 C23.7447,24.3350425 22.9364272,24.6912254 21.9380732,25.0137011 C20.9640427,25.3288793 19.9750724,25.4887275 18.9986104,25.4887275 C18.0228427,25.4887275 17.0338713,25.3288793 16.0591477,25.0137011 C15.0618355,24.6915729 14.253214,24.33539 13.6576079,23.9552299 C12.9664389,23.5135631 12.3409476,23.1104685 11.7985072,22.7570657 C10.9308117,22.1916906 10.4811527,22.0009155 10.016204,22.0009155 C8.83194008,22.0009155 7.72551548,22.2014204 6.72716141,22.5968702 C5.72567996,22.9933626 4.85867923,23.5378879 4.15013626,24.2158515 C3.47321548,24.8635831 2.86996362,25.6499654 2.35706054,26.553106 C1.86257469,27.4235821 1.46226019,28.3315878 1.1675842,29.2521028 C0.882985517,30.1420388 0.64495128,31.115374 0.460083757,32.1453501 C0.276606256,33.1662916 0.15255045,34.1347617 0.0910438094,35.0243497 C0.0305795849,35.8941307 0,36.7993573 0,37.7139644 C0,40.0915282 0.755802274,42.0163062 2.24620961,43.4358247 C3.71819958,44.8365791 5.66556296,45.5468597 8.03443846,45.5468597 L29.9655621,45.5468597 C32.3337423,45.5468597 34.2811056,44.8365791 35.7534423,43.4358247 C37.2441977,42.0173489 38,40.0918763 38,37.7136178 C38,36.7958823 37.9687252,35.8906558 37.9079129,35.0233069 L37.9079129,35.0233069 Z M33.913138,41.5020104 C32.9405002,42.4277374 31.6492072,42.8777442 29.965244,42.8777442 L8.03446338,42.8777442 C6.35015334,42.8777442 5.05886063,42.4277374 4.08656851,41.5023576 C3.13269372,40.5943523 2.66913486,39.3548353 2.66913486,37.7139619 C2.66913486,36.8605133 2.69728196,36.0178375 2.75357625,35.2088681 C2.80848048,34.4151889 2.92072151,33.5433223 3.08717181,32.6168996 C3.25153711,31.7019443 3.46072938,30.8432834 3.70953606,30.065936 C3.94826533,29.3205583 4.27386859,28.5824782 4.67765815,27.8715024 C5.06303042,27.1938864 5.50643468,26.6125266 5.99570808,26.1441029 C6.45335946,25.7059111 7.03020186,25.3472959 7.70990263,25.0783344 C8.33852196,24.8295277 9.04497995,24.6933095 9.81190245,24.6728072 C9.90537875,24.7224991 10.0718287,24.8173653 10.3414854,24.993198 C10.8901806,25.3507708 11.522622,25.7587304 12.2217829,26.205262 C13.0099026,26.7077403 14.0252832,27.1615695 15.23839,27.5531968 C16.478601,27.9542065 17.7434838,28.1578388 18.9989849,28.1578388 C20.2544851,28.1578388 21.5197163,27.9542065 22.7592323,27.5535441 C23.9733816,27.161222 24.9884147,26.7077403 25.7775769,26.204567 C26.4930705,25.7472631 27.1077902,25.3511183 27.6564844,24.993198 C27.9261407,24.8177129 28.0925916,24.7224991 28.1860669,24.6728072 C28.9533374,24.6933095 29.6597959,24.8295277 30.2887622,25.0783344 C30.9681155,25.3472959 31.5449583,25.7062586 32.0026088,26.1441029 C32.4918829,26.6121792 32.9352867,27.1935389 33.3206584,27.8718499 C33.7247973,28.5824782 34.0507471,29.3209055 34.2891282,30.0655882 C34.5382828,30.8439784 34.7478221,31.7022921 34.9118414,32.6165524 C35.0779438,33.5447123 35.1905328,34.4169261 35.2454363,35.2092153 L35.2454363,35.2099109 C35.3020782,36.0157519 35.3305735,36.8580816 35.33092,37.7139619 C35.3305735,39.3551836 34.8670145,40.5943523 33.913138,41.5020104 L33.913138,41.5020104 Z" id="Shape"></path>
                </g>
            </g>
        </g>
    </g>
</svg>