<?xml version="1.0" encoding="UTF-8"?>
<svg width="18px" height="18px" viewBox="0 0 18 18" version="1.1" xmlns="http://www.w3.org/2000/svg" xmlns:xlink="http://www.w3.org/1999/xlink">
    <title>search_icon</title>
    <g id="Talent-Management-UI" stroke="none" stroke-width="1" fill="none" fill-rule="evenodd">
        <g id="03_individual-card_A-Copy" transform="translate(-1021.000000, -689.000000)" fill="#4A4A4A" fill-rule="nonzero">
            <g id="Group-10" transform="translate(1005.000000, 677.000000)">
                <g id="search_icon" transform="translate(16.000000, 12.000000)">
                    <path d="M17.8901016,16.8295781 L12.6612422,11.6007188 C13.653,10.376332 14.2499883,8.81975391 14.2499883,7.12501172 C14.2499883,3.19630078 11.0536875,0 7.12497656,0 C3.19626563,0 0,3.19630078 0,7.12501172 C0,11.0537227 3.19630078,14.2500234 7.12501172,14.2500234 C8.81975391,14.2500234 10.376332,13.653 11.6007188,12.6612773 L16.8295781,17.8901367 C16.9760742,18.0365625 17.2134492,18.0365625 17.3599453,17.8901367 L17.8901367,17.3599102 C18.0365625,17.2134492 18.0365625,16.9760039 17.8901016,16.8295781 Z M7.12501172,12.7500117 C4.02321094,12.7500117 1.50001172,10.2268125 1.50001172,7.12501172 C1.50001172,4.02321094 4.02321094,1.50001172 7.12501172,1.50001172 C10.2268125,1.50001172 12.7500117,4.02321094 12.7500117,7.12501172 C12.7500117,10.2268125 10.2268125,12.7500117 7.12501172,12.7500117 Z" id="Shape"></path>
                </g>
            </g>
        </g>
    </g>
</svg>