<?xml version="1.0" encoding="UTF-8"?>
<svg width="24px" height="24px" viewBox="0 0 24 24" version="1.1" xmlns="http://www.w3.org/2000/svg" xmlns:xlink="http://www.w3.org/1999/xlink">
    <title>timezone_icon</title>
    <g id="Talent-Management-UI" stroke="none" stroke-width="1" fill="none" fill-rule="evenodd" opacity="0.5">
        <g id="08_main-Admin-Dashboard" transform="translate(-1174.000000, -452.000000)" fill="#232425">
            <g id="Group-27" transform="translate(1002.000000, 388.000000)">
                <g id="Group-3-Copy" transform="translate(0.000000, 54.000000)">
                    <g id="timezone_icon" transform="translate(172.000000, 10.000000)">
                        <path d="M11.9809189,0 C5.3747569,0 0,5.3747569 0,11.9809189 C0,18.5870812 5.3747569,23.9618378 11.9809189,23.9618378 C18.5870812,23.9618378 23.9618378,18.5870812 23.9618378,11.9809189 C23.9618378,5.3747569 18.5870812,0 11.9809189,0 Z M11.980919,22.4642164 C6.20032443,22.4642164 1.49762166,17.7615136 1.49762166,11.980919 C1.49762166,6.20032443 6.20032443,1.49762166 11.980919,1.49762166 C17.7615136,1.49762166 22.4642164,6.20032443 22.4642164,11.980919 C22.4642164,17.7615136 17.7615136,22.4642164 11.980919,22.4642164 Z" id="Shape"></path>
                        <polygon id="Path" points="12.7297298 4.49286509 11.2321081 4.49286509 11.2321081 12.2909733 15.9443241 17.0031896 17.0031891 15.9443243 12.7297298 11.6708653"></polygon>
                    </g>
                </g>
            </g>
        </g>
    </g>
</svg>