<?xml version="1.0" encoding="UTF-8"?>
<svg width="50px" height="43px" viewBox="0 0 50 43" version="1.1" xmlns="http://www.w3.org/2000/svg" xmlns:xlink="http://www.w3.org/1999/xlink">
    <title>total_teams_icon</title>
    <g id="Talent-Management-UI" stroke="none" stroke-width="1" fill="none" fill-rule="evenodd">
        <g id="08_main-Admin-Dashboard" transform="translate(-300.000000, -264.000000)" fill="#FFFFFF">
            <g id="Analytics-Copy-2" transform="translate(81.000000, 254.000000)">
                <g id="total_teams_icon" transform="translate(219.000000, 10.051338)">
                    <path d="M42.6757812,21.9163241 L37.7814442,21.9163241 C37.1153325,21.9163241 36.4704102,22.0073397 35.8566403,22.1747226 C34.6458972,19.7946452 32.174024,18.1592941 29.3256849,18.1592941 L20.6743166,18.1592941 C17.825976,18.1592941 15.3541014,19.7946452 14.1433597,22.1747226 C13.5295898,22.0073397 12.8846675,21.9163241 12.2185543,21.9163241 L7.32421875,21.9163241 C3.28564458,21.9163241 0,25.2019674 0,29.2405402 L0,37.0645619 C0,39.4877054 1.97138675,41.4590912 4.39453125,41.4590912 L45.6054688,41.4590912 C48.0286121,41.4590912 50,39.4877054 50,37.0645619 L50,29.2405402 C50,25.2019674 46.7143565,21.9163241 42.6757812,21.9163241 Z M13.3500896,25.4836992 L13.3500896,38.5294952 L4.39452383,38.5294952 C3.58680898,38.5294952 2.92968011,37.8723664 2.92968011,37.0646521 L2.92968011,29.2406313 C2.92968011,26.8174878 4.90106673,24.8461018 7.32421112,24.8461018 L12.2185465,24.8461018 C12.6162028,24.8461018 13.0012614,24.9001056 13.3678629,24.9996173 C13.357316,25.1598712 13.3500896,25.3210039 13.3500896,25.4836992 Z M33.7201538,38.5295019 L16.2797241,38.5295019 L16.2797241,25.4836094 C16.2797241,23.0604658 18.2511109,21.0890799 20.6742556,21.0890799 L29.3256223,21.0890799 C31.7487672,21.0890799 33.7201538,23.0604658 33.7201538,25.4836094 L33.7201538,38.5295019 Z M47.0702744,37.0646668 C47.0702744,37.8723813 46.4131458,38.52951 45.6054305,38.52951 L36.649865,38.52951 L36.649865,25.4836148 C36.649865,25.3208219 36.6426384,25.1596892 36.6320915,24.9995329 C36.9986931,24.9001189 37.3837516,24.8460174 37.7814079,24.8460174 L42.6757433,24.8460174 C45.098888,24.8460174 47.0702744,26.8174036 47.0702744,29.2405474 L47.0702744,37.0646668 Z" id="Shape"></path>
                    <path d="M9.7715826,8.08349609 C6.18281275,8.08349609 3.26318359,11.0031248 3.26318359,14.5918941 C3.26318359,18.1806633 6.18281275,21.1002922 9.7715826,21.1002922 C13.3602545,21.1002922 16.2799816,18.1806633 16.2799816,14.5918941 C16.2799816,11.0031248 13.3603523,8.08349609 9.7715826,8.08349609 Z M9.77140594,18.1706085 C7.79806604,18.1706085 6.1926949,16.5652376 6.1926949,14.591898 C6.1926949,12.6185583 7.79806604,11.0131874 9.77140594,11.0131874 C11.7447458,11.0131874 13.350117,12.6185583 13.350117,14.591898 C13.350117,16.5652376 11.7447458,18.1706085 9.77140594,18.1706085 Z" id="Shape"></path>
                    <path d="M25.0000477,0 C20.2055171,0 16.3049316,3.90058547 16.3049316,8.69511604 C16.3049316,13.4896471 20.2055171,17.3902321 25.0000477,17.3902321 C29.7945788,17.3902321 33.6951637,13.4896471 33.6951637,8.69511604 C33.6951637,3.90068317 29.7945788,0 25.0000477,0 Z M25.0000391,14.460546 C21.8209387,14.460546 19.2346115,11.8742189 19.2346115,8.69511843 C19.2346115,5.51611575 21.8209387,2.92969084 25.0000391,2.92969084 C28.1791396,2.92969084 30.7654667,5.51601798 30.7654667,8.69511843 C30.7654667,11.8742189 28.1791396,14.460546 25.0000391,14.460546 Z" id="Shape"></path>
                    <path d="M40.2284889,8.08349609 C36.6398182,8.08349609 33.7200928,11.0031248 33.7200928,14.5918941 C33.7200928,18.1806633 36.6398182,21.1002922 40.2284889,21.1002922 C43.817257,21.1002922 46.7368851,18.1806633 46.7368851,14.5918941 C46.7368851,11.0031248 43.817257,8.08349609 40.2284889,8.08349609 Z M40.228483,18.1706085 C38.2552413,18.1706085 36.6497729,16.5652376 36.6497729,14.591898 C36.6498705,12.6185583 38.2552413,11.0131874 40.228483,11.0131874 C42.2018223,11.0131874 43.807193,12.6185583 43.807193,14.591898 C43.807193,16.5652376 42.2018223,18.1706085 40.228483,18.1706085 Z" id="Shape"></path>
                </g>
            </g>
        </g>
    </g>
</svg>